<?xml version="1.0" encoding="utf-8" standalone="no"?>
<!DOCTYPE svg PUBLIC "-//W3C//DTD SVG 1.1//EN"
  "http://www.w3.org/Graphics/SVG/1.1/DTD/svg11.dtd">
<svg xmlns:xlink="http://www.w3.org/1999/xlink" width="460.8pt" height="345.6pt" viewBox="0 0 460.8 345.6" xmlns="http://www.w3.org/2000/svg" version="1.1">
 <metadata>
  <rdf:RDF xmlns:dc="http://purl.org/dc/elements/1.1/" xmlns:cc="http://creativecommons.org/ns#" xmlns:rdf="http://www.w3.org/1999/02/22-rdf-syntax-ns#">
   <cc:Work>
    <dc:type rdf:resource="http://purl.org/dc/dcmitype/StillImage"/>
    <dc:date>2022-12-13T15:10:04.068506</dc:date>
    <dc:format>image/svg+xml</dc:format>
    <dc:creator>
     <cc:Agent>
      <dc:title>Matplotlib v3.6.2, https://matplotlib.org/</dc:title>
     </cc:Agent>
    </dc:creator>
   </cc:Work>
  </rdf:RDF>
 </metadata>
 <defs>
  <style type="text/css">*{stroke-linejoin: round; stroke-linecap: butt}</style>
 </defs>
 <g id="figure_1">
  <g id="patch_1">
   <path d="M 0 345.6 
L 460.8 345.6 
L 460.8 0 
L 0 0 
z
" style="fill: #ffffff"/>
  </g>
  <g id="axes_1">
   <g id="patch_2">
    <path d="M 57.6 307.584 
L 414.72 307.584 
L 414.72 41.472 
L 57.6 41.472 
z
" style="fill: #ffffff"/>
   </g>
   <g id="matplotlib.axis_1">
    <g id="xtick_1">
     <g id="line2d_1">
      <defs>
       <path id="m7d6fbde4e0" d="M 0 0 
L 0 3.5 
" style="stroke: #000000; stroke-width: 0.8"/>
      </defs>
      <g>
       <use xlink:href="#m7d6fbde4e0" x="114.717527" y="307.584" style="stroke: #000000; stroke-width: 0.8"/>
      </g>
     </g>
     <g id="text_1">
      <!-- 10 -->
      <g transform="translate(108.355027 322.182437) scale(0.1 -0.1)">
       <defs>
        <path id="DejaVuSans-31" d="M 794 531 
L 1825 531 
L 1825 4091 
L 703 3866 
L 703 4441 
L 1819 4666 
L 2450 4666 
L 2450 531 
L 3481 531 
L 3481 0 
L 794 0 
L 794 531 
z
" transform="scale(0.015625)"/>
        <path id="DejaVuSans-30" d="M 2034 4250 
Q 1547 4250 1301 3770 
Q 1056 3291 1056 2328 
Q 1056 1369 1301 889 
Q 1547 409 2034 409 
Q 2525 409 2770 889 
Q 3016 1369 3016 2328 
Q 3016 3291 2770 3770 
Q 2525 4250 2034 4250 
z
M 2034 4750 
Q 2819 4750 3233 4129 
Q 3647 3509 3647 2328 
Q 3647 1150 3233 529 
Q 2819 -91 2034 -91 
Q 1250 -91 836 529 
Q 422 1150 422 2328 
Q 422 3509 836 4129 
Q 1250 4750 2034 4750 
z
" transform="scale(0.015625)"/>
       </defs>
       <use xlink:href="#DejaVuSans-31"/>
       <use xlink:href="#DejaVuSans-30" x="63.623047"/>
      </g>
     </g>
    </g>
    <g id="xtick_2">
     <g id="line2d_2">
      <g>
       <use xlink:href="#m7d6fbde4e0" x="191.982536" y="307.584" style="stroke: #000000; stroke-width: 0.8"/>
      </g>
     </g>
     <g id="text_2">
      <!-- 11 -->
      <g transform="translate(185.620036 322.182437) scale(0.1 -0.1)">
       <use xlink:href="#DejaVuSans-31"/>
       <use xlink:href="#DejaVuSans-31" x="63.623047"/>
      </g>
     </g>
    </g>
    <g id="xtick_3">
     <g id="line2d_3">
      <g>
       <use xlink:href="#m7d6fbde4e0" x="269.247545" y="307.584" style="stroke: #000000; stroke-width: 0.8"/>
      </g>
     </g>
     <g id="text_3">
      <!-- 12 -->
      <g transform="translate(262.885045 322.182437) scale(0.1 -0.1)">
       <defs>
        <path id="DejaVuSans-32" d="M 1228 531 
L 3431 531 
L 3431 0 
L 469 0 
L 469 531 
Q 828 903 1448 1529 
Q 2069 2156 2228 2338 
Q 2531 2678 2651 2914 
Q 2772 3150 2772 3378 
Q 2772 3750 2511 3984 
Q 2250 4219 1831 4219 
Q 1534 4219 1204 4116 
Q 875 4013 500 3803 
L 500 4441 
Q 881 4594 1212 4672 
Q 1544 4750 1819 4750 
Q 2544 4750 2975 4387 
Q 3406 4025 3406 3419 
Q 3406 3131 3298 2873 
Q 3191 2616 2906 2266 
Q 2828 2175 2409 1742 
Q 1991 1309 1228 531 
z
" transform="scale(0.015625)"/>
       </defs>
       <use xlink:href="#DejaVuSans-31"/>
       <use xlink:href="#DejaVuSans-32" x="63.623047"/>
      </g>
     </g>
    </g>
    <g id="xtick_4">
     <g id="line2d_4">
      <g>
       <use xlink:href="#m7d6fbde4e0" x="346.512554" y="307.584" style="stroke: #000000; stroke-width: 0.8"/>
      </g>
     </g>
     <g id="text_4">
      <!-- 13 -->
      <g transform="translate(340.150054 322.182437) scale(0.1 -0.1)">
       <defs>
        <path id="DejaVuSans-33" d="M 2597 2516 
Q 3050 2419 3304 2112 
Q 3559 1806 3559 1356 
Q 3559 666 3084 287 
Q 2609 -91 1734 -91 
Q 1441 -91 1130 -33 
Q 819 25 488 141 
L 488 750 
Q 750 597 1062 519 
Q 1375 441 1716 441 
Q 2309 441 2620 675 
Q 2931 909 2931 1356 
Q 2931 1769 2642 2001 
Q 2353 2234 1838 2234 
L 1294 2234 
L 1294 2753 
L 1863 2753 
Q 2328 2753 2575 2939 
Q 2822 3125 2822 3475 
Q 2822 3834 2567 4026 
Q 2313 4219 1838 4219 
Q 1578 4219 1281 4162 
Q 984 4106 628 3988 
L 628 4550 
Q 988 4650 1302 4700 
Q 1616 4750 1894 4750 
Q 2613 4750 3031 4423 
Q 3450 4097 3450 3541 
Q 3450 3153 3228 2886 
Q 3006 2619 2597 2516 
z
" transform="scale(0.015625)"/>
       </defs>
       <use xlink:href="#DejaVuSans-31"/>
       <use xlink:href="#DejaVuSans-33" x="63.623047"/>
      </g>
     </g>
    </g>
    <g id="text_5">
     <!-- Eingangsleistung in $W$ -->
     <g transform="translate(180.61 335.862125) scale(0.1 -0.1)">
      <defs>
       <path id="DejaVuSans-45" d="M 628 4666 
L 3578 4666 
L 3578 4134 
L 1259 4134 
L 1259 2753 
L 3481 2753 
L 3481 2222 
L 1259 2222 
L 1259 531 
L 3634 531 
L 3634 0 
L 628 0 
L 628 4666 
z
" transform="scale(0.015625)"/>
       <path id="DejaVuSans-69" d="M 603 3500 
L 1178 3500 
L 1178 0 
L 603 0 
L 603 3500 
z
M 603 4863 
L 1178 4863 
L 1178 4134 
L 603 4134 
L 603 4863 
z
" transform="scale(0.015625)"/>
       <path id="DejaVuSans-6e" d="M 3513 2113 
L 3513 0 
L 2938 0 
L 2938 2094 
Q 2938 2591 2744 2837 
Q 2550 3084 2163 3084 
Q 1697 3084 1428 2787 
Q 1159 2491 1159 1978 
L 1159 0 
L 581 0 
L 581 3500 
L 1159 3500 
L 1159 2956 
Q 1366 3272 1645 3428 
Q 1925 3584 2291 3584 
Q 2894 3584 3203 3211 
Q 3513 2838 3513 2113 
z
" transform="scale(0.015625)"/>
       <path id="DejaVuSans-67" d="M 2906 1791 
Q 2906 2416 2648 2759 
Q 2391 3103 1925 3103 
Q 1463 3103 1205 2759 
Q 947 2416 947 1791 
Q 947 1169 1205 825 
Q 1463 481 1925 481 
Q 2391 481 2648 825 
Q 2906 1169 2906 1791 
z
M 3481 434 
Q 3481 -459 3084 -895 
Q 2688 -1331 1869 -1331 
Q 1566 -1331 1297 -1286 
Q 1028 -1241 775 -1147 
L 775 -588 
Q 1028 -725 1275 -790 
Q 1522 -856 1778 -856 
Q 2344 -856 2625 -561 
Q 2906 -266 2906 331 
L 2906 616 
Q 2728 306 2450 153 
Q 2172 0 1784 0 
Q 1141 0 747 490 
Q 353 981 353 1791 
Q 353 2603 747 3093 
Q 1141 3584 1784 3584 
Q 2172 3584 2450 3431 
Q 2728 3278 2906 2969 
L 2906 3500 
L 3481 3500 
L 3481 434 
z
" transform="scale(0.015625)"/>
       <path id="DejaVuSans-61" d="M 2194 1759 
Q 1497 1759 1228 1600 
Q 959 1441 959 1056 
Q 959 750 1161 570 
Q 1363 391 1709 391 
Q 2188 391 2477 730 
Q 2766 1069 2766 1631 
L 2766 1759 
L 2194 1759 
z
M 3341 1997 
L 3341 0 
L 2766 0 
L 2766 531 
Q 2569 213 2275 61 
Q 1981 -91 1556 -91 
Q 1019 -91 701 211 
Q 384 513 384 1019 
Q 384 1609 779 1909 
Q 1175 2209 1959 2209 
L 2766 2209 
L 2766 2266 
Q 2766 2663 2505 2880 
Q 2244 3097 1772 3097 
Q 1472 3097 1187 3025 
Q 903 2953 641 2809 
L 641 3341 
Q 956 3463 1253 3523 
Q 1550 3584 1831 3584 
Q 2591 3584 2966 3190 
Q 3341 2797 3341 1997 
z
" transform="scale(0.015625)"/>
       <path id="DejaVuSans-73" d="M 2834 3397 
L 2834 2853 
Q 2591 2978 2328 3040 
Q 2066 3103 1784 3103 
Q 1356 3103 1142 2972 
Q 928 2841 928 2578 
Q 928 2378 1081 2264 
Q 1234 2150 1697 2047 
L 1894 2003 
Q 2506 1872 2764 1633 
Q 3022 1394 3022 966 
Q 3022 478 2636 193 
Q 2250 -91 1575 -91 
Q 1294 -91 989 -36 
Q 684 19 347 128 
L 347 722 
Q 666 556 975 473 
Q 1284 391 1588 391 
Q 1994 391 2212 530 
Q 2431 669 2431 922 
Q 2431 1156 2273 1281 
Q 2116 1406 1581 1522 
L 1381 1569 
Q 847 1681 609 1914 
Q 372 2147 372 2553 
Q 372 3047 722 3315 
Q 1072 3584 1716 3584 
Q 2034 3584 2315 3537 
Q 2597 3491 2834 3397 
z
" transform="scale(0.015625)"/>
       <path id="DejaVuSans-6c" d="M 603 4863 
L 1178 4863 
L 1178 0 
L 603 0 
L 603 4863 
z
" transform="scale(0.015625)"/>
       <path id="DejaVuSans-65" d="M 3597 1894 
L 3597 1613 
L 953 1613 
Q 991 1019 1311 708 
Q 1631 397 2203 397 
Q 2534 397 2845 478 
Q 3156 559 3463 722 
L 3463 178 
Q 3153 47 2828 -22 
Q 2503 -91 2169 -91 
Q 1331 -91 842 396 
Q 353 884 353 1716 
Q 353 2575 817 3079 
Q 1281 3584 2069 3584 
Q 2775 3584 3186 3129 
Q 3597 2675 3597 1894 
z
M 3022 2063 
Q 3016 2534 2758 2815 
Q 2500 3097 2075 3097 
Q 1594 3097 1305 2825 
Q 1016 2553 972 2059 
L 3022 2063 
z
" transform="scale(0.015625)"/>
       <path id="DejaVuSans-74" d="M 1172 4494 
L 1172 3500 
L 2356 3500 
L 2356 3053 
L 1172 3053 
L 1172 1153 
Q 1172 725 1289 603 
Q 1406 481 1766 481 
L 2356 481 
L 2356 0 
L 1766 0 
Q 1100 0 847 248 
Q 594 497 594 1153 
L 594 3053 
L 172 3053 
L 172 3500 
L 594 3500 
L 594 4494 
L 1172 4494 
z
" transform="scale(0.015625)"/>
       <path id="DejaVuSans-75" d="M 544 1381 
L 544 3500 
L 1119 3500 
L 1119 1403 
Q 1119 906 1312 657 
Q 1506 409 1894 409 
Q 2359 409 2629 706 
Q 2900 1003 2900 1516 
L 2900 3500 
L 3475 3500 
L 3475 0 
L 2900 0 
L 2900 538 
Q 2691 219 2414 64 
Q 2138 -91 1772 -91 
Q 1169 -91 856 284 
Q 544 659 544 1381 
z
M 1991 3584 
L 1991 3584 
z
" transform="scale(0.015625)"/>
       <path id="DejaVuSans-20" transform="scale(0.015625)"/>
       <path id="DejaVuSans-Oblique-57" d="M 616 4666 
L 1228 4666 
L 1453 697 
L 3213 4666 
L 3916 4666 
L 4147 697 
L 5888 4666 
L 6528 4666 
L 4453 0 
L 3659 0 
L 3444 3891 
L 1697 0 
L 903 0 
L 616 4666 
z
" transform="scale(0.015625)"/>
      </defs>
      <use xlink:href="#DejaVuSans-45" transform="translate(0 0.015625)"/>
      <use xlink:href="#DejaVuSans-69" transform="translate(63.183594 0.015625)"/>
      <use xlink:href="#DejaVuSans-6e" transform="translate(90.966797 0.015625)"/>
      <use xlink:href="#DejaVuSans-67" transform="translate(154.345703 0.015625)"/>
      <use xlink:href="#DejaVuSans-61" transform="translate(217.822266 0.015625)"/>
      <use xlink:href="#DejaVuSans-6e" transform="translate(279.101562 0.015625)"/>
      <use xlink:href="#DejaVuSans-67" transform="translate(342.480469 0.015625)"/>
      <use xlink:href="#DejaVuSans-73" transform="translate(405.957031 0.015625)"/>
      <use xlink:href="#DejaVuSans-6c" transform="translate(458.056641 0.015625)"/>
      <use xlink:href="#DejaVuSans-65" transform="translate(485.839844 0.015625)"/>
      <use xlink:href="#DejaVuSans-69" transform="translate(547.363281 0.015625)"/>
      <use xlink:href="#DejaVuSans-73" transform="translate(575.146484 0.015625)"/>
      <use xlink:href="#DejaVuSans-74" transform="translate(627.246094 0.015625)"/>
      <use xlink:href="#DejaVuSans-75" transform="translate(666.455078 0.015625)"/>
      <use xlink:href="#DejaVuSans-6e" transform="translate(729.833984 0.015625)"/>
      <use xlink:href="#DejaVuSans-67" transform="translate(793.212891 0.015625)"/>
      <use xlink:href="#DejaVuSans-20" transform="translate(856.689453 0.015625)"/>
      <use xlink:href="#DejaVuSans-69" transform="translate(888.476562 0.015625)"/>
      <use xlink:href="#DejaVuSans-6e" transform="translate(916.259766 0.015625)"/>
      <use xlink:href="#DejaVuSans-20" transform="translate(979.638672 0.015625)"/>
      <use xlink:href="#DejaVuSans-Oblique-57" transform="translate(1011.425781 0.015625)"/>
     </g>
    </g>
   </g>
   <g id="matplotlib.axis_2">
    <g id="ytick_1">
     <g id="line2d_5">
      <defs>
       <path id="m633f8356a0" d="M 0 0 
L -3.5 0 
" style="stroke: #000000; stroke-width: 0.8"/>
      </defs>
      <g>
       <use xlink:href="#m633f8356a0" x="57.6" y="255.168" style="stroke: #000000; stroke-width: 0.8"/>
      </g>
     </g>
     <g id="text_6">
      <!-- 3.1 -->
      <g transform="translate(34.696875 258.967218) scale(0.1 -0.1)">
       <defs>
        <path id="DejaVuSans-2e" d="M 684 794 
L 1344 794 
L 1344 0 
L 684 0 
L 684 794 
z
" transform="scale(0.015625)"/>
       </defs>
       <use xlink:href="#DejaVuSans-33"/>
       <use xlink:href="#DejaVuSans-2e" x="63.623047"/>
       <use xlink:href="#DejaVuSans-31" x="95.410156"/>
      </g>
     </g>
    </g>
    <g id="ytick_2">
     <g id="line2d_6">
      <g>
       <use xlink:href="#m633f8356a0" x="57.6" y="199.168001" style="stroke: #000000; stroke-width: 0.8"/>
      </g>
     </g>
     <g id="text_7">
      <!-- 3.2 -->
      <g transform="translate(34.696875 202.96722) scale(0.1 -0.1)">
       <use xlink:href="#DejaVuSans-33"/>
       <use xlink:href="#DejaVuSans-2e" x="63.623047"/>
       <use xlink:href="#DejaVuSans-32" x="95.410156"/>
      </g>
     </g>
    </g>
    <g id="ytick_3">
     <g id="line2d_7">
      <g>
       <use xlink:href="#m633f8356a0" x="57.6" y="143.168002" style="stroke: #000000; stroke-width: 0.8"/>
      </g>
     </g>
     <g id="text_8">
      <!-- 3.3 -->
      <g transform="translate(34.696875 146.967221) scale(0.1 -0.1)">
       <use xlink:href="#DejaVuSans-33"/>
       <use xlink:href="#DejaVuSans-2e" x="63.623047"/>
       <use xlink:href="#DejaVuSans-33" x="95.410156"/>
      </g>
     </g>
    </g>
    <g id="ytick_4">
     <g id="line2d_8">
      <g>
       <use xlink:href="#m633f8356a0" x="57.6" y="87.168003" style="stroke: #000000; stroke-width: 0.8"/>
      </g>
     </g>
     <g id="text_9">
      <!-- 3.4 -->
      <g transform="translate(34.696875 90.967222) scale(0.1 -0.1)">
       <defs>
        <path id="DejaVuSans-34" d="M 2419 4116 
L 825 1625 
L 2419 1625 
L 2419 4116 
z
M 2253 4666 
L 3047 4666 
L 3047 1625 
L 3713 1625 
L 3713 1100 
L 3047 1100 
L 3047 0 
L 2419 0 
L 2419 1100 
L 313 1100 
L 313 1709 
L 2253 4666 
z
" transform="scale(0.015625)"/>
       </defs>
       <use xlink:href="#DejaVuSans-33"/>
       <use xlink:href="#DejaVuSans-2e" x="63.623047"/>
       <use xlink:href="#DejaVuSans-34" x="95.410156"/>
      </g>
     </g>
    </g>
    <g id="text_10">
     <!-- Ausgangsleistung in $mW$ -->
     <g transform="translate(28.596875 236.428) rotate(-90) scale(0.1 -0.1)">
      <defs>
       <path id="DejaVuSans-41" d="M 2188 4044 
L 1331 1722 
L 3047 1722 
L 2188 4044 
z
M 1831 4666 
L 2547 4666 
L 4325 0 
L 3669 0 
L 3244 1197 
L 1141 1197 
L 716 0 
L 50 0 
L 1831 4666 
z
" transform="scale(0.015625)"/>
       <path id="DejaVuSans-Oblique-6d" d="M 5747 2113 
L 5338 0 
L 4763 0 
L 5166 2094 
Q 5191 2228 5203 2325 
Q 5216 2422 5216 2491 
Q 5216 2772 5059 2928 
Q 4903 3084 4622 3084 
Q 4203 3084 3875 2770 
Q 3547 2456 3450 1953 
L 3066 0 
L 2491 0 
L 2900 2094 
Q 2925 2209 2937 2307 
Q 2950 2406 2950 2484 
Q 2950 2769 2794 2926 
Q 2638 3084 2363 3084 
Q 1938 3084 1609 2770 
Q 1281 2456 1184 1953 
L 800 0 
L 225 0 
L 909 3500 
L 1484 3500 
L 1375 2956 
Q 1609 3263 1923 3423 
Q 2238 3584 2597 3584 
Q 2978 3584 3223 3384 
Q 3469 3184 3519 2828 
Q 3781 3197 4126 3390 
Q 4472 3584 4856 3584 
Q 5306 3584 5551 3325 
Q 5797 3066 5797 2591 
Q 5797 2488 5784 2364 
Q 5772 2241 5747 2113 
z
" transform="scale(0.015625)"/>
      </defs>
      <use xlink:href="#DejaVuSans-41" transform="translate(0 0.015625)"/>
      <use xlink:href="#DejaVuSans-75" transform="translate(68.408203 0.015625)"/>
      <use xlink:href="#DejaVuSans-73" transform="translate(131.787109 0.015625)"/>
      <use xlink:href="#DejaVuSans-67" transform="translate(183.886719 0.015625)"/>
      <use xlink:href="#DejaVuSans-61" transform="translate(247.363281 0.015625)"/>
      <use xlink:href="#DejaVuSans-6e" transform="translate(308.642578 0.015625)"/>
      <use xlink:href="#DejaVuSans-67" transform="translate(372.021484 0.015625)"/>
      <use xlink:href="#DejaVuSans-73" transform="translate(435.498047 0.015625)"/>
      <use xlink:href="#DejaVuSans-6c" transform="translate(487.597656 0.015625)"/>
      <use xlink:href="#DejaVuSans-65" transform="translate(515.380859 0.015625)"/>
      <use xlink:href="#DejaVuSans-69" transform="translate(576.904297 0.015625)"/>
      <use xlink:href="#DejaVuSans-73" transform="translate(604.6875 0.015625)"/>
      <use xlink:href="#DejaVuSans-74" transform="translate(656.787109 0.015625)"/>
      <use xlink:href="#DejaVuSans-75" transform="translate(695.996094 0.015625)"/>
      <use xlink:href="#DejaVuSans-6e" transform="translate(759.375 0.015625)"/>
      <use xlink:href="#DejaVuSans-67" transform="translate(822.753906 0.015625)"/>
      <use xlink:href="#DejaVuSans-20" transform="translate(886.230469 0.015625)"/>
      <use xlink:href="#DejaVuSans-69" transform="translate(918.017578 0.015625)"/>
      <use xlink:href="#DejaVuSans-6e" transform="translate(945.800781 0.015625)"/>
      <use xlink:href="#DejaVuSans-20" transform="translate(1009.179688 0.015625)"/>
      <use xlink:href="#DejaVuSans-Oblique-6d" transform="translate(1040.966797 0.015625)"/>
      <use xlink:href="#DejaVuSans-Oblique-57" transform="translate(1138.378906 0.015625)"/>
     </g>
    </g>
   </g>
   <g id="LineCollection_1">
    <path d="M 73.832727 283.167999 
L 155.602327 283.167999 
" clip-path="url(#p333d4698ef)" style="fill: none; stroke: #1f77b4; stroke-width: 1.5"/>
    <path d="M 88.554875 255.168 
L 171.786183 255.168 
" clip-path="url(#p333d4698ef)" style="fill: none; stroke: #1f77b4; stroke-width: 1.5"/>
    <path d="M 103.275538 238.368 
L 187.971523 238.368 
" clip-path="url(#p333d4698ef)" style="fill: none; stroke: #1f77b4; stroke-width: 1.5"/>
    <path d="M 117.994794 221.568 
L 204.158271 221.568 
" clip-path="url(#p333d4698ef)" style="fill: none; stroke: #1f77b4; stroke-width: 1.5"/>
    <path d="M 132.712712 210.368001 
L 220.346356 210.368001 
" clip-path="url(#p333d4698ef)" style="fill: none; stroke: #1f77b4; stroke-width: 1.5"/>
    <path d="M 147.429358 204.768001 
L 236.535713 204.768001 
" clip-path="url(#p333d4698ef)" style="fill: none; stroke: #1f77b4; stroke-width: 1.5"/>
    <path d="M 162.144796 182.368001 
L 252.72628 182.368001 
" clip-path="url(#p333d4698ef)" style="fill: none; stroke: #1f77b4; stroke-width: 1.5"/>
    <path d="M 176.859082 176.768001 
L 268.917997 176.768001 
" clip-path="url(#p333d4698ef)" style="fill: none; stroke: #1f77b4; stroke-width: 1.5"/>
    <path d="M 191.572271 176.768001 
L 285.110811 176.768001 
" clip-path="url(#p333d4698ef)" style="fill: none; stroke: #1f77b4; stroke-width: 1.5"/>
    <path d="M 206.284415 171.168001 
L 301.304671 171.168001 
" clip-path="url(#p333d4698ef)" style="fill: none; stroke: #1f77b4; stroke-width: 1.5"/>
    <path d="M 220.995562 165.568002 
L 317.499527 165.568002 
" clip-path="url(#p333d4698ef)" style="fill: none; stroke: #1f77b4; stroke-width: 1.5"/>
    <path d="M 235.705757 159.968002 
L 333.695336 159.968002 
" clip-path="url(#p333d4698ef)" style="fill: none; stroke: #1f77b4; stroke-width: 1.5"/>
    <path d="M 250.415043 159.968002 
L 349.892054 159.968002 
" clip-path="url(#p333d4698ef)" style="fill: none; stroke: #1f77b4; stroke-width: 1.5"/>
    <path d="M 265.123459 159.968002 
L 366.089641 159.968002 
" clip-path="url(#p333d4698ef)" style="fill: none; stroke: #1f77b4; stroke-width: 1.5"/>
    <path d="M 279.831045 165.568002 
L 382.288059 165.568002 
" clip-path="url(#p333d4698ef)" style="fill: none; stroke: #1f77b4; stroke-width: 1.5"/>
    <path d="M 294.537835 165.568002 
L 398.487273 165.568002 
" clip-path="url(#p333d4698ef)" style="fill: none; stroke: #1f77b4; stroke-width: 1.5"/>
   </g>
   <g id="LineCollection_2">
    <path d="M 114.717527 288.767999 
L 114.717527 277.567999 
" clip-path="url(#p333d4698ef)" style="fill: none; stroke: #1f77b4; stroke-width: 1.5"/>
    <path d="M 130.170529 260.768 
L 130.170529 249.568 
" clip-path="url(#p333d4698ef)" style="fill: none; stroke: #1f77b4; stroke-width: 1.5"/>
    <path d="M 145.623531 243.968 
L 145.623531 232.768 
" clip-path="url(#p333d4698ef)" style="fill: none; stroke: #1f77b4; stroke-width: 1.5"/>
    <path d="M 161.076532 227.168 
L 161.076532 215.968001 
" clip-path="url(#p333d4698ef)" style="fill: none; stroke: #1f77b4; stroke-width: 1.5"/>
    <path d="M 176.529534 215.968001 
L 176.529534 204.768001 
" clip-path="url(#p333d4698ef)" style="fill: none; stroke: #1f77b4; stroke-width: 1.5"/>
    <path d="M 191.982536 210.368001 
L 191.982536 199.168001 
" clip-path="url(#p333d4698ef)" style="fill: none; stroke: #1f77b4; stroke-width: 1.5"/>
    <path d="M 207.435538 187.968001 
L 207.435538 176.768001 
" clip-path="url(#p333d4698ef)" style="fill: none; stroke: #1f77b4; stroke-width: 1.5"/>
    <path d="M 222.888539 182.368001 
L 222.888539 171.168001 
" clip-path="url(#p333d4698ef)" style="fill: none; stroke: #1f77b4; stroke-width: 1.5"/>
    <path d="M 238.341541 182.368001 
L 238.341541 171.168001 
" clip-path="url(#p333d4698ef)" style="fill: none; stroke: #1f77b4; stroke-width: 1.5"/>
    <path d="M 253.794543 176.768001 
L 253.794543 165.568002 
" clip-path="url(#p333d4698ef)" style="fill: none; stroke: #1f77b4; stroke-width: 1.5"/>
    <path d="M 269.247545 171.168001 
L 269.247545 159.968002 
" clip-path="url(#p333d4698ef)" style="fill: none; stroke: #1f77b4; stroke-width: 1.5"/>
    <path d="M 284.700547 165.568002 
L 284.700547 154.368002 
" clip-path="url(#p333d4698ef)" style="fill: none; stroke: #1f77b4; stroke-width: 1.5"/>
    <path d="M 300.153548 165.568002 
L 300.153548 154.368002 
" clip-path="url(#p333d4698ef)" style="fill: none; stroke: #1f77b4; stroke-width: 1.5"/>
    <path d="M 315.60655 165.568002 
L 315.60655 154.368002 
" clip-path="url(#p333d4698ef)" style="fill: none; stroke: #1f77b4; stroke-width: 1.5"/>
    <path d="M 331.059552 171.168001 
L 331.059552 159.968002 
" clip-path="url(#p333d4698ef)" style="fill: none; stroke: #1f77b4; stroke-width: 1.5"/>
    <path d="M 346.512554 171.168001 
L 346.512554 159.968002 
" clip-path="url(#p333d4698ef)" style="fill: none; stroke: #1f77b4; stroke-width: 1.5"/>
   </g>
   <g id="line2d_9">
    <defs>
     <path id="m6e98135f9f" d="M 0 5 
L 0 -5 
" style="stroke: #1f77b4"/>
    </defs>
    <g clip-path="url(#p333d4698ef)">
     <use xlink:href="#m6e98135f9f" x="73.832727" y="283.167999" style="fill: #1f77b4; stroke: #1f77b4"/>
     <use xlink:href="#m6e98135f9f" x="88.554875" y="255.168" style="fill: #1f77b4; stroke: #1f77b4"/>
     <use xlink:href="#m6e98135f9f" x="103.275538" y="238.368" style="fill: #1f77b4; stroke: #1f77b4"/>
     <use xlink:href="#m6e98135f9f" x="117.994794" y="221.568" style="fill: #1f77b4; stroke: #1f77b4"/>
     <use xlink:href="#m6e98135f9f" x="132.712712" y="210.368001" style="fill: #1f77b4; stroke: #1f77b4"/>
     <use xlink:href="#m6e98135f9f" x="147.429358" y="204.768001" style="fill: #1f77b4; stroke: #1f77b4"/>
     <use xlink:href="#m6e98135f9f" x="162.144796" y="182.368001" style="fill: #1f77b4; stroke: #1f77b4"/>
     <use xlink:href="#m6e98135f9f" x="176.859082" y="176.768001" style="fill: #1f77b4; stroke: #1f77b4"/>
     <use xlink:href="#m6e98135f9f" x="191.572271" y="176.768001" style="fill: #1f77b4; stroke: #1f77b4"/>
     <use xlink:href="#m6e98135f9f" x="206.284415" y="171.168001" style="fill: #1f77b4; stroke: #1f77b4"/>
     <use xlink:href="#m6e98135f9f" x="220.995562" y="165.568002" style="fill: #1f77b4; stroke: #1f77b4"/>
     <use xlink:href="#m6e98135f9f" x="235.705757" y="159.968002" style="fill: #1f77b4; stroke: #1f77b4"/>
     <use xlink:href="#m6e98135f9f" x="250.415043" y="159.968002" style="fill: #1f77b4; stroke: #1f77b4"/>
     <use xlink:href="#m6e98135f9f" x="265.123459" y="159.968002" style="fill: #1f77b4; stroke: #1f77b4"/>
     <use xlink:href="#m6e98135f9f" x="279.831045" y="165.568002" style="fill: #1f77b4; stroke: #1f77b4"/>
     <use xlink:href="#m6e98135f9f" x="294.537835" y="165.568002" style="fill: #1f77b4; stroke: #1f77b4"/>
    </g>
   </g>
   <g id="line2d_10">
    <g clip-path="url(#p333d4698ef)">
     <use xlink:href="#m6e98135f9f" x="155.602327" y="283.167999" style="fill: #1f77b4; stroke: #1f77b4"/>
     <use xlink:href="#m6e98135f9f" x="171.786183" y="255.168" style="fill: #1f77b4; stroke: #1f77b4"/>
     <use xlink:href="#m6e98135f9f" x="187.971523" y="238.368" style="fill: #1f77b4; stroke: #1f77b4"/>
     <use xlink:href="#m6e98135f9f" x="204.158271" y="221.568" style="fill: #1f77b4; stroke: #1f77b4"/>
     <use xlink:href="#m6e98135f9f" x="220.346356" y="210.368001" style="fill: #1f77b4; stroke: #1f77b4"/>
     <use xlink:href="#m6e98135f9f" x="236.535713" y="204.768001" style="fill: #1f77b4; stroke: #1f77b4"/>
     <use xlink:href="#m6e98135f9f" x="252.72628" y="182.368001" style="fill: #1f77b4; stroke: #1f77b4"/>
     <use xlink:href="#m6e98135f9f" x="268.917997" y="176.768001" style="fill: #1f77b4; stroke: #1f77b4"/>
     <use xlink:href="#m6e98135f9f" x="285.110811" y="176.768001" style="fill: #1f77b4; stroke: #1f77b4"/>
     <use xlink:href="#m6e98135f9f" x="301.304671" y="171.168001" style="fill: #1f77b4; stroke: #1f77b4"/>
     <use xlink:href="#m6e98135f9f" x="317.499527" y="165.568002" style="fill: #1f77b4; stroke: #1f77b4"/>
     <use xlink:href="#m6e98135f9f" x="333.695336" y="159.968002" style="fill: #1f77b4; stroke: #1f77b4"/>
     <use xlink:href="#m6e98135f9f" x="349.892054" y="159.968002" style="fill: #1f77b4; stroke: #1f77b4"/>
     <use xlink:href="#m6e98135f9f" x="366.089641" y="159.968002" style="fill: #1f77b4; stroke: #1f77b4"/>
     <use xlink:href="#m6e98135f9f" x="382.288059" y="165.568002" style="fill: #1f77b4; stroke: #1f77b4"/>
     <use xlink:href="#m6e98135f9f" x="398.487273" y="165.568002" style="fill: #1f77b4; stroke: #1f77b4"/>
    </g>
   </g>
   <g id="line2d_11">
    <defs>
     <path id="m82044b593c" d="M 5 0 
L -5 -0 
" style="stroke: #1f77b4"/>
    </defs>
    <g clip-path="url(#p333d4698ef)">
     <use xlink:href="#m82044b593c" x="114.717527" y="288.767999" style="fill: #1f77b4; stroke: #1f77b4"/>
     <use xlink:href="#m82044b593c" x="130.170529" y="260.768" style="fill: #1f77b4; stroke: #1f77b4"/>
     <use xlink:href="#m82044b593c" x="145.623531" y="243.968" style="fill: #1f77b4; stroke: #1f77b4"/>
     <use xlink:href="#m82044b593c" x="161.076532" y="227.168" style="fill: #1f77b4; stroke: #1f77b4"/>
     <use xlink:href="#m82044b593c" x="176.529534" y="215.968001" style="fill: #1f77b4; stroke: #1f77b4"/>
     <use xlink:href="#m82044b593c" x="191.982536" y="210.368001" style="fill: #1f77b4; stroke: #1f77b4"/>
     <use xlink:href="#m82044b593c" x="207.435538" y="187.968001" style="fill: #1f77b4; stroke: #1f77b4"/>
     <use xlink:href="#m82044b593c" x="222.888539" y="182.368001" style="fill: #1f77b4; stroke: #1f77b4"/>
     <use xlink:href="#m82044b593c" x="238.341541" y="182.368001" style="fill: #1f77b4; stroke: #1f77b4"/>
     <use xlink:href="#m82044b593c" x="253.794543" y="176.768001" style="fill: #1f77b4; stroke: #1f77b4"/>
     <use xlink:href="#m82044b593c" x="269.247545" y="171.168001" style="fill: #1f77b4; stroke: #1f77b4"/>
     <use xlink:href="#m82044b593c" x="284.700547" y="165.568002" style="fill: #1f77b4; stroke: #1f77b4"/>
     <use xlink:href="#m82044b593c" x="300.153548" y="165.568002" style="fill: #1f77b4; stroke: #1f77b4"/>
     <use xlink:href="#m82044b593c" x="315.60655" y="165.568002" style="fill: #1f77b4; stroke: #1f77b4"/>
     <use xlink:href="#m82044b593c" x="331.059552" y="171.168001" style="fill: #1f77b4; stroke: #1f77b4"/>
     <use xlink:href="#m82044b593c" x="346.512554" y="171.168001" style="fill: #1f77b4; stroke: #1f77b4"/>
    </g>
   </g>
   <g id="line2d_12">
    <g clip-path="url(#p333d4698ef)">
     <use xlink:href="#m82044b593c" x="114.717527" y="277.567999" style="fill: #1f77b4; stroke: #1f77b4"/>
     <use xlink:href="#m82044b593c" x="130.170529" y="249.568" style="fill: #1f77b4; stroke: #1f77b4"/>
     <use xlink:href="#m82044b593c" x="145.623531" y="232.768" style="fill: #1f77b4; stroke: #1f77b4"/>
     <use xlink:href="#m82044b593c" x="161.076532" y="215.968001" style="fill: #1f77b4; stroke: #1f77b4"/>
     <use xlink:href="#m82044b593c" x="176.529534" y="204.768001" style="fill: #1f77b4; stroke: #1f77b4"/>
     <use xlink:href="#m82044b593c" x="191.982536" y="199.168001" style="fill: #1f77b4; stroke: #1f77b4"/>
     <use xlink:href="#m82044b593c" x="207.435538" y="176.768001" style="fill: #1f77b4; stroke: #1f77b4"/>
     <use xlink:href="#m82044b593c" x="222.888539" y="171.168001" style="fill: #1f77b4; stroke: #1f77b4"/>
     <use xlink:href="#m82044b593c" x="238.341541" y="171.168001" style="fill: #1f77b4; stroke: #1f77b4"/>
     <use xlink:href="#m82044b593c" x="253.794543" y="165.568002" style="fill: #1f77b4; stroke: #1f77b4"/>
     <use xlink:href="#m82044b593c" x="269.247545" y="159.968002" style="fill: #1f77b4; stroke: #1f77b4"/>
     <use xlink:href="#m82044b593c" x="284.700547" y="154.368002" style="fill: #1f77b4; stroke: #1f77b4"/>
     <use xlink:href="#m82044b593c" x="300.153548" y="154.368002" style="fill: #1f77b4; stroke: #1f77b4"/>
     <use xlink:href="#m82044b593c" x="315.60655" y="154.368002" style="fill: #1f77b4; stroke: #1f77b4"/>
     <use xlink:href="#m82044b593c" x="331.059552" y="159.968002" style="fill: #1f77b4; stroke: #1f77b4"/>
     <use xlink:href="#m82044b593c" x="346.512554" y="159.968002" style="fill: #1f77b4; stroke: #1f77b4"/>
    </g>
   </g>
   <g id="line2d_13">
    <path d="M 99.264525 295.488 
L 307.880049 53.568 
L 307.880049 53.568 
" clip-path="url(#p333d4698ef)" style="fill: none; stroke: #000000; stroke-width: 1.5; stroke-linecap: square"/>
   </g>
   <g id="line2d_14">
    <defs>
     <path id="mb6db27b366" d="M 0 3 
C 0.795609 3 1.55874 2.683901 2.12132 2.12132 
C 2.683901 1.55874 3 0.795609 3 0 
C 3 -0.795609 2.683901 -1.55874 2.12132 -2.12132 
C 1.55874 -2.683901 0.795609 -3 0 -3 
C -0.795609 -3 -1.55874 -2.683901 -2.12132 -2.12132 
C -2.683901 -1.55874 -3 -0.795609 -3 0 
C -3 0.795609 -2.683901 1.55874 -2.12132 2.12132 
C -1.55874 2.683901 -0.795609 3 0 3 
z
" style="stroke: #1f77b4"/>
    </defs>
    <g clip-path="url(#p333d4698ef)">
     <use xlink:href="#mb6db27b366" x="114.717527" y="283.167999" style="fill: #1f77b4; stroke: #1f77b4"/>
     <use xlink:href="#mb6db27b366" x="130.170529" y="255.168" style="fill: #1f77b4; stroke: #1f77b4"/>
     <use xlink:href="#mb6db27b366" x="145.623531" y="238.368" style="fill: #1f77b4; stroke: #1f77b4"/>
     <use xlink:href="#mb6db27b366" x="161.076532" y="221.568" style="fill: #1f77b4; stroke: #1f77b4"/>
     <use xlink:href="#mb6db27b366" x="176.529534" y="210.368001" style="fill: #1f77b4; stroke: #1f77b4"/>
     <use xlink:href="#mb6db27b366" x="191.982536" y="204.768001" style="fill: #1f77b4; stroke: #1f77b4"/>
     <use xlink:href="#mb6db27b366" x="207.435538" y="182.368001" style="fill: #1f77b4; stroke: #1f77b4"/>
     <use xlink:href="#mb6db27b366" x="222.888539" y="176.768001" style="fill: #1f77b4; stroke: #1f77b4"/>
     <use xlink:href="#mb6db27b366" x="238.341541" y="176.768001" style="fill: #1f77b4; stroke: #1f77b4"/>
     <use xlink:href="#mb6db27b366" x="253.794543" y="171.168001" style="fill: #1f77b4; stroke: #1f77b4"/>
     <use xlink:href="#mb6db27b366" x="269.247545" y="165.568002" style="fill: #1f77b4; stroke: #1f77b4"/>
     <use xlink:href="#mb6db27b366" x="284.700547" y="159.968002" style="fill: #1f77b4; stroke: #1f77b4"/>
     <use xlink:href="#mb6db27b366" x="300.153548" y="159.968002" style="fill: #1f77b4; stroke: #1f77b4"/>
     <use xlink:href="#mb6db27b366" x="315.60655" y="159.968002" style="fill: #1f77b4; stroke: #1f77b4"/>
     <use xlink:href="#mb6db27b366" x="331.059552" y="165.568002" style="fill: #1f77b4; stroke: #1f77b4"/>
     <use xlink:href="#mb6db27b366" x="346.512554" y="165.568002" style="fill: #1f77b4; stroke: #1f77b4"/>
    </g>
   </g>
   <g id="patch_3">
    <path d="M 57.6 307.584 
L 57.6 41.472 
" style="fill: none; stroke: #000000; stroke-width: 0.8; stroke-linejoin: miter; stroke-linecap: square"/>
   </g>
   <g id="patch_4">
    <path d="M 414.72 307.584 
L 414.72 41.472 
" style="fill: none; stroke: #000000; stroke-width: 0.8; stroke-linejoin: miter; stroke-linecap: square"/>
   </g>
   <g id="patch_5">
    <path d="M 57.6 307.584 
L 414.72 307.584 
" style="fill: none; stroke: #000000; stroke-width: 0.8; stroke-linejoin: miter; stroke-linecap: square"/>
   </g>
   <g id="patch_6">
    <path d="M 57.6 41.472 
L 414.72 41.472 
" style="fill: none; stroke: #000000; stroke-width: 0.8; stroke-linejoin: miter; stroke-linecap: square"/>
   </g>
  </g>
 </g>
 <defs>
  <clipPath id="p333d4698ef">
   <rect x="57.6" y="41.472" width="357.12" height="266.112"/>
  </clipPath>
 </defs>
</svg>
