<?xml version="1.0" encoding="utf-8" standalone="no"?>
<!DOCTYPE svg PUBLIC "-//W3C//DTD SVG 1.1//EN"
  "http://www.w3.org/Graphics/SVG/1.1/DTD/svg11.dtd">
<svg xmlns:xlink="http://www.w3.org/1999/xlink" width="460.8pt" height="345.6pt" viewBox="0 0 460.8 345.6" xmlns="http://www.w3.org/2000/svg" version="1.1">
 <metadata>
  <rdf:RDF xmlns:dc="http://purl.org/dc/elements/1.1/" xmlns:cc="http://creativecommons.org/ns#" xmlns:rdf="http://www.w3.org/1999/02/22-rdf-syntax-ns#">
   <cc:Work>
    <dc:type rdf:resource="http://purl.org/dc/dcmitype/StillImage"/>
    <dc:date>2022-12-13T15:10:02.780685</dc:date>
    <dc:format>image/svg+xml</dc:format>
    <dc:creator>
     <cc:Agent>
      <dc:title>Matplotlib v3.6.2, https://matplotlib.org/</dc:title>
     </cc:Agent>
    </dc:creator>
   </cc:Work>
  </rdf:RDF>
 </metadata>
 <defs>
  <style type="text/css">*{stroke-linejoin: round; stroke-linecap: butt}</style>
 </defs>
 <g id="figure_1">
  <g id="patch_1">
   <path d="M 0 345.6 
L 460.8 345.6 
L 460.8 0 
L 0 0 
z
" style="fill: #ffffff"/>
  </g>
  <g id="axes_1">
   <g id="patch_2">
    <path d="M 57.6 307.584 
L 414.72 307.584 
L 414.72 41.472 
L 57.6 41.472 
z
" style="fill: #ffffff"/>
   </g>
   <g id="matplotlib.axis_1">
    <g id="xtick_1">
     <g id="line2d_1">
      <defs>
       <path id="m21c8103129" d="M 0 0 
L 0 3.5 
" style="stroke: #000000; stroke-width: 0.8"/>
      </defs>
      <g>
       <use xlink:href="#m21c8103129" x="114.717527" y="307.584" style="stroke: #000000; stroke-width: 0.8"/>
      </g>
     </g>
     <g id="text_1">
      <!-- 10 -->
      <g transform="translate(108.355027 322.182437) scale(0.1 -0.1)">
       <defs>
        <path id="DejaVuSans-31" d="M 794 531 
L 1825 531 
L 1825 4091 
L 703 3866 
L 703 4441 
L 1819 4666 
L 2450 4666 
L 2450 531 
L 3481 531 
L 3481 0 
L 794 0 
L 794 531 
z
" transform="scale(0.015625)"/>
        <path id="DejaVuSans-30" d="M 2034 4250 
Q 1547 4250 1301 3770 
Q 1056 3291 1056 2328 
Q 1056 1369 1301 889 
Q 1547 409 2034 409 
Q 2525 409 2770 889 
Q 3016 1369 3016 2328 
Q 3016 3291 2770 3770 
Q 2525 4250 2034 4250 
z
M 2034 4750 
Q 2819 4750 3233 4129 
Q 3647 3509 3647 2328 
Q 3647 1150 3233 529 
Q 2819 -91 2034 -91 
Q 1250 -91 836 529 
Q 422 1150 422 2328 
Q 422 3509 836 4129 
Q 1250 4750 2034 4750 
z
" transform="scale(0.015625)"/>
       </defs>
       <use xlink:href="#DejaVuSans-31"/>
       <use xlink:href="#DejaVuSans-30" x="63.623047"/>
      </g>
     </g>
    </g>
    <g id="xtick_2">
     <g id="line2d_2">
      <g>
       <use xlink:href="#m21c8103129" x="191.982536" y="307.584" style="stroke: #000000; stroke-width: 0.8"/>
      </g>
     </g>
     <g id="text_2">
      <!-- 11 -->
      <g transform="translate(185.620036 322.182437) scale(0.1 -0.1)">
       <use xlink:href="#DejaVuSans-31"/>
       <use xlink:href="#DejaVuSans-31" x="63.623047"/>
      </g>
     </g>
    </g>
    <g id="xtick_3">
     <g id="line2d_3">
      <g>
       <use xlink:href="#m21c8103129" x="269.247545" y="307.584" style="stroke: #000000; stroke-width: 0.8"/>
      </g>
     </g>
     <g id="text_3">
      <!-- 12 -->
      <g transform="translate(262.885045 322.182437) scale(0.1 -0.1)">
       <defs>
        <path id="DejaVuSans-32" d="M 1228 531 
L 3431 531 
L 3431 0 
L 469 0 
L 469 531 
Q 828 903 1448 1529 
Q 2069 2156 2228 2338 
Q 2531 2678 2651 2914 
Q 2772 3150 2772 3378 
Q 2772 3750 2511 3984 
Q 2250 4219 1831 4219 
Q 1534 4219 1204 4116 
Q 875 4013 500 3803 
L 500 4441 
Q 881 4594 1212 4672 
Q 1544 4750 1819 4750 
Q 2544 4750 2975 4387 
Q 3406 4025 3406 3419 
Q 3406 3131 3298 2873 
Q 3191 2616 2906 2266 
Q 2828 2175 2409 1742 
Q 1991 1309 1228 531 
z
" transform="scale(0.015625)"/>
       </defs>
       <use xlink:href="#DejaVuSans-31"/>
       <use xlink:href="#DejaVuSans-32" x="63.623047"/>
      </g>
     </g>
    </g>
    <g id="xtick_4">
     <g id="line2d_4">
      <g>
       <use xlink:href="#m21c8103129" x="346.512554" y="307.584" style="stroke: #000000; stroke-width: 0.8"/>
      </g>
     </g>
     <g id="text_4">
      <!-- 13 -->
      <g transform="translate(340.150054 322.182437) scale(0.1 -0.1)">
       <defs>
        <path id="DejaVuSans-33" d="M 2597 2516 
Q 3050 2419 3304 2112 
Q 3559 1806 3559 1356 
Q 3559 666 3084 287 
Q 2609 -91 1734 -91 
Q 1441 -91 1130 -33 
Q 819 25 488 141 
L 488 750 
Q 750 597 1062 519 
Q 1375 441 1716 441 
Q 2309 441 2620 675 
Q 2931 909 2931 1356 
Q 2931 1769 2642 2001 
Q 2353 2234 1838 2234 
L 1294 2234 
L 1294 2753 
L 1863 2753 
Q 2328 2753 2575 2939 
Q 2822 3125 2822 3475 
Q 2822 3834 2567 4026 
Q 2313 4219 1838 4219 
Q 1578 4219 1281 4162 
Q 984 4106 628 3988 
L 628 4550 
Q 988 4650 1302 4700 
Q 1616 4750 1894 4750 
Q 2613 4750 3031 4423 
Q 3450 4097 3450 3541 
Q 3450 3153 3228 2886 
Q 3006 2619 2597 2516 
z
" transform="scale(0.015625)"/>
       </defs>
       <use xlink:href="#DejaVuSans-31"/>
       <use xlink:href="#DejaVuSans-33" x="63.623047"/>
      </g>
     </g>
    </g>
    <g id="text_5">
     <!-- Eingangsleistung in $W$ -->
     <g transform="translate(180.61 335.862125) scale(0.1 -0.1)">
      <defs>
       <path id="DejaVuSans-45" d="M 628 4666 
L 3578 4666 
L 3578 4134 
L 1259 4134 
L 1259 2753 
L 3481 2753 
L 3481 2222 
L 1259 2222 
L 1259 531 
L 3634 531 
L 3634 0 
L 628 0 
L 628 4666 
z
" transform="scale(0.015625)"/>
       <path id="DejaVuSans-69" d="M 603 3500 
L 1178 3500 
L 1178 0 
L 603 0 
L 603 3500 
z
M 603 4863 
L 1178 4863 
L 1178 4134 
L 603 4134 
L 603 4863 
z
" transform="scale(0.015625)"/>
       <path id="DejaVuSans-6e" d="M 3513 2113 
L 3513 0 
L 2938 0 
L 2938 2094 
Q 2938 2591 2744 2837 
Q 2550 3084 2163 3084 
Q 1697 3084 1428 2787 
Q 1159 2491 1159 1978 
L 1159 0 
L 581 0 
L 581 3500 
L 1159 3500 
L 1159 2956 
Q 1366 3272 1645 3428 
Q 1925 3584 2291 3584 
Q 2894 3584 3203 3211 
Q 3513 2838 3513 2113 
z
" transform="scale(0.015625)"/>
       <path id="DejaVuSans-67" d="M 2906 1791 
Q 2906 2416 2648 2759 
Q 2391 3103 1925 3103 
Q 1463 3103 1205 2759 
Q 947 2416 947 1791 
Q 947 1169 1205 825 
Q 1463 481 1925 481 
Q 2391 481 2648 825 
Q 2906 1169 2906 1791 
z
M 3481 434 
Q 3481 -459 3084 -895 
Q 2688 -1331 1869 -1331 
Q 1566 -1331 1297 -1286 
Q 1028 -1241 775 -1147 
L 775 -588 
Q 1028 -725 1275 -790 
Q 1522 -856 1778 -856 
Q 2344 -856 2625 -561 
Q 2906 -266 2906 331 
L 2906 616 
Q 2728 306 2450 153 
Q 2172 0 1784 0 
Q 1141 0 747 490 
Q 353 981 353 1791 
Q 353 2603 747 3093 
Q 1141 3584 1784 3584 
Q 2172 3584 2450 3431 
Q 2728 3278 2906 2969 
L 2906 3500 
L 3481 3500 
L 3481 434 
z
" transform="scale(0.015625)"/>
       <path id="DejaVuSans-61" d="M 2194 1759 
Q 1497 1759 1228 1600 
Q 959 1441 959 1056 
Q 959 750 1161 570 
Q 1363 391 1709 391 
Q 2188 391 2477 730 
Q 2766 1069 2766 1631 
L 2766 1759 
L 2194 1759 
z
M 3341 1997 
L 3341 0 
L 2766 0 
L 2766 531 
Q 2569 213 2275 61 
Q 1981 -91 1556 -91 
Q 1019 -91 701 211 
Q 384 513 384 1019 
Q 384 1609 779 1909 
Q 1175 2209 1959 2209 
L 2766 2209 
L 2766 2266 
Q 2766 2663 2505 2880 
Q 2244 3097 1772 3097 
Q 1472 3097 1187 3025 
Q 903 2953 641 2809 
L 641 3341 
Q 956 3463 1253 3523 
Q 1550 3584 1831 3584 
Q 2591 3584 2966 3190 
Q 3341 2797 3341 1997 
z
" transform="scale(0.015625)"/>
       <path id="DejaVuSans-73" d="M 2834 3397 
L 2834 2853 
Q 2591 2978 2328 3040 
Q 2066 3103 1784 3103 
Q 1356 3103 1142 2972 
Q 928 2841 928 2578 
Q 928 2378 1081 2264 
Q 1234 2150 1697 2047 
L 1894 2003 
Q 2506 1872 2764 1633 
Q 3022 1394 3022 966 
Q 3022 478 2636 193 
Q 2250 -91 1575 -91 
Q 1294 -91 989 -36 
Q 684 19 347 128 
L 347 722 
Q 666 556 975 473 
Q 1284 391 1588 391 
Q 1994 391 2212 530 
Q 2431 669 2431 922 
Q 2431 1156 2273 1281 
Q 2116 1406 1581 1522 
L 1381 1569 
Q 847 1681 609 1914 
Q 372 2147 372 2553 
Q 372 3047 722 3315 
Q 1072 3584 1716 3584 
Q 2034 3584 2315 3537 
Q 2597 3491 2834 3397 
z
" transform="scale(0.015625)"/>
       <path id="DejaVuSans-6c" d="M 603 4863 
L 1178 4863 
L 1178 0 
L 603 0 
L 603 4863 
z
" transform="scale(0.015625)"/>
       <path id="DejaVuSans-65" d="M 3597 1894 
L 3597 1613 
L 953 1613 
Q 991 1019 1311 708 
Q 1631 397 2203 397 
Q 2534 397 2845 478 
Q 3156 559 3463 722 
L 3463 178 
Q 3153 47 2828 -22 
Q 2503 -91 2169 -91 
Q 1331 -91 842 396 
Q 353 884 353 1716 
Q 353 2575 817 3079 
Q 1281 3584 2069 3584 
Q 2775 3584 3186 3129 
Q 3597 2675 3597 1894 
z
M 3022 2063 
Q 3016 2534 2758 2815 
Q 2500 3097 2075 3097 
Q 1594 3097 1305 2825 
Q 1016 2553 972 2059 
L 3022 2063 
z
" transform="scale(0.015625)"/>
       <path id="DejaVuSans-74" d="M 1172 4494 
L 1172 3500 
L 2356 3500 
L 2356 3053 
L 1172 3053 
L 1172 1153 
Q 1172 725 1289 603 
Q 1406 481 1766 481 
L 2356 481 
L 2356 0 
L 1766 0 
Q 1100 0 847 248 
Q 594 497 594 1153 
L 594 3053 
L 172 3053 
L 172 3500 
L 594 3500 
L 594 4494 
L 1172 4494 
z
" transform="scale(0.015625)"/>
       <path id="DejaVuSans-75" d="M 544 1381 
L 544 3500 
L 1119 3500 
L 1119 1403 
Q 1119 906 1312 657 
Q 1506 409 1894 409 
Q 2359 409 2629 706 
Q 2900 1003 2900 1516 
L 2900 3500 
L 3475 3500 
L 3475 0 
L 2900 0 
L 2900 538 
Q 2691 219 2414 64 
Q 2138 -91 1772 -91 
Q 1169 -91 856 284 
Q 544 659 544 1381 
z
M 1991 3584 
L 1991 3584 
z
" transform="scale(0.015625)"/>
       <path id="DejaVuSans-20" transform="scale(0.015625)"/>
       <path id="DejaVuSans-Oblique-57" d="M 616 4666 
L 1228 4666 
L 1453 697 
L 3213 4666 
L 3916 4666 
L 4147 697 
L 5888 4666 
L 6528 4666 
L 4453 0 
L 3659 0 
L 3444 3891 
L 1697 0 
L 903 0 
L 616 4666 
z
" transform="scale(0.015625)"/>
      </defs>
      <use xlink:href="#DejaVuSans-45" transform="translate(0 0.015625)"/>
      <use xlink:href="#DejaVuSans-69" transform="translate(63.183594 0.015625)"/>
      <use xlink:href="#DejaVuSans-6e" transform="translate(90.966797 0.015625)"/>
      <use xlink:href="#DejaVuSans-67" transform="translate(154.345703 0.015625)"/>
      <use xlink:href="#DejaVuSans-61" transform="translate(217.822266 0.015625)"/>
      <use xlink:href="#DejaVuSans-6e" transform="translate(279.101562 0.015625)"/>
      <use xlink:href="#DejaVuSans-67" transform="translate(342.480469 0.015625)"/>
      <use xlink:href="#DejaVuSans-73" transform="translate(405.957031 0.015625)"/>
      <use xlink:href="#DejaVuSans-6c" transform="translate(458.056641 0.015625)"/>
      <use xlink:href="#DejaVuSans-65" transform="translate(485.839844 0.015625)"/>
      <use xlink:href="#DejaVuSans-69" transform="translate(547.363281 0.015625)"/>
      <use xlink:href="#DejaVuSans-73" transform="translate(575.146484 0.015625)"/>
      <use xlink:href="#DejaVuSans-74" transform="translate(627.246094 0.015625)"/>
      <use xlink:href="#DejaVuSans-75" transform="translate(666.455078 0.015625)"/>
      <use xlink:href="#DejaVuSans-6e" transform="translate(729.833984 0.015625)"/>
      <use xlink:href="#DejaVuSans-67" transform="translate(793.212891 0.015625)"/>
      <use xlink:href="#DejaVuSans-20" transform="translate(856.689453 0.015625)"/>
      <use xlink:href="#DejaVuSans-69" transform="translate(888.476562 0.015625)"/>
      <use xlink:href="#DejaVuSans-6e" transform="translate(916.259766 0.015625)"/>
      <use xlink:href="#DejaVuSans-20" transform="translate(979.638672 0.015625)"/>
      <use xlink:href="#DejaVuSans-Oblique-57" transform="translate(1011.425781 0.015625)"/>
     </g>
    </g>
   </g>
   <g id="matplotlib.axis_2">
    <g id="ytick_1">
     <g id="line2d_5">
      <defs>
       <path id="mbfbce7e9b4" d="M 0 0 
L -3.5 0 
" style="stroke: #000000; stroke-width: 0.8"/>
      </defs>
      <g>
       <use xlink:href="#mbfbce7e9b4" x="57.6" y="264.918588" style="stroke: #000000; stroke-width: 0.8"/>
      </g>
     </g>
     <g id="text_6">
      <!-- 44 -->
      <g transform="translate(37.875 268.717807) scale(0.1 -0.1)">
       <defs>
        <path id="DejaVuSans-34" d="M 2419 4116 
L 825 1625 
L 2419 1625 
L 2419 4116 
z
M 2253 4666 
L 3047 4666 
L 3047 1625 
L 3713 1625 
L 3713 1100 
L 3047 1100 
L 3047 0 
L 2419 0 
L 2419 1100 
L 313 1100 
L 313 1709 
L 2253 4666 
z
" transform="scale(0.015625)"/>
       </defs>
       <use xlink:href="#DejaVuSans-34"/>
       <use xlink:href="#DejaVuSans-34" x="63.623047"/>
      </g>
     </g>
    </g>
    <g id="ytick_2">
     <g id="line2d_6">
      <g>
       <use xlink:href="#mbfbce7e9b4" x="57.6" y="212.212706" style="stroke: #000000; stroke-width: 0.8"/>
      </g>
     </g>
     <g id="text_7">
      <!-- 46 -->
      <g transform="translate(37.875 216.011925) scale(0.1 -0.1)">
       <defs>
        <path id="DejaVuSans-36" d="M 2113 2584 
Q 1688 2584 1439 2293 
Q 1191 2003 1191 1497 
Q 1191 994 1439 701 
Q 1688 409 2113 409 
Q 2538 409 2786 701 
Q 3034 994 3034 1497 
Q 3034 2003 2786 2293 
Q 2538 2584 2113 2584 
z
M 3366 4563 
L 3366 3988 
Q 3128 4100 2886 4159 
Q 2644 4219 2406 4219 
Q 1781 4219 1451 3797 
Q 1122 3375 1075 2522 
Q 1259 2794 1537 2939 
Q 1816 3084 2150 3084 
Q 2853 3084 3261 2657 
Q 3669 2231 3669 1497 
Q 3669 778 3244 343 
Q 2819 -91 2113 -91 
Q 1303 -91 875 529 
Q 447 1150 447 2328 
Q 447 3434 972 4092 
Q 1497 4750 2381 4750 
Q 2619 4750 2861 4703 
Q 3103 4656 3366 4563 
z
" transform="scale(0.015625)"/>
       </defs>
       <use xlink:href="#DejaVuSans-34"/>
       <use xlink:href="#DejaVuSans-36" x="63.623047"/>
      </g>
     </g>
    </g>
    <g id="ytick_3">
     <g id="line2d_7">
      <g>
       <use xlink:href="#mbfbce7e9b4" x="57.6" y="159.506823" style="stroke: #000000; stroke-width: 0.8"/>
      </g>
     </g>
     <g id="text_8">
      <!-- 48 -->
      <g transform="translate(37.875 163.306042) scale(0.1 -0.1)">
       <defs>
        <path id="DejaVuSans-38" d="M 2034 2216 
Q 1584 2216 1326 1975 
Q 1069 1734 1069 1313 
Q 1069 891 1326 650 
Q 1584 409 2034 409 
Q 2484 409 2743 651 
Q 3003 894 3003 1313 
Q 3003 1734 2745 1975 
Q 2488 2216 2034 2216 
z
M 1403 2484 
Q 997 2584 770 2862 
Q 544 3141 544 3541 
Q 544 4100 942 4425 
Q 1341 4750 2034 4750 
Q 2731 4750 3128 4425 
Q 3525 4100 3525 3541 
Q 3525 3141 3298 2862 
Q 3072 2584 2669 2484 
Q 3125 2378 3379 2068 
Q 3634 1759 3634 1313 
Q 3634 634 3220 271 
Q 2806 -91 2034 -91 
Q 1263 -91 848 271 
Q 434 634 434 1313 
Q 434 1759 690 2068 
Q 947 2378 1403 2484 
z
M 1172 3481 
Q 1172 3119 1398 2916 
Q 1625 2713 2034 2713 
Q 2441 2713 2670 2916 
Q 2900 3119 2900 3481 
Q 2900 3844 2670 4047 
Q 2441 4250 2034 4250 
Q 1625 4250 1398 4047 
Q 1172 3844 1172 3481 
z
" transform="scale(0.015625)"/>
       </defs>
       <use xlink:href="#DejaVuSans-34"/>
       <use xlink:href="#DejaVuSans-38" x="63.623047"/>
      </g>
     </g>
    </g>
    <g id="ytick_4">
     <g id="line2d_8">
      <g>
       <use xlink:href="#mbfbce7e9b4" x="57.6" y="106.800941" style="stroke: #000000; stroke-width: 0.8"/>
      </g>
     </g>
     <g id="text_9">
      <!-- 50 -->
      <g transform="translate(37.875 110.600159) scale(0.1 -0.1)">
       <defs>
        <path id="DejaVuSans-35" d="M 691 4666 
L 3169 4666 
L 3169 4134 
L 1269 4134 
L 1269 2991 
Q 1406 3038 1543 3061 
Q 1681 3084 1819 3084 
Q 2600 3084 3056 2656 
Q 3513 2228 3513 1497 
Q 3513 744 3044 326 
Q 2575 -91 1722 -91 
Q 1428 -91 1123 -41 
Q 819 9 494 109 
L 494 744 
Q 775 591 1075 516 
Q 1375 441 1709 441 
Q 2250 441 2565 725 
Q 2881 1009 2881 1497 
Q 2881 1984 2565 2268 
Q 2250 2553 1709 2553 
Q 1456 2553 1204 2497 
Q 953 2441 691 2322 
L 691 4666 
z
" transform="scale(0.015625)"/>
       </defs>
       <use xlink:href="#DejaVuSans-35"/>
       <use xlink:href="#DejaVuSans-30" x="63.623047"/>
      </g>
     </g>
    </g>
    <g id="ytick_5">
     <g id="line2d_9">
      <g>
       <use xlink:href="#mbfbce7e9b4" x="57.6" y="54.095058" style="stroke: #000000; stroke-width: 0.8"/>
      </g>
     </g>
     <g id="text_10">
      <!-- 52 -->
      <g transform="translate(37.875 57.894277) scale(0.1 -0.1)">
       <use xlink:href="#DejaVuSans-35"/>
       <use xlink:href="#DejaVuSans-32" x="63.623047"/>
      </g>
     </g>
    </g>
    <g id="text_11">
     <!-- Ausgangsleistung in $\mu W$ -->
     <g transform="translate(31.775 234.728) rotate(-90) scale(0.1 -0.1)">
      <defs>
       <path id="DejaVuSans-41" d="M 2188 4044 
L 1331 1722 
L 3047 1722 
L 2188 4044 
z
M 1831 4666 
L 2547 4666 
L 4325 0 
L 3669 0 
L 3244 1197 
L 1141 1197 
L 716 0 
L 50 0 
L 1831 4666 
z
" transform="scale(0.015625)"/>
       <path id="DejaVuSans-Oblique-3bc" d="M -84 -1331 
L 856 3500 
L 1434 3500 
L 1009 1322 
Q 997 1256 987 1175 
Q 978 1094 978 1013 
Q 978 722 1161 565 
Q 1344 409 1684 409 
Q 2147 409 2431 671 
Q 2716 934 2816 1459 
L 3213 3500 
L 3788 3500 
L 3266 809 
Q 3253 750 3248 706 
Q 3244 663 3244 628 
Q 3244 531 3283 486 
Q 3322 441 3406 441 
Q 3438 441 3492 456 
Q 3547 472 3647 513 
L 3559 50 
Q 3422 -19 3297 -55 
Q 3172 -91 3053 -91 
Q 2847 -91 2730 40 
Q 2613 172 2613 403 
Q 2438 153 2195 31 
Q 1953 -91 1625 -91 
Q 1334 -91 1117 43 
Q 900 178 831 397 
L 494 -1331 
L -84 -1331 
z
" transform="scale(0.015625)"/>
      </defs>
      <use xlink:href="#DejaVuSans-41" transform="translate(0 0.015625)"/>
      <use xlink:href="#DejaVuSans-75" transform="translate(68.408203 0.015625)"/>
      <use xlink:href="#DejaVuSans-73" transform="translate(131.787109 0.015625)"/>
      <use xlink:href="#DejaVuSans-67" transform="translate(183.886719 0.015625)"/>
      <use xlink:href="#DejaVuSans-61" transform="translate(247.363281 0.015625)"/>
      <use xlink:href="#DejaVuSans-6e" transform="translate(308.642578 0.015625)"/>
      <use xlink:href="#DejaVuSans-67" transform="translate(372.021484 0.015625)"/>
      <use xlink:href="#DejaVuSans-73" transform="translate(435.498047 0.015625)"/>
      <use xlink:href="#DejaVuSans-6c" transform="translate(487.597656 0.015625)"/>
      <use xlink:href="#DejaVuSans-65" transform="translate(515.380859 0.015625)"/>
      <use xlink:href="#DejaVuSans-69" transform="translate(576.904297 0.015625)"/>
      <use xlink:href="#DejaVuSans-73" transform="translate(604.6875 0.015625)"/>
      <use xlink:href="#DejaVuSans-74" transform="translate(656.787109 0.015625)"/>
      <use xlink:href="#DejaVuSans-75" transform="translate(695.996094 0.015625)"/>
      <use xlink:href="#DejaVuSans-6e" transform="translate(759.375 0.015625)"/>
      <use xlink:href="#DejaVuSans-67" transform="translate(822.753906 0.015625)"/>
      <use xlink:href="#DejaVuSans-20" transform="translate(886.230469 0.015625)"/>
      <use xlink:href="#DejaVuSans-69" transform="translate(918.017578 0.015625)"/>
      <use xlink:href="#DejaVuSans-6e" transform="translate(945.800781 0.015625)"/>
      <use xlink:href="#DejaVuSans-20" transform="translate(1009.179688 0.015625)"/>
      <use xlink:href="#DejaVuSans-Oblique-3bc" transform="translate(1040.966797 0.015625)"/>
      <use xlink:href="#DejaVuSans-Oblique-57" transform="translate(1104.589844 0.015625)"/>
     </g>
    </g>
   </g>
   <g id="LineCollection_1">
    <path d="M 73.832727 278.095059 
L 155.602327 278.095059 
" clip-path="url(#p98a31c71b6)" style="fill: none; stroke: #1f77b4; stroke-width: 1.5"/>
    <path d="M 88.554875 259.648 
L 171.786183 259.648 
" clip-path="url(#p98a31c71b6)" style="fill: none; stroke: #1f77b4; stroke-width: 1.5"/>
    <path d="M 103.275538 241.200941 
L 187.971523 241.200941 
" clip-path="url(#p98a31c71b6)" style="fill: none; stroke: #1f77b4; stroke-width: 1.5"/>
    <path d="M 117.994794 222.753882 
L 204.158271 222.753882 
" clip-path="url(#p98a31c71b6)" style="fill: none; stroke: #1f77b4; stroke-width: 1.5"/>
    <path d="M 132.712712 206.942118 
L 220.346356 206.942118 
" clip-path="url(#p98a31c71b6)" style="fill: none; stroke: #1f77b4; stroke-width: 1.5"/>
    <path d="M 147.429358 191.130353 
L 236.535713 191.130353 
" clip-path="url(#p98a31c71b6)" style="fill: none; stroke: #1f77b4; stroke-width: 1.5"/>
    <path d="M 162.144796 177.953882 
L 252.72628 177.953882 
" clip-path="url(#p98a31c71b6)" style="fill: none; stroke: #1f77b4; stroke-width: 1.5"/>
    <path d="M 176.859082 167.412706 
L 268.917997 167.412706 
" clip-path="url(#p98a31c71b6)" style="fill: none; stroke: #1f77b4; stroke-width: 1.5"/>
    <path d="M 191.572271 154.236235 
L 285.110811 154.236235 
" clip-path="url(#p98a31c71b6)" style="fill: none; stroke: #1f77b4; stroke-width: 1.5"/>
    <path d="M 206.284415 138.42447 
L 301.304671 138.42447 
" clip-path="url(#p98a31c71b6)" style="fill: none; stroke: #1f77b4; stroke-width: 1.5"/>
    <path d="M 220.995562 125.248 
L 317.499527 125.248 
" clip-path="url(#p98a31c71b6)" style="fill: none; stroke: #1f77b4; stroke-width: 1.5"/>
    <path d="M 235.705757 106.800941 
L 333.695336 106.800941 
" clip-path="url(#p98a31c71b6)" style="fill: none; stroke: #1f77b4; stroke-width: 1.5"/>
    <path d="M 250.415043 106.800941 
L 349.892054 106.800941 
" clip-path="url(#p98a31c71b6)" style="fill: none; stroke: #1f77b4; stroke-width: 1.5"/>
    <path d="M 265.123459 96.259764 
L 366.089641 96.259764 
" clip-path="url(#p98a31c71b6)" style="fill: none; stroke: #1f77b4; stroke-width: 1.5"/>
    <path d="M 279.831045 93.62447 
L 382.288059 93.62447 
" clip-path="url(#p98a31c71b6)" style="fill: none; stroke: #1f77b4; stroke-width: 1.5"/>
    <path d="M 294.537835 85.718588 
L 398.487273 85.718588 
" clip-path="url(#p98a31c71b6)" style="fill: none; stroke: #1f77b4; stroke-width: 1.5"/>
   </g>
   <g id="LineCollection_2">
    <path d="M 114.717527 293.906824 
L 114.717527 262.283294 
" clip-path="url(#p98a31c71b6)" style="fill: none; stroke: #1f77b4; stroke-width: 1.5"/>
    <path d="M 130.170529 275.459765 
L 130.170529 243.836235 
" clip-path="url(#p98a31c71b6)" style="fill: none; stroke: #1f77b4; stroke-width: 1.5"/>
    <path d="M 145.623531 257.012706 
L 145.623531 225.389176 
" clip-path="url(#p98a31c71b6)" style="fill: none; stroke: #1f77b4; stroke-width: 1.5"/>
    <path d="M 161.076532 238.565647 
L 161.076532 206.942118 
" clip-path="url(#p98a31c71b6)" style="fill: none; stroke: #1f77b4; stroke-width: 1.5"/>
    <path d="M 176.529534 222.753882 
L 176.529534 191.130353 
" clip-path="url(#p98a31c71b6)" style="fill: none; stroke: #1f77b4; stroke-width: 1.5"/>
    <path d="M 191.982536 206.942118 
L 191.982536 175.318588 
" clip-path="url(#p98a31c71b6)" style="fill: none; stroke: #1f77b4; stroke-width: 1.5"/>
    <path d="M 207.435538 193.765647 
L 207.435538 162.142117 
" clip-path="url(#p98a31c71b6)" style="fill: none; stroke: #1f77b4; stroke-width: 1.5"/>
    <path d="M 222.888539 183.22447 
L 222.888539 151.600941 
" clip-path="url(#p98a31c71b6)" style="fill: none; stroke: #1f77b4; stroke-width: 1.5"/>
    <path d="M 238.341541 170.048 
L 238.341541 138.42447 
" clip-path="url(#p98a31c71b6)" style="fill: none; stroke: #1f77b4; stroke-width: 1.5"/>
    <path d="M 253.794543 154.236235 
L 253.794543 122.612705 
" clip-path="url(#p98a31c71b6)" style="fill: none; stroke: #1f77b4; stroke-width: 1.5"/>
    <path d="M 269.247545 141.059764 
L 269.247545 109.436235 
" clip-path="url(#p98a31c71b6)" style="fill: none; stroke: #1f77b4; stroke-width: 1.5"/>
    <path d="M 284.700547 122.612705 
L 284.700547 90.989176 
" clip-path="url(#p98a31c71b6)" style="fill: none; stroke: #1f77b4; stroke-width: 1.5"/>
    <path d="M 300.153548 122.612705 
L 300.153548 90.989176 
" clip-path="url(#p98a31c71b6)" style="fill: none; stroke: #1f77b4; stroke-width: 1.5"/>
    <path d="M 315.60655 112.071529 
L 315.60655 80.447999 
" clip-path="url(#p98a31c71b6)" style="fill: none; stroke: #1f77b4; stroke-width: 1.5"/>
    <path d="M 331.059552 109.436235 
L 331.059552 77.812705 
" clip-path="url(#p98a31c71b6)" style="fill: none; stroke: #1f77b4; stroke-width: 1.5"/>
    <path d="M 346.512554 101.530352 
L 346.512554 69.906823 
" clip-path="url(#p98a31c71b6)" style="fill: none; stroke: #1f77b4; stroke-width: 1.5"/>
   </g>
   <g id="line2d_10">
    <defs>
     <path id="m608958eeb4" d="M 0 5 
L 0 -5 
" style="stroke: #1f77b4"/>
    </defs>
    <g clip-path="url(#p98a31c71b6)">
     <use xlink:href="#m608958eeb4" x="73.832727" y="278.095059" style="fill: #1f77b4; stroke: #1f77b4"/>
     <use xlink:href="#m608958eeb4" x="88.554875" y="259.648" style="fill: #1f77b4; stroke: #1f77b4"/>
     <use xlink:href="#m608958eeb4" x="103.275538" y="241.200941" style="fill: #1f77b4; stroke: #1f77b4"/>
     <use xlink:href="#m608958eeb4" x="117.994794" y="222.753882" style="fill: #1f77b4; stroke: #1f77b4"/>
     <use xlink:href="#m608958eeb4" x="132.712712" y="206.942118" style="fill: #1f77b4; stroke: #1f77b4"/>
     <use xlink:href="#m608958eeb4" x="147.429358" y="191.130353" style="fill: #1f77b4; stroke: #1f77b4"/>
     <use xlink:href="#m608958eeb4" x="162.144796" y="177.953882" style="fill: #1f77b4; stroke: #1f77b4"/>
     <use xlink:href="#m608958eeb4" x="176.859082" y="167.412706" style="fill: #1f77b4; stroke: #1f77b4"/>
     <use xlink:href="#m608958eeb4" x="191.572271" y="154.236235" style="fill: #1f77b4; stroke: #1f77b4"/>
     <use xlink:href="#m608958eeb4" x="206.284415" y="138.42447" style="fill: #1f77b4; stroke: #1f77b4"/>
     <use xlink:href="#m608958eeb4" x="220.995562" y="125.248" style="fill: #1f77b4; stroke: #1f77b4"/>
     <use xlink:href="#m608958eeb4" x="235.705757" y="106.800941" style="fill: #1f77b4; stroke: #1f77b4"/>
     <use xlink:href="#m608958eeb4" x="250.415043" y="106.800941" style="fill: #1f77b4; stroke: #1f77b4"/>
     <use xlink:href="#m608958eeb4" x="265.123459" y="96.259764" style="fill: #1f77b4; stroke: #1f77b4"/>
     <use xlink:href="#m608958eeb4" x="279.831045" y="93.62447" style="fill: #1f77b4; stroke: #1f77b4"/>
     <use xlink:href="#m608958eeb4" x="294.537835" y="85.718588" style="fill: #1f77b4; stroke: #1f77b4"/>
    </g>
   </g>
   <g id="line2d_11">
    <g clip-path="url(#p98a31c71b6)">
     <use xlink:href="#m608958eeb4" x="155.602327" y="278.095059" style="fill: #1f77b4; stroke: #1f77b4"/>
     <use xlink:href="#m608958eeb4" x="171.786183" y="259.648" style="fill: #1f77b4; stroke: #1f77b4"/>
     <use xlink:href="#m608958eeb4" x="187.971523" y="241.200941" style="fill: #1f77b4; stroke: #1f77b4"/>
     <use xlink:href="#m608958eeb4" x="204.158271" y="222.753882" style="fill: #1f77b4; stroke: #1f77b4"/>
     <use xlink:href="#m608958eeb4" x="220.346356" y="206.942118" style="fill: #1f77b4; stroke: #1f77b4"/>
     <use xlink:href="#m608958eeb4" x="236.535713" y="191.130353" style="fill: #1f77b4; stroke: #1f77b4"/>
     <use xlink:href="#m608958eeb4" x="252.72628" y="177.953882" style="fill: #1f77b4; stroke: #1f77b4"/>
     <use xlink:href="#m608958eeb4" x="268.917997" y="167.412706" style="fill: #1f77b4; stroke: #1f77b4"/>
     <use xlink:href="#m608958eeb4" x="285.110811" y="154.236235" style="fill: #1f77b4; stroke: #1f77b4"/>
     <use xlink:href="#m608958eeb4" x="301.304671" y="138.42447" style="fill: #1f77b4; stroke: #1f77b4"/>
     <use xlink:href="#m608958eeb4" x="317.499527" y="125.248" style="fill: #1f77b4; stroke: #1f77b4"/>
     <use xlink:href="#m608958eeb4" x="333.695336" y="106.800941" style="fill: #1f77b4; stroke: #1f77b4"/>
     <use xlink:href="#m608958eeb4" x="349.892054" y="106.800941" style="fill: #1f77b4; stroke: #1f77b4"/>
     <use xlink:href="#m608958eeb4" x="366.089641" y="96.259764" style="fill: #1f77b4; stroke: #1f77b4"/>
     <use xlink:href="#m608958eeb4" x="382.288059" y="93.62447" style="fill: #1f77b4; stroke: #1f77b4"/>
     <use xlink:href="#m608958eeb4" x="398.487273" y="85.718588" style="fill: #1f77b4; stroke: #1f77b4"/>
    </g>
   </g>
   <g id="line2d_12">
    <defs>
     <path id="m28a1277753" d="M 5 0 
L -5 -0 
" style="stroke: #1f77b4"/>
    </defs>
    <g clip-path="url(#p98a31c71b6)">
     <use xlink:href="#m28a1277753" x="114.717527" y="293.906824" style="fill: #1f77b4; stroke: #1f77b4"/>
     <use xlink:href="#m28a1277753" x="130.170529" y="275.459765" style="fill: #1f77b4; stroke: #1f77b4"/>
     <use xlink:href="#m28a1277753" x="145.623531" y="257.012706" style="fill: #1f77b4; stroke: #1f77b4"/>
     <use xlink:href="#m28a1277753" x="161.076532" y="238.565647" style="fill: #1f77b4; stroke: #1f77b4"/>
     <use xlink:href="#m28a1277753" x="176.529534" y="222.753882" style="fill: #1f77b4; stroke: #1f77b4"/>
     <use xlink:href="#m28a1277753" x="191.982536" y="206.942118" style="fill: #1f77b4; stroke: #1f77b4"/>
     <use xlink:href="#m28a1277753" x="207.435538" y="193.765647" style="fill: #1f77b4; stroke: #1f77b4"/>
     <use xlink:href="#m28a1277753" x="222.888539" y="183.22447" style="fill: #1f77b4; stroke: #1f77b4"/>
     <use xlink:href="#m28a1277753" x="238.341541" y="170.048" style="fill: #1f77b4; stroke: #1f77b4"/>
     <use xlink:href="#m28a1277753" x="253.794543" y="154.236235" style="fill: #1f77b4; stroke: #1f77b4"/>
     <use xlink:href="#m28a1277753" x="269.247545" y="141.059764" style="fill: #1f77b4; stroke: #1f77b4"/>
     <use xlink:href="#m28a1277753" x="284.700547" y="122.612705" style="fill: #1f77b4; stroke: #1f77b4"/>
     <use xlink:href="#m28a1277753" x="300.153548" y="122.612705" style="fill: #1f77b4; stroke: #1f77b4"/>
     <use xlink:href="#m28a1277753" x="315.60655" y="112.071529" style="fill: #1f77b4; stroke: #1f77b4"/>
     <use xlink:href="#m28a1277753" x="331.059552" y="109.436235" style="fill: #1f77b4; stroke: #1f77b4"/>
     <use xlink:href="#m28a1277753" x="346.512554" y="101.530352" style="fill: #1f77b4; stroke: #1f77b4"/>
    </g>
   </g>
   <g id="line2d_13">
    <g clip-path="url(#p98a31c71b6)">
     <use xlink:href="#m28a1277753" x="114.717527" y="262.283294" style="fill: #1f77b4; stroke: #1f77b4"/>
     <use xlink:href="#m28a1277753" x="130.170529" y="243.836235" style="fill: #1f77b4; stroke: #1f77b4"/>
     <use xlink:href="#m28a1277753" x="145.623531" y="225.389176" style="fill: #1f77b4; stroke: #1f77b4"/>
     <use xlink:href="#m28a1277753" x="161.076532" y="206.942118" style="fill: #1f77b4; stroke: #1f77b4"/>
     <use xlink:href="#m28a1277753" x="176.529534" y="191.130353" style="fill: #1f77b4; stroke: #1f77b4"/>
     <use xlink:href="#m28a1277753" x="191.982536" y="175.318588" style="fill: #1f77b4; stroke: #1f77b4"/>
     <use xlink:href="#m28a1277753" x="207.435538" y="162.142117" style="fill: #1f77b4; stroke: #1f77b4"/>
     <use xlink:href="#m28a1277753" x="222.888539" y="151.600941" style="fill: #1f77b4; stroke: #1f77b4"/>
     <use xlink:href="#m28a1277753" x="238.341541" y="138.42447" style="fill: #1f77b4; stroke: #1f77b4"/>
     <use xlink:href="#m28a1277753" x="253.794543" y="122.612705" style="fill: #1f77b4; stroke: #1f77b4"/>
     <use xlink:href="#m28a1277753" x="269.247545" y="109.436235" style="fill: #1f77b4; stroke: #1f77b4"/>
     <use xlink:href="#m28a1277753" x="284.700547" y="90.989176" style="fill: #1f77b4; stroke: #1f77b4"/>
     <use xlink:href="#m28a1277753" x="300.153548" y="90.989176" style="fill: #1f77b4; stroke: #1f77b4"/>
     <use xlink:href="#m28a1277753" x="315.60655" y="80.447999" style="fill: #1f77b4; stroke: #1f77b4"/>
     <use xlink:href="#m28a1277753" x="331.059552" y="77.812705" style="fill: #1f77b4; stroke: #1f77b4"/>
     <use xlink:href="#m28a1277753" x="346.512554" y="69.906823" style="fill: #1f77b4; stroke: #1f77b4"/>
    </g>
   </g>
   <g id="line2d_14">
    <path d="M 99.264525 295.488 
L 307.880049 53.568 
L 307.880049 53.568 
" clip-path="url(#p98a31c71b6)" style="fill: none; stroke: #000000; stroke-width: 1.5; stroke-linecap: square"/>
   </g>
   <g id="line2d_15">
    <defs>
     <path id="m01e8c9329b" d="M 0 3 
C 0.795609 3 1.55874 2.683901 2.12132 2.12132 
C 2.683901 1.55874 3 0.795609 3 0 
C 3 -0.795609 2.683901 -1.55874 2.12132 -2.12132 
C 1.55874 -2.683901 0.795609 -3 0 -3 
C -0.795609 -3 -1.55874 -2.683901 -2.12132 -2.12132 
C -2.683901 -1.55874 -3 -0.795609 -3 0 
C -3 0.795609 -2.683901 1.55874 -2.12132 2.12132 
C -1.55874 2.683901 -0.795609 3 0 3 
z
" style="stroke: #1f77b4"/>
    </defs>
    <g clip-path="url(#p98a31c71b6)">
     <use xlink:href="#m01e8c9329b" x="114.717527" y="278.095059" style="fill: #1f77b4; stroke: #1f77b4"/>
     <use xlink:href="#m01e8c9329b" x="130.170529" y="259.648" style="fill: #1f77b4; stroke: #1f77b4"/>
     <use xlink:href="#m01e8c9329b" x="145.623531" y="241.200941" style="fill: #1f77b4; stroke: #1f77b4"/>
     <use xlink:href="#m01e8c9329b" x="161.076532" y="222.753882" style="fill: #1f77b4; stroke: #1f77b4"/>
     <use xlink:href="#m01e8c9329b" x="176.529534" y="206.942118" style="fill: #1f77b4; stroke: #1f77b4"/>
     <use xlink:href="#m01e8c9329b" x="191.982536" y="191.130353" style="fill: #1f77b4; stroke: #1f77b4"/>
     <use xlink:href="#m01e8c9329b" x="207.435538" y="177.953882" style="fill: #1f77b4; stroke: #1f77b4"/>
     <use xlink:href="#m01e8c9329b" x="222.888539" y="167.412706" style="fill: #1f77b4; stroke: #1f77b4"/>
     <use xlink:href="#m01e8c9329b" x="238.341541" y="154.236235" style="fill: #1f77b4; stroke: #1f77b4"/>
     <use xlink:href="#m01e8c9329b" x="253.794543" y="138.42447" style="fill: #1f77b4; stroke: #1f77b4"/>
     <use xlink:href="#m01e8c9329b" x="269.247545" y="125.248" style="fill: #1f77b4; stroke: #1f77b4"/>
     <use xlink:href="#m01e8c9329b" x="284.700547" y="106.800941" style="fill: #1f77b4; stroke: #1f77b4"/>
     <use xlink:href="#m01e8c9329b" x="300.153548" y="106.800941" style="fill: #1f77b4; stroke: #1f77b4"/>
     <use xlink:href="#m01e8c9329b" x="315.60655" y="96.259764" style="fill: #1f77b4; stroke: #1f77b4"/>
     <use xlink:href="#m01e8c9329b" x="331.059552" y="93.62447" style="fill: #1f77b4; stroke: #1f77b4"/>
     <use xlink:href="#m01e8c9329b" x="346.512554" y="85.718588" style="fill: #1f77b4; stroke: #1f77b4"/>
    </g>
   </g>
   <g id="patch_3">
    <path d="M 57.6 307.584 
L 57.6 41.472 
" style="fill: none; stroke: #000000; stroke-width: 0.8; stroke-linejoin: miter; stroke-linecap: square"/>
   </g>
   <g id="patch_4">
    <path d="M 414.72 307.584 
L 414.72 41.472 
" style="fill: none; stroke: #000000; stroke-width: 0.8; stroke-linejoin: miter; stroke-linecap: square"/>
   </g>
   <g id="patch_5">
    <path d="M 57.6 307.584 
L 414.72 307.584 
" style="fill: none; stroke: #000000; stroke-width: 0.8; stroke-linejoin: miter; stroke-linecap: square"/>
   </g>
   <g id="patch_6">
    <path d="M 57.6 41.472 
L 414.72 41.472 
" style="fill: none; stroke: #000000; stroke-width: 0.8; stroke-linejoin: miter; stroke-linecap: square"/>
   </g>
  </g>
 </g>
 <defs>
  <clipPath id="p98a31c71b6">
   <rect x="57.6" y="41.472" width="357.12" height="266.112"/>
  </clipPath>
 </defs>
</svg>
