<?xml version="1.0" encoding="utf-8" standalone="no"?>
<!DOCTYPE svg PUBLIC "-//W3C//DTD SVG 1.1//EN"
  "http://www.w3.org/Graphics/SVG/1.1/DTD/svg11.dtd">
<svg xmlns:xlink="http://www.w3.org/1999/xlink" width="460.8pt" height="345.6pt" viewBox="0 0 460.8 345.6" xmlns="http://www.w3.org/2000/svg" version="1.1">
 <metadata>
  <rdf:RDF xmlns:dc="http://purl.org/dc/elements/1.1/" xmlns:cc="http://creativecommons.org/ns#" xmlns:rdf="http://www.w3.org/1999/02/22-rdf-syntax-ns#">
   <cc:Work>
    <dc:type rdf:resource="http://purl.org/dc/dcmitype/StillImage"/>
    <dc:date>2022-12-13T15:10:06.181921</dc:date>
    <dc:format>image/svg+xml</dc:format>
    <dc:creator>
     <cc:Agent>
      <dc:title>Matplotlib v3.6.2, https://matplotlib.org/</dc:title>
     </cc:Agent>
    </dc:creator>
   </cc:Work>
  </rdf:RDF>
 </metadata>
 <defs>
  <style type="text/css">*{stroke-linejoin: round; stroke-linecap: butt}</style>
 </defs>
 <g id="figure_1">
  <g id="patch_1">
   <path d="M 0 345.6 
L 460.8 345.6 
L 460.8 0 
L 0 0 
z
" style="fill: #ffffff"/>
  </g>
  <g id="axes_1">
   <g id="patch_2">
    <path d="M 57.6 307.584 
L 414.72 307.584 
L 414.72 41.472 
L 57.6 41.472 
z
" style="fill: #ffffff"/>
   </g>
   <g id="matplotlib.axis_1">
    <g id="xtick_1">
     <g id="line2d_1">
      <defs>
       <path id="m6e739228a2" d="M 0 0 
L 0 3.5 
" style="stroke: #000000; stroke-width: 0.8"/>
      </defs>
      <g>
       <use xlink:href="#m6e739228a2" x="106.826185" y="307.584" style="stroke: #000000; stroke-width: 0.8"/>
      </g>
     </g>
     <g id="text_1">
      <!-- 16 -->
      <g transform="translate(100.463685 322.182437) scale(0.1 -0.1)">
       <defs>
        <path id="DejaVuSans-31" d="M 794 531 
L 1825 531 
L 1825 4091 
L 703 3866 
L 703 4441 
L 1819 4666 
L 2450 4666 
L 2450 531 
L 3481 531 
L 3481 0 
L 794 0 
L 794 531 
z
" transform="scale(0.015625)"/>
        <path id="DejaVuSans-36" d="M 2113 2584 
Q 1688 2584 1439 2293 
Q 1191 2003 1191 1497 
Q 1191 994 1439 701 
Q 1688 409 2113 409 
Q 2538 409 2786 701 
Q 3034 994 3034 1497 
Q 3034 2003 2786 2293 
Q 2538 2584 2113 2584 
z
M 3366 4563 
L 3366 3988 
Q 3128 4100 2886 4159 
Q 2644 4219 2406 4219 
Q 1781 4219 1451 3797 
Q 1122 3375 1075 2522 
Q 1259 2794 1537 2939 
Q 1816 3084 2150 3084 
Q 2853 3084 3261 2657 
Q 3669 2231 3669 1497 
Q 3669 778 3244 343 
Q 2819 -91 2113 -91 
Q 1303 -91 875 529 
Q 447 1150 447 2328 
Q 447 3434 972 4092 
Q 1497 4750 2381 4750 
Q 2619 4750 2861 4703 
Q 3103 4656 3366 4563 
z
" transform="scale(0.015625)"/>
       </defs>
       <use xlink:href="#DejaVuSans-31"/>
       <use xlink:href="#DejaVuSans-36" x="63.623047"/>
      </g>
     </g>
    </g>
    <g id="xtick_2">
     <g id="line2d_2">
      <g>
       <use xlink:href="#m6e739228a2" x="171.493092" y="307.584" style="stroke: #000000; stroke-width: 0.8"/>
      </g>
     </g>
     <g id="text_2">
      <!-- 18 -->
      <g transform="translate(165.130592 322.182437) scale(0.1 -0.1)">
       <defs>
        <path id="DejaVuSans-38" d="M 2034 2216 
Q 1584 2216 1326 1975 
Q 1069 1734 1069 1313 
Q 1069 891 1326 650 
Q 1584 409 2034 409 
Q 2484 409 2743 651 
Q 3003 894 3003 1313 
Q 3003 1734 2745 1975 
Q 2488 2216 2034 2216 
z
M 1403 2484 
Q 997 2584 770 2862 
Q 544 3141 544 3541 
Q 544 4100 942 4425 
Q 1341 4750 2034 4750 
Q 2731 4750 3128 4425 
Q 3525 4100 3525 3541 
Q 3525 3141 3298 2862 
Q 3072 2584 2669 2484 
Q 3125 2378 3379 2068 
Q 3634 1759 3634 1313 
Q 3634 634 3220 271 
Q 2806 -91 2034 -91 
Q 1263 -91 848 271 
Q 434 634 434 1313 
Q 434 1759 690 2068 
Q 947 2378 1403 2484 
z
M 1172 3481 
Q 1172 3119 1398 2916 
Q 1625 2713 2034 2713 
Q 2441 2713 2670 2916 
Q 2900 3119 2900 3481 
Q 2900 3844 2670 4047 
Q 2441 4250 2034 4250 
Q 1625 4250 1398 4047 
Q 1172 3844 1172 3481 
z
" transform="scale(0.015625)"/>
       </defs>
       <use xlink:href="#DejaVuSans-31"/>
       <use xlink:href="#DejaVuSans-38" x="63.623047"/>
      </g>
     </g>
    </g>
    <g id="xtick_3">
     <g id="line2d_3">
      <g>
       <use xlink:href="#m6e739228a2" x="236.16" y="307.584" style="stroke: #000000; stroke-width: 0.8"/>
      </g>
     </g>
     <g id="text_3">
      <!-- 20 -->
      <g transform="translate(229.7975 322.182437) scale(0.1 -0.1)">
       <defs>
        <path id="DejaVuSans-32" d="M 1228 531 
L 3431 531 
L 3431 0 
L 469 0 
L 469 531 
Q 828 903 1448 1529 
Q 2069 2156 2228 2338 
Q 2531 2678 2651 2914 
Q 2772 3150 2772 3378 
Q 2772 3750 2511 3984 
Q 2250 4219 1831 4219 
Q 1534 4219 1204 4116 
Q 875 4013 500 3803 
L 500 4441 
Q 881 4594 1212 4672 
Q 1544 4750 1819 4750 
Q 2544 4750 2975 4387 
Q 3406 4025 3406 3419 
Q 3406 3131 3298 2873 
Q 3191 2616 2906 2266 
Q 2828 2175 2409 1742 
Q 1991 1309 1228 531 
z
" transform="scale(0.015625)"/>
        <path id="DejaVuSans-30" d="M 2034 4250 
Q 1547 4250 1301 3770 
Q 1056 3291 1056 2328 
Q 1056 1369 1301 889 
Q 1547 409 2034 409 
Q 2525 409 2770 889 
Q 3016 1369 3016 2328 
Q 3016 3291 2770 3770 
Q 2525 4250 2034 4250 
z
M 2034 4750 
Q 2819 4750 3233 4129 
Q 3647 3509 3647 2328 
Q 3647 1150 3233 529 
Q 2819 -91 2034 -91 
Q 1250 -91 836 529 
Q 422 1150 422 2328 
Q 422 3509 836 4129 
Q 1250 4750 2034 4750 
z
" transform="scale(0.015625)"/>
       </defs>
       <use xlink:href="#DejaVuSans-32"/>
       <use xlink:href="#DejaVuSans-30" x="63.623047"/>
      </g>
     </g>
    </g>
    <g id="xtick_4">
     <g id="line2d_4">
      <g>
       <use xlink:href="#m6e739228a2" x="300.826908" y="307.584" style="stroke: #000000; stroke-width: 0.8"/>
      </g>
     </g>
     <g id="text_4">
      <!-- 22 -->
      <g transform="translate(294.464408 322.182437) scale(0.1 -0.1)">
       <use xlink:href="#DejaVuSans-32"/>
       <use xlink:href="#DejaVuSans-32" x="63.623047"/>
      </g>
     </g>
    </g>
    <g id="xtick_5">
     <g id="line2d_5">
      <g>
       <use xlink:href="#m6e739228a2" x="365.493815" y="307.584" style="stroke: #000000; stroke-width: 0.8"/>
      </g>
     </g>
     <g id="text_5">
      <!-- 24 -->
      <g transform="translate(359.131315 322.182437) scale(0.1 -0.1)">
       <defs>
        <path id="DejaVuSans-34" d="M 2419 4116 
L 825 1625 
L 2419 1625 
L 2419 4116 
z
M 2253 4666 
L 3047 4666 
L 3047 1625 
L 3713 1625 
L 3713 1100 
L 3047 1100 
L 3047 0 
L 2419 0 
L 2419 1100 
L 313 1100 
L 313 1709 
L 2253 4666 
z
" transform="scale(0.015625)"/>
       </defs>
       <use xlink:href="#DejaVuSans-32"/>
       <use xlink:href="#DejaVuSans-34" x="63.623047"/>
      </g>
     </g>
    </g>
    <g id="text_6">
     <!-- Röhrenposition in cm -->
     <g transform="translate(183.334219 335.860562) scale(0.1 -0.1)">
      <defs>
       <path id="DejaVuSans-52" d="M 2841 2188 
Q 3044 2119 3236 1894 
Q 3428 1669 3622 1275 
L 4263 0 
L 3584 0 
L 2988 1197 
Q 2756 1666 2539 1819 
Q 2322 1972 1947 1972 
L 1259 1972 
L 1259 0 
L 628 0 
L 628 4666 
L 2053 4666 
Q 2853 4666 3247 4331 
Q 3641 3997 3641 3322 
Q 3641 2881 3436 2590 
Q 3231 2300 2841 2188 
z
M 1259 4147 
L 1259 2491 
L 2053 2491 
Q 2509 2491 2742 2702 
Q 2975 2913 2975 3322 
Q 2975 3731 2742 3939 
Q 2509 4147 2053 4147 
L 1259 4147 
z
" transform="scale(0.015625)"/>
       <path id="DejaVuSans-f6" d="M 1959 3097 
Q 1497 3097 1228 2736 
Q 959 2375 959 1747 
Q 959 1119 1226 758 
Q 1494 397 1959 397 
Q 2419 397 2687 759 
Q 2956 1122 2956 1747 
Q 2956 2369 2687 2733 
Q 2419 3097 1959 3097 
z
M 1959 3584 
Q 2709 3584 3137 3096 
Q 3566 2609 3566 1747 
Q 3566 888 3137 398 
Q 2709 -91 1959 -91 
Q 1206 -91 779 398 
Q 353 888 353 1747 
Q 353 2609 779 3096 
Q 1206 3584 1959 3584 
z
M 2254 4850 
L 2888 4850 
L 2888 4219 
L 2254 4219 
L 2254 4850 
z
M 1032 4850 
L 1666 4850 
L 1666 4219 
L 1032 4219 
L 1032 4850 
z
" transform="scale(0.015625)"/>
       <path id="DejaVuSans-68" d="M 3513 2113 
L 3513 0 
L 2938 0 
L 2938 2094 
Q 2938 2591 2744 2837 
Q 2550 3084 2163 3084 
Q 1697 3084 1428 2787 
Q 1159 2491 1159 1978 
L 1159 0 
L 581 0 
L 581 4863 
L 1159 4863 
L 1159 2956 
Q 1366 3272 1645 3428 
Q 1925 3584 2291 3584 
Q 2894 3584 3203 3211 
Q 3513 2838 3513 2113 
z
" transform="scale(0.015625)"/>
       <path id="DejaVuSans-72" d="M 2631 2963 
Q 2534 3019 2420 3045 
Q 2306 3072 2169 3072 
Q 1681 3072 1420 2755 
Q 1159 2438 1159 1844 
L 1159 0 
L 581 0 
L 581 3500 
L 1159 3500 
L 1159 2956 
Q 1341 3275 1631 3429 
Q 1922 3584 2338 3584 
Q 2397 3584 2469 3576 
Q 2541 3569 2628 3553 
L 2631 2963 
z
" transform="scale(0.015625)"/>
       <path id="DejaVuSans-65" d="M 3597 1894 
L 3597 1613 
L 953 1613 
Q 991 1019 1311 708 
Q 1631 397 2203 397 
Q 2534 397 2845 478 
Q 3156 559 3463 722 
L 3463 178 
Q 3153 47 2828 -22 
Q 2503 -91 2169 -91 
Q 1331 -91 842 396 
Q 353 884 353 1716 
Q 353 2575 817 3079 
Q 1281 3584 2069 3584 
Q 2775 3584 3186 3129 
Q 3597 2675 3597 1894 
z
M 3022 2063 
Q 3016 2534 2758 2815 
Q 2500 3097 2075 3097 
Q 1594 3097 1305 2825 
Q 1016 2553 972 2059 
L 3022 2063 
z
" transform="scale(0.015625)"/>
       <path id="DejaVuSans-6e" d="M 3513 2113 
L 3513 0 
L 2938 0 
L 2938 2094 
Q 2938 2591 2744 2837 
Q 2550 3084 2163 3084 
Q 1697 3084 1428 2787 
Q 1159 2491 1159 1978 
L 1159 0 
L 581 0 
L 581 3500 
L 1159 3500 
L 1159 2956 
Q 1366 3272 1645 3428 
Q 1925 3584 2291 3584 
Q 2894 3584 3203 3211 
Q 3513 2838 3513 2113 
z
" transform="scale(0.015625)"/>
       <path id="DejaVuSans-70" d="M 1159 525 
L 1159 -1331 
L 581 -1331 
L 581 3500 
L 1159 3500 
L 1159 2969 
Q 1341 3281 1617 3432 
Q 1894 3584 2278 3584 
Q 2916 3584 3314 3078 
Q 3713 2572 3713 1747 
Q 3713 922 3314 415 
Q 2916 -91 2278 -91 
Q 1894 -91 1617 61 
Q 1341 213 1159 525 
z
M 3116 1747 
Q 3116 2381 2855 2742 
Q 2594 3103 2138 3103 
Q 1681 3103 1420 2742 
Q 1159 2381 1159 1747 
Q 1159 1113 1420 752 
Q 1681 391 2138 391 
Q 2594 391 2855 752 
Q 3116 1113 3116 1747 
z
" transform="scale(0.015625)"/>
       <path id="DejaVuSans-6f" d="M 1959 3097 
Q 1497 3097 1228 2736 
Q 959 2375 959 1747 
Q 959 1119 1226 758 
Q 1494 397 1959 397 
Q 2419 397 2687 759 
Q 2956 1122 2956 1747 
Q 2956 2369 2687 2733 
Q 2419 3097 1959 3097 
z
M 1959 3584 
Q 2709 3584 3137 3096 
Q 3566 2609 3566 1747 
Q 3566 888 3137 398 
Q 2709 -91 1959 -91 
Q 1206 -91 779 398 
Q 353 888 353 1747 
Q 353 2609 779 3096 
Q 1206 3584 1959 3584 
z
" transform="scale(0.015625)"/>
       <path id="DejaVuSans-73" d="M 2834 3397 
L 2834 2853 
Q 2591 2978 2328 3040 
Q 2066 3103 1784 3103 
Q 1356 3103 1142 2972 
Q 928 2841 928 2578 
Q 928 2378 1081 2264 
Q 1234 2150 1697 2047 
L 1894 2003 
Q 2506 1872 2764 1633 
Q 3022 1394 3022 966 
Q 3022 478 2636 193 
Q 2250 -91 1575 -91 
Q 1294 -91 989 -36 
Q 684 19 347 128 
L 347 722 
Q 666 556 975 473 
Q 1284 391 1588 391 
Q 1994 391 2212 530 
Q 2431 669 2431 922 
Q 2431 1156 2273 1281 
Q 2116 1406 1581 1522 
L 1381 1569 
Q 847 1681 609 1914 
Q 372 2147 372 2553 
Q 372 3047 722 3315 
Q 1072 3584 1716 3584 
Q 2034 3584 2315 3537 
Q 2597 3491 2834 3397 
z
" transform="scale(0.015625)"/>
       <path id="DejaVuSans-69" d="M 603 3500 
L 1178 3500 
L 1178 0 
L 603 0 
L 603 3500 
z
M 603 4863 
L 1178 4863 
L 1178 4134 
L 603 4134 
L 603 4863 
z
" transform="scale(0.015625)"/>
       <path id="DejaVuSans-74" d="M 1172 4494 
L 1172 3500 
L 2356 3500 
L 2356 3053 
L 1172 3053 
L 1172 1153 
Q 1172 725 1289 603 
Q 1406 481 1766 481 
L 2356 481 
L 2356 0 
L 1766 0 
Q 1100 0 847 248 
Q 594 497 594 1153 
L 594 3053 
L 172 3053 
L 172 3500 
L 594 3500 
L 594 4494 
L 1172 4494 
z
" transform="scale(0.015625)"/>
       <path id="DejaVuSans-20" transform="scale(0.015625)"/>
       <path id="DejaVuSans-63" d="M 3122 3366 
L 3122 2828 
Q 2878 2963 2633 3030 
Q 2388 3097 2138 3097 
Q 1578 3097 1268 2742 
Q 959 2388 959 1747 
Q 959 1106 1268 751 
Q 1578 397 2138 397 
Q 2388 397 2633 464 
Q 2878 531 3122 666 
L 3122 134 
Q 2881 22 2623 -34 
Q 2366 -91 2075 -91 
Q 1284 -91 818 406 
Q 353 903 353 1747 
Q 353 2603 823 3093 
Q 1294 3584 2113 3584 
Q 2378 3584 2631 3529 
Q 2884 3475 3122 3366 
z
" transform="scale(0.015625)"/>
       <path id="DejaVuSans-6d" d="M 3328 2828 
Q 3544 3216 3844 3400 
Q 4144 3584 4550 3584 
Q 5097 3584 5394 3201 
Q 5691 2819 5691 2113 
L 5691 0 
L 5113 0 
L 5113 2094 
Q 5113 2597 4934 2840 
Q 4756 3084 4391 3084 
Q 3944 3084 3684 2787 
Q 3425 2491 3425 1978 
L 3425 0 
L 2847 0 
L 2847 2094 
Q 2847 2600 2669 2842 
Q 2491 3084 2119 3084 
Q 1678 3084 1418 2786 
Q 1159 2488 1159 1978 
L 1159 0 
L 581 0 
L 581 3500 
L 1159 3500 
L 1159 2956 
Q 1356 3278 1631 3431 
Q 1906 3584 2284 3584 
Q 2666 3584 2933 3390 
Q 3200 3197 3328 2828 
z
" transform="scale(0.015625)"/>
      </defs>
      <use xlink:href="#DejaVuSans-52"/>
      <use xlink:href="#DejaVuSans-f6" x="64.982422"/>
      <use xlink:href="#DejaVuSans-68" x="126.164062"/>
      <use xlink:href="#DejaVuSans-72" x="189.542969"/>
      <use xlink:href="#DejaVuSans-65" x="228.40625"/>
      <use xlink:href="#DejaVuSans-6e" x="289.929688"/>
      <use xlink:href="#DejaVuSans-70" x="353.308594"/>
      <use xlink:href="#DejaVuSans-6f" x="416.785156"/>
      <use xlink:href="#DejaVuSans-73" x="477.966797"/>
      <use xlink:href="#DejaVuSans-69" x="530.066406"/>
      <use xlink:href="#DejaVuSans-74" x="557.849609"/>
      <use xlink:href="#DejaVuSans-69" x="597.058594"/>
      <use xlink:href="#DejaVuSans-6f" x="624.841797"/>
      <use xlink:href="#DejaVuSans-6e" x="686.023438"/>
      <use xlink:href="#DejaVuSans-20" x="749.402344"/>
      <use xlink:href="#DejaVuSans-69" x="781.189453"/>
      <use xlink:href="#DejaVuSans-6e" x="808.972656"/>
      <use xlink:href="#DejaVuSans-20" x="872.351562"/>
      <use xlink:href="#DejaVuSans-63" x="904.138672"/>
      <use xlink:href="#DejaVuSans-6d" x="959.119141"/>
     </g>
    </g>
   </g>
   <g id="matplotlib.axis_2">
    <g id="ytick_1">
     <g id="line2d_6">
      <defs>
       <path id="m5f96ddf9af" d="M 0 0 
L -3.5 0 
" style="stroke: #000000; stroke-width: 0.8"/>
      </defs>
      <g>
       <use xlink:href="#m5f96ddf9af" x="57.6" y="281.619975" style="stroke: #000000; stroke-width: 0.8"/>
      </g>
     </g>
     <g id="text_7">
      <!-- 2.2 -->
      <g transform="translate(34.696875 285.419193) scale(0.1 -0.1)">
       <defs>
        <path id="DejaVuSans-2e" d="M 684 794 
L 1344 794 
L 1344 0 
L 684 0 
L 684 794 
z
" transform="scale(0.015625)"/>
       </defs>
       <use xlink:href="#DejaVuSans-32"/>
       <use xlink:href="#DejaVuSans-2e" x="63.623047"/>
       <use xlink:href="#DejaVuSans-32" x="95.410156"/>
      </g>
     </g>
    </g>
    <g id="ytick_2">
     <g id="line2d_7">
      <g>
       <use xlink:href="#m5f96ddf9af" x="57.6" y="250.80214" style="stroke: #000000; stroke-width: 0.8"/>
      </g>
     </g>
     <g id="text_8">
      <!-- 2.4 -->
      <g transform="translate(34.696875 254.601359) scale(0.1 -0.1)">
       <use xlink:href="#DejaVuSans-32"/>
       <use xlink:href="#DejaVuSans-2e" x="63.623047"/>
       <use xlink:href="#DejaVuSans-34" x="95.410156"/>
      </g>
     </g>
    </g>
    <g id="ytick_3">
     <g id="line2d_8">
      <g>
       <use xlink:href="#m5f96ddf9af" x="57.6" y="219.984306" style="stroke: #000000; stroke-width: 0.8"/>
      </g>
     </g>
     <g id="text_9">
      <!-- 2.6 -->
      <g transform="translate(34.696875 223.783524) scale(0.1 -0.1)">
       <use xlink:href="#DejaVuSans-32"/>
       <use xlink:href="#DejaVuSans-2e" x="63.623047"/>
       <use xlink:href="#DejaVuSans-36" x="95.410156"/>
      </g>
     </g>
    </g>
    <g id="ytick_4">
     <g id="line2d_9">
      <g>
       <use xlink:href="#m5f96ddf9af" x="57.6" y="189.166471" style="stroke: #000000; stroke-width: 0.8"/>
      </g>
     </g>
     <g id="text_10">
      <!-- 2.8 -->
      <g transform="translate(34.696875 192.96569) scale(0.1 -0.1)">
       <use xlink:href="#DejaVuSans-32"/>
       <use xlink:href="#DejaVuSans-2e" x="63.623047"/>
       <use xlink:href="#DejaVuSans-38" x="95.410156"/>
      </g>
     </g>
    </g>
    <g id="ytick_5">
     <g id="line2d_10">
      <g>
       <use xlink:href="#m5f96ddf9af" x="57.6" y="158.348637" style="stroke: #000000; stroke-width: 0.8"/>
      </g>
     </g>
     <g id="text_11">
      <!-- 3.0 -->
      <g transform="translate(34.696875 162.147856) scale(0.1 -0.1)">
       <defs>
        <path id="DejaVuSans-33" d="M 2597 2516 
Q 3050 2419 3304 2112 
Q 3559 1806 3559 1356 
Q 3559 666 3084 287 
Q 2609 -91 1734 -91 
Q 1441 -91 1130 -33 
Q 819 25 488 141 
L 488 750 
Q 750 597 1062 519 
Q 1375 441 1716 441 
Q 2309 441 2620 675 
Q 2931 909 2931 1356 
Q 2931 1769 2642 2001 
Q 2353 2234 1838 2234 
L 1294 2234 
L 1294 2753 
L 1863 2753 
Q 2328 2753 2575 2939 
Q 2822 3125 2822 3475 
Q 2822 3834 2567 4026 
Q 2313 4219 1838 4219 
Q 1578 4219 1281 4162 
Q 984 4106 628 3988 
L 628 4550 
Q 988 4650 1302 4700 
Q 1616 4750 1894 4750 
Q 2613 4750 3031 4423 
Q 3450 4097 3450 3541 
Q 3450 3153 3228 2886 
Q 3006 2619 2597 2516 
z
" transform="scale(0.015625)"/>
       </defs>
       <use xlink:href="#DejaVuSans-33"/>
       <use xlink:href="#DejaVuSans-2e" x="63.623047"/>
       <use xlink:href="#DejaVuSans-30" x="95.410156"/>
      </g>
     </g>
    </g>
    <g id="ytick_6">
     <g id="line2d_11">
      <g>
       <use xlink:href="#m5f96ddf9af" x="57.6" y="127.530803" style="stroke: #000000; stroke-width: 0.8"/>
      </g>
     </g>
     <g id="text_12">
      <!-- 3.2 -->
      <g transform="translate(34.696875 131.330021) scale(0.1 -0.1)">
       <use xlink:href="#DejaVuSans-33"/>
       <use xlink:href="#DejaVuSans-2e" x="63.623047"/>
       <use xlink:href="#DejaVuSans-32" x="95.410156"/>
      </g>
     </g>
    </g>
    <g id="ytick_7">
     <g id="line2d_12">
      <g>
       <use xlink:href="#m5f96ddf9af" x="57.6" y="96.712968" style="stroke: #000000; stroke-width: 0.8"/>
      </g>
     </g>
     <g id="text_13">
      <!-- 3.4 -->
      <g transform="translate(34.696875 100.512187) scale(0.1 -0.1)">
       <use xlink:href="#DejaVuSans-33"/>
       <use xlink:href="#DejaVuSans-2e" x="63.623047"/>
       <use xlink:href="#DejaVuSans-34" x="95.410156"/>
      </g>
     </g>
    </g>
    <g id="ytick_8">
     <g id="line2d_13">
      <g>
       <use xlink:href="#m5f96ddf9af" x="57.6" y="65.895134" style="stroke: #000000; stroke-width: 0.8"/>
      </g>
     </g>
     <g id="text_14">
      <!-- 3.6 -->
      <g transform="translate(34.696875 69.694353) scale(0.1 -0.1)">
       <use xlink:href="#DejaVuSans-33"/>
       <use xlink:href="#DejaVuSans-2e" x="63.623047"/>
       <use xlink:href="#DejaVuSans-36" x="95.410156"/>
      </g>
     </g>
    </g>
    <g id="text_15">
     <!-- Ausgangsleistung in $mW$ -->
     <g transform="translate(28.596875 236.428) rotate(-90) scale(0.1 -0.1)">
      <defs>
       <path id="DejaVuSans-41" d="M 2188 4044 
L 1331 1722 
L 3047 1722 
L 2188 4044 
z
M 1831 4666 
L 2547 4666 
L 4325 0 
L 3669 0 
L 3244 1197 
L 1141 1197 
L 716 0 
L 50 0 
L 1831 4666 
z
" transform="scale(0.015625)"/>
       <path id="DejaVuSans-75" d="M 544 1381 
L 544 3500 
L 1119 3500 
L 1119 1403 
Q 1119 906 1312 657 
Q 1506 409 1894 409 
Q 2359 409 2629 706 
Q 2900 1003 2900 1516 
L 2900 3500 
L 3475 3500 
L 3475 0 
L 2900 0 
L 2900 538 
Q 2691 219 2414 64 
Q 2138 -91 1772 -91 
Q 1169 -91 856 284 
Q 544 659 544 1381 
z
M 1991 3584 
L 1991 3584 
z
" transform="scale(0.015625)"/>
       <path id="DejaVuSans-67" d="M 2906 1791 
Q 2906 2416 2648 2759 
Q 2391 3103 1925 3103 
Q 1463 3103 1205 2759 
Q 947 2416 947 1791 
Q 947 1169 1205 825 
Q 1463 481 1925 481 
Q 2391 481 2648 825 
Q 2906 1169 2906 1791 
z
M 3481 434 
Q 3481 -459 3084 -895 
Q 2688 -1331 1869 -1331 
Q 1566 -1331 1297 -1286 
Q 1028 -1241 775 -1147 
L 775 -588 
Q 1028 -725 1275 -790 
Q 1522 -856 1778 -856 
Q 2344 -856 2625 -561 
Q 2906 -266 2906 331 
L 2906 616 
Q 2728 306 2450 153 
Q 2172 0 1784 0 
Q 1141 0 747 490 
Q 353 981 353 1791 
Q 353 2603 747 3093 
Q 1141 3584 1784 3584 
Q 2172 3584 2450 3431 
Q 2728 3278 2906 2969 
L 2906 3500 
L 3481 3500 
L 3481 434 
z
" transform="scale(0.015625)"/>
       <path id="DejaVuSans-61" d="M 2194 1759 
Q 1497 1759 1228 1600 
Q 959 1441 959 1056 
Q 959 750 1161 570 
Q 1363 391 1709 391 
Q 2188 391 2477 730 
Q 2766 1069 2766 1631 
L 2766 1759 
L 2194 1759 
z
M 3341 1997 
L 3341 0 
L 2766 0 
L 2766 531 
Q 2569 213 2275 61 
Q 1981 -91 1556 -91 
Q 1019 -91 701 211 
Q 384 513 384 1019 
Q 384 1609 779 1909 
Q 1175 2209 1959 2209 
L 2766 2209 
L 2766 2266 
Q 2766 2663 2505 2880 
Q 2244 3097 1772 3097 
Q 1472 3097 1187 3025 
Q 903 2953 641 2809 
L 641 3341 
Q 956 3463 1253 3523 
Q 1550 3584 1831 3584 
Q 2591 3584 2966 3190 
Q 3341 2797 3341 1997 
z
" transform="scale(0.015625)"/>
       <path id="DejaVuSans-6c" d="M 603 4863 
L 1178 4863 
L 1178 0 
L 603 0 
L 603 4863 
z
" transform="scale(0.015625)"/>
       <path id="DejaVuSans-Oblique-6d" d="M 5747 2113 
L 5338 0 
L 4763 0 
L 5166 2094 
Q 5191 2228 5203 2325 
Q 5216 2422 5216 2491 
Q 5216 2772 5059 2928 
Q 4903 3084 4622 3084 
Q 4203 3084 3875 2770 
Q 3547 2456 3450 1953 
L 3066 0 
L 2491 0 
L 2900 2094 
Q 2925 2209 2937 2307 
Q 2950 2406 2950 2484 
Q 2950 2769 2794 2926 
Q 2638 3084 2363 3084 
Q 1938 3084 1609 2770 
Q 1281 2456 1184 1953 
L 800 0 
L 225 0 
L 909 3500 
L 1484 3500 
L 1375 2956 
Q 1609 3263 1923 3423 
Q 2238 3584 2597 3584 
Q 2978 3584 3223 3384 
Q 3469 3184 3519 2828 
Q 3781 3197 4126 3390 
Q 4472 3584 4856 3584 
Q 5306 3584 5551 3325 
Q 5797 3066 5797 2591 
Q 5797 2488 5784 2364 
Q 5772 2241 5747 2113 
z
" transform="scale(0.015625)"/>
       <path id="DejaVuSans-Oblique-57" d="M 616 4666 
L 1228 4666 
L 1453 697 
L 3213 4666 
L 3916 4666 
L 4147 697 
L 5888 4666 
L 6528 4666 
L 4453 0 
L 3659 0 
L 3444 3891 
L 1697 0 
L 903 0 
L 616 4666 
z
" transform="scale(0.015625)"/>
      </defs>
      <use xlink:href="#DejaVuSans-41" transform="translate(0 0.015625)"/>
      <use xlink:href="#DejaVuSans-75" transform="translate(68.408203 0.015625)"/>
      <use xlink:href="#DejaVuSans-73" transform="translate(131.787109 0.015625)"/>
      <use xlink:href="#DejaVuSans-67" transform="translate(183.886719 0.015625)"/>
      <use xlink:href="#DejaVuSans-61" transform="translate(247.363281 0.015625)"/>
      <use xlink:href="#DejaVuSans-6e" transform="translate(308.642578 0.015625)"/>
      <use xlink:href="#DejaVuSans-67" transform="translate(372.021484 0.015625)"/>
      <use xlink:href="#DejaVuSans-73" transform="translate(435.498047 0.015625)"/>
      <use xlink:href="#DejaVuSans-6c" transform="translate(487.597656 0.015625)"/>
      <use xlink:href="#DejaVuSans-65" transform="translate(515.380859 0.015625)"/>
      <use xlink:href="#DejaVuSans-69" transform="translate(576.904297 0.015625)"/>
      <use xlink:href="#DejaVuSans-73" transform="translate(604.6875 0.015625)"/>
      <use xlink:href="#DejaVuSans-74" transform="translate(656.787109 0.015625)"/>
      <use xlink:href="#DejaVuSans-75" transform="translate(695.996094 0.015625)"/>
      <use xlink:href="#DejaVuSans-6e" transform="translate(759.375 0.015625)"/>
      <use xlink:href="#DejaVuSans-67" transform="translate(822.753906 0.015625)"/>
      <use xlink:href="#DejaVuSans-20" transform="translate(886.230469 0.015625)"/>
      <use xlink:href="#DejaVuSans-69" transform="translate(918.017578 0.015625)"/>
      <use xlink:href="#DejaVuSans-6e" transform="translate(945.800781 0.015625)"/>
      <use xlink:href="#DejaVuSans-20" transform="translate(1009.179688 0.015625)"/>
      <use xlink:href="#DejaVuSans-Oblique-6d" transform="translate(1040.966797 0.015625)"/>
      <use xlink:href="#DejaVuSans-Oblique-57" transform="translate(1138.378906 0.015625)"/>
     </g>
    </g>
   </g>
   <g id="LineCollection_1">
    <path d="M 73.832727 81.304051 
L 75.152735 81.304051 
" clip-path="url(#p97e10b43a6)" style="fill: none; stroke: #1f77b4; stroke-width: 1.5"/>
    <path d="M 106.166181 76.681376 
L 107.486189 76.681376 
" clip-path="url(#p97e10b43a6)" style="fill: none; stroke: #1f77b4; stroke-width: 1.5"/>
    <path d="M 138.499635 62.81335 
L 139.819643 62.81335 
" clip-path="url(#p97e10b43a6)" style="fill: none; stroke: #1f77b4; stroke-width: 1.5"/>
    <path d="M 170.833089 56.649783 
L 172.153096 56.649783 
" clip-path="url(#p97e10b43a6)" style="fill: none; stroke: #1f77b4; stroke-width: 1.5"/>
    <path d="M 203.166542 70.517809 
L 204.48655 70.517809 
" clip-path="url(#p97e10b43a6)" style="fill: none; stroke: #1f77b4; stroke-width: 1.5"/>
    <path d="M 235.499996 95.172076 
L 236.820004 95.172076 
" clip-path="url(#p97e10b43a6)" style="fill: none; stroke: #1f77b4; stroke-width: 1.5"/>
    <path d="M 267.83345 96.712968 
L 269.153458 96.712968 
" clip-path="url(#p97e10b43a6)" style="fill: none; stroke: #1f77b4; stroke-width: 1.5"/>
    <path d="M 300.166904 110.580994 
L 301.486911 110.580994 
" clip-path="url(#p97e10b43a6)" style="fill: none; stroke: #1f77b4; stroke-width: 1.5"/>
    <path d="M 332.500357 164.512204 
L 333.820365 164.512204 
" clip-path="url(#p97e10b43a6)" style="fill: none; stroke: #1f77b4; stroke-width: 1.5"/>
    <path d="M 364.833811 218.443414 
L 366.153819 218.443414 
" clip-path="url(#p97e10b43a6)" style="fill: none; stroke: #1f77b4; stroke-width: 1.5"/>
    <path d="M 397.167265 292.406217 
L 398.487273 292.406217 
" clip-path="url(#p97e10b43a6)" style="fill: none; stroke: #1f77b4; stroke-width: 1.5"/>
   </g>
   <g id="LineCollection_2">
    <path d="M 74.492731 84.385834 
L 74.492731 78.222268 
" clip-path="url(#p97e10b43a6)" style="fill: none; stroke: #1f77b4; stroke-width: 1.5"/>
    <path d="M 106.826185 79.763159 
L 106.826185 73.599592 
" clip-path="url(#p97e10b43a6)" style="fill: none; stroke: #1f77b4; stroke-width: 1.5"/>
    <path d="M 139.159639 65.895134 
L 139.159639 59.731567 
" clip-path="url(#p97e10b43a6)" style="fill: none; stroke: #1f77b4; stroke-width: 1.5"/>
    <path d="M 171.493092 59.731567 
L 171.493092 53.568 
" clip-path="url(#p97e10b43a6)" style="fill: none; stroke: #1f77b4; stroke-width: 1.5"/>
    <path d="M 203.826546 73.599592 
L 203.826546 67.436025 
" clip-path="url(#p97e10b43a6)" style="fill: none; stroke: #1f77b4; stroke-width: 1.5"/>
    <path d="M 236.16 98.25386 
L 236.16 92.090293 
" clip-path="url(#p97e10b43a6)" style="fill: none; stroke: #1f77b4; stroke-width: 1.5"/>
    <path d="M 268.493454 99.794752 
L 268.493454 93.631185 
" clip-path="url(#p97e10b43a6)" style="fill: none; stroke: #1f77b4; stroke-width: 1.5"/>
    <path d="M 300.826908 113.662777 
L 300.826908 107.49921 
" clip-path="url(#p97e10b43a6)" style="fill: none; stroke: #1f77b4; stroke-width: 1.5"/>
    <path d="M 333.160361 167.593987 
L 333.160361 161.43042 
" clip-path="url(#p97e10b43a6)" style="fill: none; stroke: #1f77b4; stroke-width: 1.5"/>
    <path d="M 365.493815 221.525197 
L 365.493815 215.361631 
" clip-path="url(#p97e10b43a6)" style="fill: none; stroke: #1f77b4; stroke-width: 1.5"/>
    <path d="M 397.827269 295.488 
L 397.827269 289.324433 
" clip-path="url(#p97e10b43a6)" style="fill: none; stroke: #1f77b4; stroke-width: 1.5"/>
   </g>
   <g id="line2d_14">
    <defs>
     <path id="m2603b55a53" d="M 0 5 
L 0 -5 
" style="stroke: #1f77b4"/>
    </defs>
    <g clip-path="url(#p97e10b43a6)">
     <use xlink:href="#m2603b55a53" x="73.832727" y="81.304051" style="fill: #1f77b4; stroke: #1f77b4"/>
     <use xlink:href="#m2603b55a53" x="106.166181" y="76.681376" style="fill: #1f77b4; stroke: #1f77b4"/>
     <use xlink:href="#m2603b55a53" x="138.499635" y="62.81335" style="fill: #1f77b4; stroke: #1f77b4"/>
     <use xlink:href="#m2603b55a53" x="170.833089" y="56.649783" style="fill: #1f77b4; stroke: #1f77b4"/>
     <use xlink:href="#m2603b55a53" x="203.166542" y="70.517809" style="fill: #1f77b4; stroke: #1f77b4"/>
     <use xlink:href="#m2603b55a53" x="235.499996" y="95.172076" style="fill: #1f77b4; stroke: #1f77b4"/>
     <use xlink:href="#m2603b55a53" x="267.83345" y="96.712968" style="fill: #1f77b4; stroke: #1f77b4"/>
     <use xlink:href="#m2603b55a53" x="300.166904" y="110.580994" style="fill: #1f77b4; stroke: #1f77b4"/>
     <use xlink:href="#m2603b55a53" x="332.500357" y="164.512204" style="fill: #1f77b4; stroke: #1f77b4"/>
     <use xlink:href="#m2603b55a53" x="364.833811" y="218.443414" style="fill: #1f77b4; stroke: #1f77b4"/>
     <use xlink:href="#m2603b55a53" x="397.167265" y="292.406217" style="fill: #1f77b4; stroke: #1f77b4"/>
    </g>
   </g>
   <g id="line2d_15">
    <g clip-path="url(#p97e10b43a6)">
     <use xlink:href="#m2603b55a53" x="75.152735" y="81.304051" style="fill: #1f77b4; stroke: #1f77b4"/>
     <use xlink:href="#m2603b55a53" x="107.486189" y="76.681376" style="fill: #1f77b4; stroke: #1f77b4"/>
     <use xlink:href="#m2603b55a53" x="139.819643" y="62.81335" style="fill: #1f77b4; stroke: #1f77b4"/>
     <use xlink:href="#m2603b55a53" x="172.153096" y="56.649783" style="fill: #1f77b4; stroke: #1f77b4"/>
     <use xlink:href="#m2603b55a53" x="204.48655" y="70.517809" style="fill: #1f77b4; stroke: #1f77b4"/>
     <use xlink:href="#m2603b55a53" x="236.820004" y="95.172076" style="fill: #1f77b4; stroke: #1f77b4"/>
     <use xlink:href="#m2603b55a53" x="269.153458" y="96.712968" style="fill: #1f77b4; stroke: #1f77b4"/>
     <use xlink:href="#m2603b55a53" x="301.486911" y="110.580994" style="fill: #1f77b4; stroke: #1f77b4"/>
     <use xlink:href="#m2603b55a53" x="333.820365" y="164.512204" style="fill: #1f77b4; stroke: #1f77b4"/>
     <use xlink:href="#m2603b55a53" x="366.153819" y="218.443414" style="fill: #1f77b4; stroke: #1f77b4"/>
     <use xlink:href="#m2603b55a53" x="398.487273" y="292.406217" style="fill: #1f77b4; stroke: #1f77b4"/>
    </g>
   </g>
   <g id="line2d_16">
    <defs>
     <path id="m5e653115c9" d="M 5 0 
L -5 -0 
" style="stroke: #1f77b4"/>
    </defs>
    <g clip-path="url(#p97e10b43a6)">
     <use xlink:href="#m5e653115c9" x="74.492731" y="84.385834" style="fill: #1f77b4; stroke: #1f77b4"/>
     <use xlink:href="#m5e653115c9" x="106.826185" y="79.763159" style="fill: #1f77b4; stroke: #1f77b4"/>
     <use xlink:href="#m5e653115c9" x="139.159639" y="65.895134" style="fill: #1f77b4; stroke: #1f77b4"/>
     <use xlink:href="#m5e653115c9" x="171.493092" y="59.731567" style="fill: #1f77b4; stroke: #1f77b4"/>
     <use xlink:href="#m5e653115c9" x="203.826546" y="73.599592" style="fill: #1f77b4; stroke: #1f77b4"/>
     <use xlink:href="#m5e653115c9" x="236.16" y="98.25386" style="fill: #1f77b4; stroke: #1f77b4"/>
     <use xlink:href="#m5e653115c9" x="268.493454" y="99.794752" style="fill: #1f77b4; stroke: #1f77b4"/>
     <use xlink:href="#m5e653115c9" x="300.826908" y="113.662777" style="fill: #1f77b4; stroke: #1f77b4"/>
     <use xlink:href="#m5e653115c9" x="333.160361" y="167.593987" style="fill: #1f77b4; stroke: #1f77b4"/>
     <use xlink:href="#m5e653115c9" x="365.493815" y="221.525197" style="fill: #1f77b4; stroke: #1f77b4"/>
     <use xlink:href="#m5e653115c9" x="397.827269" y="295.488" style="fill: #1f77b4; stroke: #1f77b4"/>
    </g>
   </g>
   <g id="line2d_17">
    <g clip-path="url(#p97e10b43a6)">
     <use xlink:href="#m5e653115c9" x="74.492731" y="78.222268" style="fill: #1f77b4; stroke: #1f77b4"/>
     <use xlink:href="#m5e653115c9" x="106.826185" y="73.599592" style="fill: #1f77b4; stroke: #1f77b4"/>
     <use xlink:href="#m5e653115c9" x="139.159639" y="59.731567" style="fill: #1f77b4; stroke: #1f77b4"/>
     <use xlink:href="#m5e653115c9" x="171.493092" y="53.568" style="fill: #1f77b4; stroke: #1f77b4"/>
     <use xlink:href="#m5e653115c9" x="203.826546" y="67.436025" style="fill: #1f77b4; stroke: #1f77b4"/>
     <use xlink:href="#m5e653115c9" x="236.16" y="92.090293" style="fill: #1f77b4; stroke: #1f77b4"/>
     <use xlink:href="#m5e653115c9" x="268.493454" y="93.631185" style="fill: #1f77b4; stroke: #1f77b4"/>
     <use xlink:href="#m5e653115c9" x="300.826908" y="107.49921" style="fill: #1f77b4; stroke: #1f77b4"/>
     <use xlink:href="#m5e653115c9" x="333.160361" y="161.43042" style="fill: #1f77b4; stroke: #1f77b4"/>
     <use xlink:href="#m5e653115c9" x="365.493815" y="215.361631" style="fill: #1f77b4; stroke: #1f77b4"/>
     <use xlink:href="#m5e653115c9" x="397.827269" y="289.324433" style="fill: #1f77b4; stroke: #1f77b4"/>
    </g>
   </g>
   <g id="line2d_18">
    <defs>
     <path id="m0f1d52c054" d="M 0 3 
C 0.795609 3 1.55874 2.683901 2.12132 2.12132 
C 2.683901 1.55874 3 0.795609 3 0 
C 3 -0.795609 2.683901 -1.55874 2.12132 -2.12132 
C 1.55874 -2.683901 0.795609 -3 0 -3 
C -0.795609 -3 -1.55874 -2.683901 -2.12132 -2.12132 
C -2.683901 -1.55874 -3 -0.795609 -3 0 
C -3 0.795609 -2.683901 1.55874 -2.12132 2.12132 
C -1.55874 2.683901 -0.795609 3 0 3 
z
" style="stroke: #1f77b4"/>
    </defs>
    <g clip-path="url(#p97e10b43a6)">
     <use xlink:href="#m0f1d52c054" x="74.492731" y="81.304051" style="fill: #1f77b4; stroke: #1f77b4"/>
     <use xlink:href="#m0f1d52c054" x="106.826185" y="76.681376" style="fill: #1f77b4; stroke: #1f77b4"/>
     <use xlink:href="#m0f1d52c054" x="139.159639" y="62.81335" style="fill: #1f77b4; stroke: #1f77b4"/>
     <use xlink:href="#m0f1d52c054" x="171.493092" y="56.649783" style="fill: #1f77b4; stroke: #1f77b4"/>
     <use xlink:href="#m0f1d52c054" x="203.826546" y="70.517809" style="fill: #1f77b4; stroke: #1f77b4"/>
     <use xlink:href="#m0f1d52c054" x="236.16" y="95.172076" style="fill: #1f77b4; stroke: #1f77b4"/>
     <use xlink:href="#m0f1d52c054" x="268.493454" y="96.712968" style="fill: #1f77b4; stroke: #1f77b4"/>
     <use xlink:href="#m0f1d52c054" x="300.826908" y="110.580994" style="fill: #1f77b4; stroke: #1f77b4"/>
     <use xlink:href="#m0f1d52c054" x="333.160361" y="164.512204" style="fill: #1f77b4; stroke: #1f77b4"/>
     <use xlink:href="#m0f1d52c054" x="365.493815" y="218.443414" style="fill: #1f77b4; stroke: #1f77b4"/>
     <use xlink:href="#m0f1d52c054" x="397.827269" y="292.406217" style="fill: #1f77b4; stroke: #1f77b4"/>
    </g>
   </g>
   <g id="patch_3">
    <path d="M 57.6 307.584 
L 57.6 41.472 
" style="fill: none; stroke: #000000; stroke-width: 0.8; stroke-linejoin: miter; stroke-linecap: square"/>
   </g>
   <g id="patch_4">
    <path d="M 414.72 307.584 
L 414.72 41.472 
" style="fill: none; stroke: #000000; stroke-width: 0.8; stroke-linejoin: miter; stroke-linecap: square"/>
   </g>
   <g id="patch_5">
    <path d="M 57.6 307.584 
L 414.72 307.584 
" style="fill: none; stroke: #000000; stroke-width: 0.8; stroke-linejoin: miter; stroke-linecap: square"/>
   </g>
   <g id="patch_6">
    <path d="M 57.6 41.472 
L 414.72 41.472 
" style="fill: none; stroke: #000000; stroke-width: 0.8; stroke-linejoin: miter; stroke-linecap: square"/>
   </g>
  </g>
 </g>
 <defs>
  <clipPath id="p97e10b43a6">
   <rect x="57.6" y="41.472" width="357.12" height="266.112"/>
  </clipPath>
 </defs>
</svg>
