<?xml version="1.0" encoding="utf-8" standalone="no"?>
<!DOCTYPE svg PUBLIC "-//W3C//DTD SVG 1.1//EN"
  "http://www.w3.org/Graphics/SVG/1.1/DTD/svg11.dtd">
<svg xmlns:xlink="http://www.w3.org/1999/xlink" width="460.8pt" height="345.6pt" viewBox="0 0 460.8 345.6" xmlns="http://www.w3.org/2000/svg" version="1.1">
 <metadata>
  <rdf:RDF xmlns:dc="http://purl.org/dc/elements/1.1/" xmlns:cc="http://creativecommons.org/ns#" xmlns:rdf="http://www.w3.org/1999/02/22-rdf-syntax-ns#">
   <cc:Work>
    <dc:type rdf:resource="http://purl.org/dc/dcmitype/StillImage"/>
    <dc:date>2022-12-13T15:10:10.129352</dc:date>
    <dc:format>image/svg+xml</dc:format>
    <dc:creator>
     <cc:Agent>
      <dc:title>Matplotlib v3.6.2, https://matplotlib.org/</dc:title>
     </cc:Agent>
    </dc:creator>
   </cc:Work>
  </rdf:RDF>
 </metadata>
 <defs>
  <style type="text/css">*{stroke-linejoin: round; stroke-linecap: butt}</style>
 </defs>
 <g id="figure_1">
  <g id="patch_1">
   <path d="M 0 345.6 
L 460.8 345.6 
L 460.8 0 
L 0 0 
z
" style="fill: #ffffff"/>
  </g>
  <g id="axes_1">
   <g id="patch_2">
    <path d="M 57.6 307.584 
L 414.72 307.584 
L 414.72 41.472 
L 57.6 41.472 
z
" style="fill: #ffffff"/>
   </g>
   <g id="matplotlib.axis_1">
    <g id="xtick_1">
     <g id="line2d_1">
      <defs>
       <path id="m17e3d4e241" d="M 0 0 
L 0 3.5 
" style="stroke: #000000; stroke-width: 0.8"/>
      </defs>
      <g>
       <use xlink:href="#m17e3d4e241" x="98.806154" y="307.584" style="stroke: #000000; stroke-width: 0.8"/>
      </g>
     </g>
     <g id="text_1">
      <!-- 400 -->
      <g transform="translate(89.262404 322.182437) scale(0.1 -0.1)">
       <defs>
        <path id="DejaVuSans-34" d="M 2419 4116 
L 825 1625 
L 2419 1625 
L 2419 4116 
z
M 2253 4666 
L 3047 4666 
L 3047 1625 
L 3713 1625 
L 3713 1100 
L 3047 1100 
L 3047 0 
L 2419 0 
L 2419 1100 
L 313 1100 
L 313 1709 
L 2253 4666 
z
" transform="scale(0.015625)"/>
        <path id="DejaVuSans-30" d="M 2034 4250 
Q 1547 4250 1301 3770 
Q 1056 3291 1056 2328 
Q 1056 1369 1301 889 
Q 1547 409 2034 409 
Q 2525 409 2770 889 
Q 3016 1369 3016 2328 
Q 3016 3291 2770 3770 
Q 2525 4250 2034 4250 
z
M 2034 4750 
Q 2819 4750 3233 4129 
Q 3647 3509 3647 2328 
Q 3647 1150 3233 529 
Q 2819 -91 2034 -91 
Q 1250 -91 836 529 
Q 422 1150 422 2328 
Q 422 3509 836 4129 
Q 1250 4750 2034 4750 
z
" transform="scale(0.015625)"/>
       </defs>
       <use xlink:href="#DejaVuSans-34"/>
       <use xlink:href="#DejaVuSans-30" x="63.623047"/>
       <use xlink:href="#DejaVuSans-30" x="127.246094"/>
      </g>
     </g>
    </g>
    <g id="xtick_2">
     <g id="line2d_2">
      <g>
       <use xlink:href="#m17e3d4e241" x="148.753007" y="307.584" style="stroke: #000000; stroke-width: 0.8"/>
      </g>
     </g>
     <g id="text_2">
      <!-- 500 -->
      <g transform="translate(139.209257 322.182437) scale(0.1 -0.1)">
       <defs>
        <path id="DejaVuSans-35" d="M 691 4666 
L 3169 4666 
L 3169 4134 
L 1269 4134 
L 1269 2991 
Q 1406 3038 1543 3061 
Q 1681 3084 1819 3084 
Q 2600 3084 3056 2656 
Q 3513 2228 3513 1497 
Q 3513 744 3044 326 
Q 2575 -91 1722 -91 
Q 1428 -91 1123 -41 
Q 819 9 494 109 
L 494 744 
Q 775 591 1075 516 
Q 1375 441 1709 441 
Q 2250 441 2565 725 
Q 2881 1009 2881 1497 
Q 2881 1984 2565 2268 
Q 2250 2553 1709 2553 
Q 1456 2553 1204 2497 
Q 953 2441 691 2322 
L 691 4666 
z
" transform="scale(0.015625)"/>
       </defs>
       <use xlink:href="#DejaVuSans-35"/>
       <use xlink:href="#DejaVuSans-30" x="63.623047"/>
       <use xlink:href="#DejaVuSans-30" x="127.246094"/>
      </g>
     </g>
    </g>
    <g id="xtick_3">
     <g id="line2d_3">
      <g>
       <use xlink:href="#m17e3d4e241" x="198.69986" y="307.584" style="stroke: #000000; stroke-width: 0.8"/>
      </g>
     </g>
     <g id="text_3">
      <!-- 600 -->
      <g transform="translate(189.15611 322.182437) scale(0.1 -0.1)">
       <defs>
        <path id="DejaVuSans-36" d="M 2113 2584 
Q 1688 2584 1439 2293 
Q 1191 2003 1191 1497 
Q 1191 994 1439 701 
Q 1688 409 2113 409 
Q 2538 409 2786 701 
Q 3034 994 3034 1497 
Q 3034 2003 2786 2293 
Q 2538 2584 2113 2584 
z
M 3366 4563 
L 3366 3988 
Q 3128 4100 2886 4159 
Q 2644 4219 2406 4219 
Q 1781 4219 1451 3797 
Q 1122 3375 1075 2522 
Q 1259 2794 1537 2939 
Q 1816 3084 2150 3084 
Q 2853 3084 3261 2657 
Q 3669 2231 3669 1497 
Q 3669 778 3244 343 
Q 2819 -91 2113 -91 
Q 1303 -91 875 529 
Q 447 1150 447 2328 
Q 447 3434 972 4092 
Q 1497 4750 2381 4750 
Q 2619 4750 2861 4703 
Q 3103 4656 3366 4563 
z
" transform="scale(0.015625)"/>
       </defs>
       <use xlink:href="#DejaVuSans-36"/>
       <use xlink:href="#DejaVuSans-30" x="63.623047"/>
       <use xlink:href="#DejaVuSans-30" x="127.246094"/>
      </g>
     </g>
    </g>
    <g id="xtick_4">
     <g id="line2d_4">
      <g>
       <use xlink:href="#m17e3d4e241" x="248.646713" y="307.584" style="stroke: #000000; stroke-width: 0.8"/>
      </g>
     </g>
     <g id="text_4">
      <!-- 700 -->
      <g transform="translate(239.102963 322.182437) scale(0.1 -0.1)">
       <defs>
        <path id="DejaVuSans-37" d="M 525 4666 
L 3525 4666 
L 3525 4397 
L 1831 0 
L 1172 0 
L 2766 4134 
L 525 4134 
L 525 4666 
z
" transform="scale(0.015625)"/>
       </defs>
       <use xlink:href="#DejaVuSans-37"/>
       <use xlink:href="#DejaVuSans-30" x="63.623047"/>
       <use xlink:href="#DejaVuSans-30" x="127.246094"/>
      </g>
     </g>
    </g>
    <g id="xtick_5">
     <g id="line2d_5">
      <g>
       <use xlink:href="#m17e3d4e241" x="298.593566" y="307.584" style="stroke: #000000; stroke-width: 0.8"/>
      </g>
     </g>
     <g id="text_5">
      <!-- 800 -->
      <g transform="translate(289.049816 322.182437) scale(0.1 -0.1)">
       <defs>
        <path id="DejaVuSans-38" d="M 2034 2216 
Q 1584 2216 1326 1975 
Q 1069 1734 1069 1313 
Q 1069 891 1326 650 
Q 1584 409 2034 409 
Q 2484 409 2743 651 
Q 3003 894 3003 1313 
Q 3003 1734 2745 1975 
Q 2488 2216 2034 2216 
z
M 1403 2484 
Q 997 2584 770 2862 
Q 544 3141 544 3541 
Q 544 4100 942 4425 
Q 1341 4750 2034 4750 
Q 2731 4750 3128 4425 
Q 3525 4100 3525 3541 
Q 3525 3141 3298 2862 
Q 3072 2584 2669 2484 
Q 3125 2378 3379 2068 
Q 3634 1759 3634 1313 
Q 3634 634 3220 271 
Q 2806 -91 2034 -91 
Q 1263 -91 848 271 
Q 434 634 434 1313 
Q 434 1759 690 2068 
Q 947 2378 1403 2484 
z
M 1172 3481 
Q 1172 3119 1398 2916 
Q 1625 2713 2034 2713 
Q 2441 2713 2670 2916 
Q 2900 3119 2900 3481 
Q 2900 3844 2670 4047 
Q 2441 4250 2034 4250 
Q 1625 4250 1398 4047 
Q 1172 3844 1172 3481 
z
" transform="scale(0.015625)"/>
       </defs>
       <use xlink:href="#DejaVuSans-38"/>
       <use xlink:href="#DejaVuSans-30" x="63.623047"/>
       <use xlink:href="#DejaVuSans-30" x="127.246094"/>
      </g>
     </g>
    </g>
    <g id="xtick_6">
     <g id="line2d_6">
      <g>
       <use xlink:href="#m17e3d4e241" x="348.54042" y="307.584" style="stroke: #000000; stroke-width: 0.8"/>
      </g>
     </g>
     <g id="text_6">
      <!-- 900 -->
      <g transform="translate(338.99667 322.182437) scale(0.1 -0.1)">
       <defs>
        <path id="DejaVuSans-39" d="M 703 97 
L 703 672 
Q 941 559 1184 500 
Q 1428 441 1663 441 
Q 2288 441 2617 861 
Q 2947 1281 2994 2138 
Q 2813 1869 2534 1725 
Q 2256 1581 1919 1581 
Q 1219 1581 811 2004 
Q 403 2428 403 3163 
Q 403 3881 828 4315 
Q 1253 4750 1959 4750 
Q 2769 4750 3195 4129 
Q 3622 3509 3622 2328 
Q 3622 1225 3098 567 
Q 2575 -91 1691 -91 
Q 1453 -91 1209 -44 
Q 966 3 703 97 
z
M 1959 2075 
Q 2384 2075 2632 2365 
Q 2881 2656 2881 3163 
Q 2881 3666 2632 3958 
Q 2384 4250 1959 4250 
Q 1534 4250 1286 3958 
Q 1038 3666 1038 3163 
Q 1038 2656 1286 2365 
Q 1534 2075 1959 2075 
z
" transform="scale(0.015625)"/>
       </defs>
       <use xlink:href="#DejaVuSans-39"/>
       <use xlink:href="#DejaVuSans-30" x="63.623047"/>
       <use xlink:href="#DejaVuSans-30" x="127.246094"/>
      </g>
     </g>
    </g>
    <g id="xtick_7">
     <g id="line2d_7">
      <g>
       <use xlink:href="#m17e3d4e241" x="398.487273" y="307.584" style="stroke: #000000; stroke-width: 0.8"/>
      </g>
     </g>
     <g id="text_7">
      <!-- 1000 -->
      <g transform="translate(385.762273 322.182437) scale(0.1 -0.1)">
       <defs>
        <path id="DejaVuSans-31" d="M 794 531 
L 1825 531 
L 1825 4091 
L 703 3866 
L 703 4441 
L 1819 4666 
L 2450 4666 
L 2450 531 
L 3481 531 
L 3481 0 
L 794 0 
L 794 531 
z
" transform="scale(0.015625)"/>
       </defs>
       <use xlink:href="#DejaVuSans-31"/>
       <use xlink:href="#DejaVuSans-30" x="63.623047"/>
       <use xlink:href="#DejaVuSans-30" x="127.246094"/>
       <use xlink:href="#DejaVuSans-30" x="190.869141"/>
      </g>
     </g>
    </g>
    <g id="text_8">
     <!-- Wellenlänge in nm -->
     <g transform="translate(189.762344 335.860562) scale(0.1 -0.1)">
      <defs>
       <path id="DejaVuSans-57" d="M 213 4666 
L 850 4666 
L 1831 722 
L 2809 4666 
L 3519 4666 
L 4500 722 
L 5478 4666 
L 6119 4666 
L 4947 0 
L 4153 0 
L 3169 4050 
L 2175 0 
L 1381 0 
L 213 4666 
z
" transform="scale(0.015625)"/>
       <path id="DejaVuSans-65" d="M 3597 1894 
L 3597 1613 
L 953 1613 
Q 991 1019 1311 708 
Q 1631 397 2203 397 
Q 2534 397 2845 478 
Q 3156 559 3463 722 
L 3463 178 
Q 3153 47 2828 -22 
Q 2503 -91 2169 -91 
Q 1331 -91 842 396 
Q 353 884 353 1716 
Q 353 2575 817 3079 
Q 1281 3584 2069 3584 
Q 2775 3584 3186 3129 
Q 3597 2675 3597 1894 
z
M 3022 2063 
Q 3016 2534 2758 2815 
Q 2500 3097 2075 3097 
Q 1594 3097 1305 2825 
Q 1016 2553 972 2059 
L 3022 2063 
z
" transform="scale(0.015625)"/>
       <path id="DejaVuSans-6c" d="M 603 4863 
L 1178 4863 
L 1178 0 
L 603 0 
L 603 4863 
z
" transform="scale(0.015625)"/>
       <path id="DejaVuSans-6e" d="M 3513 2113 
L 3513 0 
L 2938 0 
L 2938 2094 
Q 2938 2591 2744 2837 
Q 2550 3084 2163 3084 
Q 1697 3084 1428 2787 
Q 1159 2491 1159 1978 
L 1159 0 
L 581 0 
L 581 3500 
L 1159 3500 
L 1159 2956 
Q 1366 3272 1645 3428 
Q 1925 3584 2291 3584 
Q 2894 3584 3203 3211 
Q 3513 2838 3513 2113 
z
" transform="scale(0.015625)"/>
       <path id="DejaVuSans-e4" d="M 2194 1759 
Q 1497 1759 1228 1600 
Q 959 1441 959 1056 
Q 959 750 1161 570 
Q 1363 391 1709 391 
Q 2188 391 2477 730 
Q 2766 1069 2766 1631 
L 2766 1759 
L 2194 1759 
z
M 3341 1997 
L 3341 0 
L 2766 0 
L 2766 531 
Q 2569 213 2275 61 
Q 1981 -91 1556 -91 
Q 1019 -91 701 211 
Q 384 513 384 1019 
Q 384 1609 779 1909 
Q 1175 2209 1959 2209 
L 2766 2209 
L 2766 2266 
Q 2766 2663 2505 2880 
Q 2244 3097 1772 3097 
Q 1472 3097 1187 3025 
Q 903 2953 641 2809 
L 641 3341 
Q 956 3463 1253 3523 
Q 1550 3584 1831 3584 
Q 2591 3584 2966 3190 
Q 3341 2797 3341 1997 
z
M 2150 4850 
L 2784 4850 
L 2784 4219 
L 2150 4219 
L 2150 4850 
z
M 928 4850 
L 1562 4850 
L 1562 4219 
L 928 4219 
L 928 4850 
z
" transform="scale(0.015625)"/>
       <path id="DejaVuSans-67" d="M 2906 1791 
Q 2906 2416 2648 2759 
Q 2391 3103 1925 3103 
Q 1463 3103 1205 2759 
Q 947 2416 947 1791 
Q 947 1169 1205 825 
Q 1463 481 1925 481 
Q 2391 481 2648 825 
Q 2906 1169 2906 1791 
z
M 3481 434 
Q 3481 -459 3084 -895 
Q 2688 -1331 1869 -1331 
Q 1566 -1331 1297 -1286 
Q 1028 -1241 775 -1147 
L 775 -588 
Q 1028 -725 1275 -790 
Q 1522 -856 1778 -856 
Q 2344 -856 2625 -561 
Q 2906 -266 2906 331 
L 2906 616 
Q 2728 306 2450 153 
Q 2172 0 1784 0 
Q 1141 0 747 490 
Q 353 981 353 1791 
Q 353 2603 747 3093 
Q 1141 3584 1784 3584 
Q 2172 3584 2450 3431 
Q 2728 3278 2906 2969 
L 2906 3500 
L 3481 3500 
L 3481 434 
z
" transform="scale(0.015625)"/>
       <path id="DejaVuSans-20" transform="scale(0.015625)"/>
       <path id="DejaVuSans-69" d="M 603 3500 
L 1178 3500 
L 1178 0 
L 603 0 
L 603 3500 
z
M 603 4863 
L 1178 4863 
L 1178 4134 
L 603 4134 
L 603 4863 
z
" transform="scale(0.015625)"/>
       <path id="DejaVuSans-6d" d="M 3328 2828 
Q 3544 3216 3844 3400 
Q 4144 3584 4550 3584 
Q 5097 3584 5394 3201 
Q 5691 2819 5691 2113 
L 5691 0 
L 5113 0 
L 5113 2094 
Q 5113 2597 4934 2840 
Q 4756 3084 4391 3084 
Q 3944 3084 3684 2787 
Q 3425 2491 3425 1978 
L 3425 0 
L 2847 0 
L 2847 2094 
Q 2847 2600 2669 2842 
Q 2491 3084 2119 3084 
Q 1678 3084 1418 2786 
Q 1159 2488 1159 1978 
L 1159 0 
L 581 0 
L 581 3500 
L 1159 3500 
L 1159 2956 
Q 1356 3278 1631 3431 
Q 1906 3584 2284 3584 
Q 2666 3584 2933 3390 
Q 3200 3197 3328 2828 
z
" transform="scale(0.015625)"/>
      </defs>
      <use xlink:href="#DejaVuSans-57"/>
      <use xlink:href="#DejaVuSans-65" x="93.001953"/>
      <use xlink:href="#DejaVuSans-6c" x="154.525391"/>
      <use xlink:href="#DejaVuSans-6c" x="182.308594"/>
      <use xlink:href="#DejaVuSans-65" x="210.091797"/>
      <use xlink:href="#DejaVuSans-6e" x="271.615234"/>
      <use xlink:href="#DejaVuSans-6c" x="334.994141"/>
      <use xlink:href="#DejaVuSans-e4" x="362.777344"/>
      <use xlink:href="#DejaVuSans-6e" x="424.056641"/>
      <use xlink:href="#DejaVuSans-67" x="487.435547"/>
      <use xlink:href="#DejaVuSans-65" x="550.912109"/>
      <use xlink:href="#DejaVuSans-20" x="612.435547"/>
      <use xlink:href="#DejaVuSans-69" x="644.222656"/>
      <use xlink:href="#DejaVuSans-6e" x="672.005859"/>
      <use xlink:href="#DejaVuSans-20" x="735.384766"/>
      <use xlink:href="#DejaVuSans-6e" x="767.171875"/>
      <use xlink:href="#DejaVuSans-6d" x="830.550781"/>
     </g>
    </g>
   </g>
   <g id="matplotlib.axis_2">
    <g id="ytick_1">
     <g id="line2d_8">
      <defs>
       <path id="m2e1b54b338" d="M 0 0 
L -3.5 0 
" style="stroke: #000000; stroke-width: 0.8"/>
      </defs>
      <g>
       <use xlink:href="#m2e1b54b338" x="57.6" y="294.754931" style="stroke: #000000; stroke-width: 0.8"/>
      </g>
     </g>
     <g id="text_9">
      <!-- 0 -->
      <g transform="translate(44.2375 298.55415) scale(0.1 -0.1)">
       <use xlink:href="#DejaVuSans-30"/>
      </g>
     </g>
    </g>
    <g id="ytick_2">
     <g id="line2d_9">
      <g>
       <use xlink:href="#m2e1b54b338" x="57.6" y="264.235834" style="stroke: #000000; stroke-width: 0.8"/>
      </g>
     </g>
     <g id="text_10">
      <!-- 500 -->
      <g transform="translate(31.5125 268.035053) scale(0.1 -0.1)">
       <use xlink:href="#DejaVuSans-35"/>
       <use xlink:href="#DejaVuSans-30" x="63.623047"/>
       <use xlink:href="#DejaVuSans-30" x="127.246094"/>
      </g>
     </g>
    </g>
    <g id="ytick_3">
     <g id="line2d_10">
      <g>
       <use xlink:href="#m2e1b54b338" x="57.6" y="233.716737" style="stroke: #000000; stroke-width: 0.8"/>
      </g>
     </g>
     <g id="text_11">
      <!-- 1000 -->
      <g transform="translate(25.15 237.515956) scale(0.1 -0.1)">
       <use xlink:href="#DejaVuSans-31"/>
       <use xlink:href="#DejaVuSans-30" x="63.623047"/>
       <use xlink:href="#DejaVuSans-30" x="127.246094"/>
       <use xlink:href="#DejaVuSans-30" x="190.869141"/>
      </g>
     </g>
    </g>
    <g id="ytick_4">
     <g id="line2d_11">
      <g>
       <use xlink:href="#m2e1b54b338" x="57.6" y="203.19764" style="stroke: #000000; stroke-width: 0.8"/>
      </g>
     </g>
     <g id="text_12">
      <!-- 1500 -->
      <g transform="translate(25.15 206.996859) scale(0.1 -0.1)">
       <use xlink:href="#DejaVuSans-31"/>
       <use xlink:href="#DejaVuSans-35" x="63.623047"/>
       <use xlink:href="#DejaVuSans-30" x="127.246094"/>
       <use xlink:href="#DejaVuSans-30" x="190.869141"/>
      </g>
     </g>
    </g>
    <g id="ytick_5">
     <g id="line2d_12">
      <g>
       <use xlink:href="#m2e1b54b338" x="57.6" y="172.678543" style="stroke: #000000; stroke-width: 0.8"/>
      </g>
     </g>
     <g id="text_13">
      <!-- 2000 -->
      <g transform="translate(25.15 176.477761) scale(0.1 -0.1)">
       <defs>
        <path id="DejaVuSans-32" d="M 1228 531 
L 3431 531 
L 3431 0 
L 469 0 
L 469 531 
Q 828 903 1448 1529 
Q 2069 2156 2228 2338 
Q 2531 2678 2651 2914 
Q 2772 3150 2772 3378 
Q 2772 3750 2511 3984 
Q 2250 4219 1831 4219 
Q 1534 4219 1204 4116 
Q 875 4013 500 3803 
L 500 4441 
Q 881 4594 1212 4672 
Q 1544 4750 1819 4750 
Q 2544 4750 2975 4387 
Q 3406 4025 3406 3419 
Q 3406 3131 3298 2873 
Q 3191 2616 2906 2266 
Q 2828 2175 2409 1742 
Q 1991 1309 1228 531 
z
" transform="scale(0.015625)"/>
       </defs>
       <use xlink:href="#DejaVuSans-32"/>
       <use xlink:href="#DejaVuSans-30" x="63.623047"/>
       <use xlink:href="#DejaVuSans-30" x="127.246094"/>
       <use xlink:href="#DejaVuSans-30" x="190.869141"/>
      </g>
     </g>
    </g>
    <g id="ytick_6">
     <g id="line2d_13">
      <g>
       <use xlink:href="#m2e1b54b338" x="57.6" y="142.159446" style="stroke: #000000; stroke-width: 0.8"/>
      </g>
     </g>
     <g id="text_14">
      <!-- 2500 -->
      <g transform="translate(25.15 145.958664) scale(0.1 -0.1)">
       <use xlink:href="#DejaVuSans-32"/>
       <use xlink:href="#DejaVuSans-35" x="63.623047"/>
       <use xlink:href="#DejaVuSans-30" x="127.246094"/>
       <use xlink:href="#DejaVuSans-30" x="190.869141"/>
      </g>
     </g>
    </g>
    <g id="ytick_7">
     <g id="line2d_14">
      <g>
       <use xlink:href="#m2e1b54b338" x="57.6" y="111.640348" style="stroke: #000000; stroke-width: 0.8"/>
      </g>
     </g>
     <g id="text_15">
      <!-- 3000 -->
      <g transform="translate(25.15 115.439567) scale(0.1 -0.1)">
       <defs>
        <path id="DejaVuSans-33" d="M 2597 2516 
Q 3050 2419 3304 2112 
Q 3559 1806 3559 1356 
Q 3559 666 3084 287 
Q 2609 -91 1734 -91 
Q 1441 -91 1130 -33 
Q 819 25 488 141 
L 488 750 
Q 750 597 1062 519 
Q 1375 441 1716 441 
Q 2309 441 2620 675 
Q 2931 909 2931 1356 
Q 2931 1769 2642 2001 
Q 2353 2234 1838 2234 
L 1294 2234 
L 1294 2753 
L 1863 2753 
Q 2328 2753 2575 2939 
Q 2822 3125 2822 3475 
Q 2822 3834 2567 4026 
Q 2313 4219 1838 4219 
Q 1578 4219 1281 4162 
Q 984 4106 628 3988 
L 628 4550 
Q 988 4650 1302 4700 
Q 1616 4750 1894 4750 
Q 2613 4750 3031 4423 
Q 3450 4097 3450 3541 
Q 3450 3153 3228 2886 
Q 3006 2619 2597 2516 
z
" transform="scale(0.015625)"/>
       </defs>
       <use xlink:href="#DejaVuSans-33"/>
       <use xlink:href="#DejaVuSans-30" x="63.623047"/>
       <use xlink:href="#DejaVuSans-30" x="127.246094"/>
       <use xlink:href="#DejaVuSans-30" x="190.869141"/>
      </g>
     </g>
    </g>
    <g id="ytick_8">
     <g id="line2d_15">
      <g>
       <use xlink:href="#m2e1b54b338" x="57.6" y="81.121251" style="stroke: #000000; stroke-width: 0.8"/>
      </g>
     </g>
     <g id="text_16">
      <!-- 3500 -->
      <g transform="translate(25.15 84.92047) scale(0.1 -0.1)">
       <use xlink:href="#DejaVuSans-33"/>
       <use xlink:href="#DejaVuSans-35" x="63.623047"/>
       <use xlink:href="#DejaVuSans-30" x="127.246094"/>
       <use xlink:href="#DejaVuSans-30" x="190.869141"/>
      </g>
     </g>
    </g>
    <g id="ytick_9">
     <g id="line2d_16">
      <g>
       <use xlink:href="#m2e1b54b338" x="57.6" y="50.602154" style="stroke: #000000; stroke-width: 0.8"/>
      </g>
     </g>
     <g id="text_17">
      <!-- 4000 -->
      <g transform="translate(25.15 54.401373) scale(0.1 -0.1)">
       <use xlink:href="#DejaVuSans-34"/>
       <use xlink:href="#DejaVuSans-30" x="63.623047"/>
       <use xlink:href="#DejaVuSans-30" x="127.246094"/>
       <use xlink:href="#DejaVuSans-30" x="190.869141"/>
      </g>
     </g>
    </g>
    <g id="text_18">
     <!-- Intensität -->
     <g transform="translate(19.070312 198.355344) rotate(-90) scale(0.1 -0.1)">
      <defs>
       <path id="DejaVuSans-49" d="M 628 4666 
L 1259 4666 
L 1259 0 
L 628 0 
L 628 4666 
z
" transform="scale(0.015625)"/>
       <path id="DejaVuSans-74" d="M 1172 4494 
L 1172 3500 
L 2356 3500 
L 2356 3053 
L 1172 3053 
L 1172 1153 
Q 1172 725 1289 603 
Q 1406 481 1766 481 
L 2356 481 
L 2356 0 
L 1766 0 
Q 1100 0 847 248 
Q 594 497 594 1153 
L 594 3053 
L 172 3053 
L 172 3500 
L 594 3500 
L 594 4494 
L 1172 4494 
z
" transform="scale(0.015625)"/>
       <path id="DejaVuSans-73" d="M 2834 3397 
L 2834 2853 
Q 2591 2978 2328 3040 
Q 2066 3103 1784 3103 
Q 1356 3103 1142 2972 
Q 928 2841 928 2578 
Q 928 2378 1081 2264 
Q 1234 2150 1697 2047 
L 1894 2003 
Q 2506 1872 2764 1633 
Q 3022 1394 3022 966 
Q 3022 478 2636 193 
Q 2250 -91 1575 -91 
Q 1294 -91 989 -36 
Q 684 19 347 128 
L 347 722 
Q 666 556 975 473 
Q 1284 391 1588 391 
Q 1994 391 2212 530 
Q 2431 669 2431 922 
Q 2431 1156 2273 1281 
Q 2116 1406 1581 1522 
L 1381 1569 
Q 847 1681 609 1914 
Q 372 2147 372 2553 
Q 372 3047 722 3315 
Q 1072 3584 1716 3584 
Q 2034 3584 2315 3537 
Q 2597 3491 2834 3397 
z
" transform="scale(0.015625)"/>
      </defs>
      <use xlink:href="#DejaVuSans-49"/>
      <use xlink:href="#DejaVuSans-6e" x="29.492188"/>
      <use xlink:href="#DejaVuSans-74" x="92.871094"/>
      <use xlink:href="#DejaVuSans-65" x="132.080078"/>
      <use xlink:href="#DejaVuSans-6e" x="193.603516"/>
      <use xlink:href="#DejaVuSans-73" x="256.982422"/>
      <use xlink:href="#DejaVuSans-69" x="309.082031"/>
      <use xlink:href="#DejaVuSans-74" x="336.865234"/>
      <use xlink:href="#DejaVuSans-e4" x="376.074219"/>
      <use xlink:href="#DejaVuSans-74" x="437.353516"/>
     </g>
    </g>
   </g>
   <g id="line2d_17">
    <path d="M 73.832727 294.189107 
L 74.332196 294.223899 
L 74.831664 293.462142 
L 75.331133 294.909358 
L 75.830601 294.552895 
L 76.33007 294.815359 
L 76.829538 294.220237 
L 77.329007 294.432039 
L 77.828476 294.775684 
L 78.327944 294.034681 
L 78.827413 294.601725 
L 79.326881 294.670088 
L 79.82635 295.124823 
L 80.825287 294.423494 
L 81.324755 294.903254 
L 81.824224 294.775684 
L 82.323692 294.307521 
L 82.823161 294.511999 
L 83.322629 294.869073 
L 83.822098 294.693283 
L 84.321566 294.324002 
L 84.821035 294.746996 
L 85.320503 294.310573 
L 85.819972 294.611492 
L 86.319441 294.5297 
L 86.818909 294.7531 
L 87.318378 294.725633 
L 87.817846 294.889826 
L 88.317315 294.931942 
L 89.316252 294.540077 
L 89.81572 293.757567 
L 90.315189 294.781178 
L 90.814657 294.541908 
L 91.314126 294.122576 
L 91.813594 294.019421 
L 92.313063 293.342507 
L 92.812531 275.360045 
L 93.312 229.606425 
L 93.811469 293.639153 
L 94.810406 294.551064 
L 95.309874 294.32156 
L 95.809343 294.765308 
L 96.308811 294.565103 
L 96.80828 292.913409 
L 97.307748 293.512804 
L 97.807217 294.569986 
L 98.306685 295.254834 
L 98.806154 295.055239 
L 99.305622 294.521765 
L 99.805091 290.715424 
L 100.304559 290.326 
L 100.804028 294.501012 
L 101.303497 294.856865 
L 101.802965 294.526648 
L 102.302434 294.391144 
L 102.801902 294.761035 
L 103.301371 294.837943 
L 103.800839 294.759204 
L 104.300308 295.21577 
L 104.799776 292.508115 
L 105.299245 294.515662 
L 105.798713 294.165302 
L 106.298182 294.08229 
L 106.79765 295.166329 
L 107.297119 294.394196 
L 107.796587 294.610271 
L 108.296056 294.622478 
L 109.294993 294.054213 
L 109.794462 294.475376 
L 110.793399 294.667647 
L 111.292867 294.812918 
L 112.791273 294.073135 
L 113.290741 294.447909 
L 113.79021 294.44852 
L 114.289678 294.203146 
L 114.789147 294.568765 
L 115.288615 294.685958 
L 115.788084 294.258691 
L 116.287552 295.251782 
L 116.787021 293.958993 
L 117.28649 294.742113 
L 117.785958 293.768554 
L 118.285427 289.742475 
L 118.784895 294.200094 
L 119.284364 294.525428 
L 119.783832 293.033654 
L 120.283301 293.023278 
L 120.782769 292.429986 
L 121.282238 294.328274 
L 121.781706 294.771412 
L 122.281175 215.773949 
L 122.780643 277.370033 
L 123.280112 293.592764 
L 123.77958 294.532142 
L 124.279049 294.349638 
L 124.778517 294.388092 
L 125.277986 294.136004 
L 125.777455 292.24382 
L 126.276923 294.172017 
L 126.776392 294.695114 
L 127.27586 294.250756 
L 127.775329 293.603141 
L 128.274797 294.254418 
L 128.774266 293.749632 
L 129.273734 294.562661 
L 130.272671 293.933357 
L 131.271608 294.418611 
L 131.771077 294.060927 
L 132.270545 294.505285 
L 132.770014 293.993175 
L 133.269483 294.142108 
L 133.768951 291.641983 
L 134.26842 262.236223 
L 134.767888 272.985659 
L 135.267357 293.613517 
L 135.766825 294.301418 
L 136.266294 292.117471 
L 137.265231 294.546181 
L 137.764699 294.667036 
L 138.264168 293.294898 
L 138.763636 294.146991 
L 139.263105 292.636296 
L 139.762573 292.744944 
L 140.262042 293.432234 
L 140.76151 291.705463 
L 141.260979 293.814943 
L 141.760448 292.662542 
L 142.259916 292.783398 
L 142.759385 293.255833 
L 143.258853 292.988486 
L 143.758322 294.01759 
L 144.25779 294.580972 
L 144.757259 262.649451 
L 145.756196 292.367117 
L 146.255664 292.939655 
L 146.755133 292.955525 
L 147.254601 293.646478 
L 147.75407 293.549427 
L 148.253538 293.958383 
L 148.753007 293.255223 
L 149.252476 242.932894 
L 149.751944 145.98532 
L 150.251413 273.506925 
L 150.750881 268.771582 
L 151.25035 270.151656 
L 151.749818 290.703826 
L 152.249287 292.204756 
L 152.748755 282.250647 
L 153.248224 290.903421 
L 153.747692 293.926643 
L 154.247161 292.581972 
L 154.746629 285.181091 
L 155.246098 291.914214 
L 155.745566 292.27556 
L 156.245035 285.927588 
L 157.243972 293.87415 
L 157.743441 294.101823 
L 158.242909 285.364815 
L 158.742378 287.435231 
L 159.241846 285.773771 
L 159.741315 291.150626 
L 160.740252 293.902228 
L 161.23972 294.093277 
L 161.739189 294.662764 
L 162.238657 294.649335 
L 162.738126 293.662348 
L 163.237594 294.268457 
L 163.737063 292.572816 
L 164.236531 293.37852 
L 164.736 293.424299 
L 165.235469 271.065398 
L 165.734937 258.688683 
L 166.234406 278.506564 
L 166.733874 289.301169 
L 167.233343 291.422856 
L 168.23228 294.228782 
L 168.731748 291.795189 
L 169.231217 293.353494 
L 169.730685 293.048303 
L 170.230154 287.035431 
L 170.729622 288.218961 
L 171.229091 293.153899 
L 171.728559 294.543739 
L 172.228028 294.482091 
L 172.727497 294.59318 
L 173.226965 294.319729 
L 173.726434 294.196432 
L 174.225902 294.690231 
L 174.725371 294.451571 
L 175.224839 293.926643 
L 175.724308 293.832034 
L 176.223776 294.174458 
L 176.723245 291.914214 
L 177.222713 293.246678 
L 177.722182 294.083511 
L 178.22165 293.733152 
L 178.721119 294.379546 
L 179.220587 294.058485 
L 179.720056 294.68901 
L 180.718993 294.281275 
L 181.218462 291.891019 
L 181.71793 286.198597 
L 182.217399 291.878201 
L 182.716867 293.760009 
L 183.216336 286.259025 
L 183.715804 291.112172 
L 184.215273 293.530505 
L 184.714741 290.443193 
L 185.21421 292.735177 
L 185.713678 292.375052 
L 186.213147 275.225151 
L 186.712615 243.204514 
L 187.212084 239.285862 
L 187.711552 279.246957 
L 188.211021 291.978304 
L 188.71049 284.134285 
L 189.209958 283.345062 
L 189.709427 244.760988 
L 190.208895 275.686599 
L 190.708364 288.063924 
L 191.207832 107.174794 
L 191.707301 198.440323 
L 192.206769 65.519278 
L 192.706238 54.912671 
L 193.205706 95.627589 
L 193.705175 243.690378 
L 194.204643 263.154848 
L 194.704112 277.868104 
L 195.20358 288.18539 
L 195.703049 195.186987 
L 196.202517 191.018079 
L 196.701986 252.444476 
L 197.201455 249.460318 
L 197.700923 244.955089 
L 198.200392 260.377 
L 198.69986 283.337737 
L 199.199329 290.868019 
L 199.698797 293.860722 
L 200.198266 245.156515 
L 200.697734 274.592795 
L 201.197203 282.172518 
L 201.696671 292.172405 
L 202.19614 204.719932 
L 202.695608 223.390295 
L 203.694545 104.484231 
L 204.194014 225.528463 
L 204.693483 263.480792 
L 205.192951 281.701913 
L 205.69242 53.568 
L 206.191888 88.758961 
L 206.691357 151.21202 
L 207.190825 233.301067 
L 207.690294 250.541305 
L 208.189762 280.866911 
L 208.689231 286.763201 
L 209.188699 271.999282 
L 209.688168 245.440343 
L 210.187636 278.037791 
L 210.687105 287.102573 
L 211.186573 288.405128 
L 212.18551 151.928609 
L 212.684979 248.078414 
L 213.184448 267.279809 
L 213.683916 249.811288 
L 214.183385 258.853486 
L 214.682853 264.467779 
L 215.182322 80.713516 
L 215.68179 176.574 
L 216.181259 237.42969 
L 216.680727 279.892131 
L 217.180196 288.356908 
L 217.679664 113.822464 
L 218.179133 211.993244 
L 218.678601 58.053087 
L 219.17807 55.864257 
L 219.677538 59.438654 
L 220.177007 266.216524 
L 220.676476 286.031963 
L 221.175944 289.108288 
L 221.675413 291.446051 
L 222.174881 292.58014 
L 222.67435 291.703632 
L 223.173818 291.248287 
L 223.673287 152.216709 
L 224.172755 60.547107 
L 224.672224 215.651263 
L 225.171692 209.498613 
L 225.671161 268.953476 
L 226.170629 281.40954 
L 226.670098 290.636684 
L 227.169566 292.625309 
L 227.669035 293.295508 
L 228.168503 272.980776 
L 228.667972 153.212852 
L 229.167441 254.709603 
L 230.166378 291.169548 
L 230.665846 292.617984 
L 231.664783 290.792942 
L 232.164252 202.865592 
L 232.66372 56.550937 
L 233.662657 230.246105 
L 234.162126 230.437765 
L 234.661594 199.448674 
L 235.161063 262.506012 
L 236.16 292.592348 
L 236.659469 292.8835 
L 237.158937 294.14638 
L 238.157874 294.294093 
L 239.156811 293.855228 
L 239.65628 294.57731 
L 241.154685 294.438143 
L 241.654154 293.956552 
L 242.153622 293.837527 
L 242.653091 294.233665 
L 243.152559 294.01698 
L 243.652028 294.268457 
L 244.151497 293.89002 
L 244.650965 278.697003 
L 245.150434 156.770769 
L 245.649902 257.000977 
L 246.648839 289.339623 
L 247.148308 293.194795 
L 247.647776 295.221263 
L 248.147245 293.254612 
L 248.646713 293.39439 
L 249.146182 292.585634 
L 249.64565 291.44544 
L 250.145119 60.772948 
L 250.644587 214.788793 
L 251.144056 238.203655 
L 251.643524 92.395006 
L 252.642462 241.447224 
L 253.641399 291.479622 
L 254.140867 293.277197 
L 254.640336 293.692256 
L 255.139804 294.345975 
L 255.639273 294.124407 
L 256.63821 294.096329 
L 257.137678 278.886832 
L 257.637147 287.934523 
L 258.136615 290.0379 
L 258.636084 293.030602 
L 259.135552 294.262353 
L 259.635021 294.103043 
L 260.13449 293.208834 
L 260.633958 220.07409 
L 261.133427 254.484983 
L 261.632895 271.817999 
L 262.132364 283.539773 
L 262.631832 208.326679 
L 263.131301 270.259083 
L 263.630769 276.802378 
L 264.130238 285.912938 
L 264.629706 292.937214 
L 265.628643 294.65666 
L 266.62758 294.556557 
L 267.127049 295.124212 
L 267.626517 294.472935 
L 268.125986 295.115057 
L 268.625455 294.515662 
L 269.124923 293.292456 
L 269.624392 294.751269 
L 270.12386 289.716839 
L 270.623329 277.346838 
L 271.122797 290.091003 
L 271.622266 291.512582 
L 272.121734 291.618789 
L 272.621203 288.750604 
L 273.120671 277.38102 
L 273.62014 289.589879 
L 274.119608 291.662736 
L 274.619077 292.94759 
L 275.118545 282.97517 
L 275.618014 281.021338 
L 276.117483 288.710319 
L 277.11642 293.263158 
L 277.615888 294.35269 
L 278.115357 294.612102 
L 278.614825 294.19338 
L 279.114294 295.122992 
L 279.613762 294.582804 
L 280.113231 294.389313 
L 280.612699 294.765918 
L 281.112168 294.458286 
L 281.611636 294.697555 
L 282.111105 294.566934 
L 282.610573 294.840385 
L 283.110042 294.507116 
L 283.60951 294.908748 
L 285.107916 294.459506 
L 285.607385 294.931942 
L 286.106853 294.569375 
L 287.10579 294.971006 
L 287.605259 294.670088 
L 288.104727 294.804983 
L 288.604196 294.546791 
L 289.103664 294.986266 
L 289.603133 294.520545 
L 290.102601 294.956968 
L 292.100476 294.670699 
L 292.599944 294.909358 
L 293.099413 294.509558 
L 293.598881 294.801931 
L 294.09835 294.494298 
L 294.597818 294.834281 
L 295.097287 294.572427 
L 295.596755 291.714008 
L 296.096224 293.803956 
L 296.595692 294.16225 
L 297.095161 294.051161 
L 298.094098 294.830008 
L 298.593566 294.581583 
L 299.093035 294.579141 
L 299.592503 295.165108 
L 300.091972 294.196432 
L 300.591441 294.618816 
L 301.090909 294.858696 
L 301.590378 294.472324 
L 302.089846 294.639569 
L 303.588252 294.387481 
L 304.08772 294.391754 
L 304.587189 293.763671 
L 305.086657 291.036484 
L 305.586126 292.709541 
L 306.085594 293.785034 
L 306.585063 293.814333 
L 307.084531 294.490026 
L 307.584 294.632855 
L 308.083469 294.62492 
L 308.582937 294.447299 
L 309.082406 294.14577 
L 309.581874 294.725633 
L 310.081343 294.341703 
L 310.580811 294.799489 
L 311.08028 293.956552 
L 311.579748 292.633244 
L 312.079217 293.181977 
L 312.578685 294.36917 
L 313.078154 293.435286 
L 313.577622 286.067365 
L 314.077091 292.831007 
L 314.576559 292.926837 
L 315.076028 293.717892 
L 315.575497 294.190938 
L 316.074965 294.180562 
L 316.574434 293.611076 
L 317.073902 276.504511 
L 317.573371 272.772636 
L 318.072839 286.837667 
L 318.572308 288.538191 
L 319.071776 288.826902 
L 319.571245 289.602087 
L 320.070713 293.31504 
L 320.570182 294.057265 
L 321.06965 293.686763 
L 321.569119 293.74597 
L 322.068587 294.750659 
L 322.568056 294.341703 
L 323.067524 281.66468 
L 323.566993 288.364843 
L 324.066462 291.399662 
L 324.56593 292.235885 
L 325.065399 292.711373 
L 326.064336 294.507727 
L 326.563804 294.972227 
L 327.063273 293.763671 
L 327.562741 293.698971 
L 328.06221 288.082236 
L 328.561678 292.718087 
L 329.061147 293.369364 
L 329.560615 293.725827 
L 330.060084 289.112561 
L 330.559552 292.312793 
L 331.059021 282.834172 
L 331.55849 289.44644 
L 332.057958 290.730683 
L 332.557427 289.514802 
L 333.056895 292.423272 
L 334.055832 293.672724 
L 334.555301 293.964487 
L 335.054769 294.930721 
L 335.554238 294.584635 
L 336.053706 294.52909 
L 336.553175 294.099991 
L 337.052643 292.486142 
L 337.552112 283.397554 
L 338.05158 290.350415 
L 338.551049 291.975862 
L 339.050517 292.160808 
L 339.549986 293.741697 
L 340.548923 294.314236 
L 341.048392 292.426935 
L 341.54786 292.837722 
L 342.047329 292.998862 
L 342.546797 293.551258 
L 343.046266 293.674555 
L 343.545734 294.470493 
L 344.045203 294.815969 
L 344.544671 294.206198 
L 345.04414 294.856865 
L 345.543608 294.364287 
L 346.043077 294.491857 
L 346.542545 294.804372 
L 347.541483 294.791554 
L 348.040951 294.409455 
L 348.54042 294.687179 
L 349.039888 294.230613 
L 349.539357 294.28921 
L 350.038825 294.994811 
L 351.037762 294.510779 
L 351.537231 294.916072 
L 352.036699 294.927669 
L 352.536168 294.814138 
L 353.035636 294.447299 
L 353.535105 294.962461 
L 354.034573 294.859307 
L 354.534042 294.469883 
L 355.03351 295.488 
L 355.532979 294.893488 
L 356.032448 293.922981 
L 357.031385 294.998474 
L 357.530853 294.379546 
L 358.030322 294.826346 
L 358.52979 294.450351 
L 359.029259 294.440585 
L 360.028196 293.987071 
L 360.527664 294.522376 
L 361.027133 293.977915 
L 361.526601 294.296534 
L 362.02607 294.43387 
L 362.525538 294.261132 
L 363.025007 294.281885 
L 364.023944 294.694503 
L 364.523413 294.914851 
L 365.022881 294.598674 
L 365.52235 294.469273 
L 366.021818 294.767749 
L 366.521287 294.524207 
L 367.020755 294.577921 
L 367.520224 294.793996 
L 368.019692 294.809255 
L 368.519161 294.596842 
L 369.018629 294.970396 
L 369.518098 294.488194 
L 370.517035 294.823294 
L 371.016503 294.303859 
L 371.515972 294.741503 
L 372.015441 294.623089 
L 372.514909 294.686569 
L 373.014378 294.916683 
L 373.513846 294.378326 
L 374.013315 294.574258 
L 374.512783 295.093693 
L 375.012252 294.541298 
L 375.51172 294.981993 
L 376.011189 294.932552 
L 377.010126 294.302638 
L 377.509594 294.787892 
L 380.006937 295.002746 
L 380.506406 295.339677 
L 381.005874 294.157978 
L 381.505343 294.990539 
L 382.004811 294.915462 
L 382.50428 294.634076 
L 383.003748 294.519934 
L 383.503217 294.19277 
L 384.002685 294.374053 
L 384.502154 295.346391 
L 385.001622 294.660932 
L 385.501091 294.49796 
L 386.000559 294.994201 
L 386.500028 294.81658 
L 386.999497 294.790333 
L 387.498965 294.496129 
L 387.998434 295.057681 
L 388.497902 294.724412 
L 388.997371 294.741503 
L 389.496839 294.338651 
L 389.996308 294.910579 
L 390.995245 294.577921 
L 391.494713 294.659101 
L 392.49365 294.537025 
L 392.993119 294.814138 
L 393.492587 294.197653 
L 393.992056 294.937435 
L 394.491524 294.893488 
L 395.490462 295.321366 
L 396.489399 294.446078 
L 396.988867 295.006409 
L 397.488336 294.73723 
L 397.987804 294.695114 
L 398.487273 295.00824 
L 398.487273 295.00824 
" clip-path="url(#p24ea73c974)" style="fill: none; stroke: #1f77b4; stroke-width: 1.5; stroke-linecap: square"/>
   </g>
   <g id="patch_3">
    <path d="M 57.6 307.584 
L 57.6 41.472 
" style="fill: none; stroke: #000000; stroke-width: 0.8; stroke-linejoin: miter; stroke-linecap: square"/>
   </g>
   <g id="patch_4">
    <path d="M 414.72 307.584 
L 414.72 41.472 
" style="fill: none; stroke: #000000; stroke-width: 0.8; stroke-linejoin: miter; stroke-linecap: square"/>
   </g>
   <g id="patch_5">
    <path d="M 57.6 307.584 
L 414.72 307.584 
" style="fill: none; stroke: #000000; stroke-width: 0.8; stroke-linejoin: miter; stroke-linecap: square"/>
   </g>
   <g id="patch_6">
    <path d="M 57.6 41.472 
L 414.72 41.472 
" style="fill: none; stroke: #000000; stroke-width: 0.8; stroke-linejoin: miter; stroke-linecap: square"/>
   </g>
  </g>
 </g>
 <defs>
  <clipPath id="p24ea73c974">
   <rect x="57.6" y="41.472" width="357.12" height="266.112"/>
  </clipPath>
 </defs>
</svg>
