<?xml version="1.0" encoding="utf-8" standalone="no"?>
<!DOCTYPE svg PUBLIC "-//W3C//DTD SVG 1.1//EN"
  "http://www.w3.org/Graphics/SVG/1.1/DTD/svg11.dtd">
<svg xmlns:xlink="http://www.w3.org/1999/xlink" width="432pt" height="288pt" viewBox="0 0 432 288" xmlns="http://www.w3.org/2000/svg" version="1.1">
 <metadata>
  <rdf:RDF xmlns:dc="http://purl.org/dc/elements/1.1/" xmlns:cc="http://creativecommons.org/ns#" xmlns:rdf="http://www.w3.org/1999/02/22-rdf-syntax-ns#">
   <cc:Work>
    <dc:type rdf:resource="http://purl.org/dc/dcmitype/StillImage"/>
    <dc:date>2022-11-23T08:13:06.326630</dc:date>
    <dc:format>image/svg+xml</dc:format>
    <dc:creator>
     <cc:Agent>
      <dc:title>Matplotlib v3.5.2, https://matplotlib.org/</dc:title>
     </cc:Agent>
    </dc:creator>
   </cc:Work>
  </rdf:RDF>
 </metadata>
 <defs>
  <style type="text/css">*{stroke-linejoin: round; stroke-linecap: butt}</style>
 </defs>
 <g id="figure_1">
  <g id="patch_1">
   <path d="M 0 288 
L 432 288 
L 432 0 
L 0 0 
L 0 288 
z
" style="fill: none"/>
  </g>
  <g id="axes_1">
   <g id="patch_2">
    <path d="M 54 252 
L 388.8 252 
L 388.8 34.56 
L 54 34.56 
z
" style="fill: #ffffff"/>
   </g>
   <g id="matplotlib.axis_1">
    <g id="xtick_1">
     <g id="line2d_1">
      <defs>
       <path id="m0a179f9903" d="M 0 0 
L 0 3.5 
" style="stroke: #000000; stroke-width: 0.8"/>
      </defs>
      <g>
       <use xlink:href="#m0a179f9903" x="84.436364" y="252" style="stroke: #000000; stroke-width: 0.8"/>
      </g>
     </g>
     <g id="text_1">
      <!-- 1.00 -->
      <g transform="translate(73.303551 266.598437)scale(0.1 -0.1)">
       <defs>
        <path id="DejaVuSans-31" d="M 794 531 
L 1825 531 
L 1825 4091 
L 703 3866 
L 703 4441 
L 1819 4666 
L 2450 4666 
L 2450 531 
L 3481 531 
L 3481 0 
L 794 0 
L 794 531 
z
" transform="scale(0.015625)"/>
        <path id="DejaVuSans-2e" d="M 684 794 
L 1344 794 
L 1344 0 
L 684 0 
L 684 794 
z
" transform="scale(0.015625)"/>
        <path id="DejaVuSans-30" d="M 2034 4250 
Q 1547 4250 1301 3770 
Q 1056 3291 1056 2328 
Q 1056 1369 1301 889 
Q 1547 409 2034 409 
Q 2525 409 2770 889 
Q 3016 1369 3016 2328 
Q 3016 3291 2770 3770 
Q 2525 4250 2034 4250 
z
M 2034 4750 
Q 2819 4750 3233 4129 
Q 3647 3509 3647 2328 
Q 3647 1150 3233 529 
Q 2819 -91 2034 -91 
Q 1250 -91 836 529 
Q 422 1150 422 2328 
Q 422 3509 836 4129 
Q 1250 4750 2034 4750 
z
" transform="scale(0.015625)"/>
       </defs>
       <use xlink:href="#DejaVuSans-31"/>
       <use xlink:href="#DejaVuSans-2e" x="63.623047"/>
       <use xlink:href="#DejaVuSans-30" x="95.410156"/>
       <use xlink:href="#DejaVuSans-30" x="159.033203"/>
      </g>
     </g>
    </g>
    <g id="xtick_2">
     <g id="line2d_2">
      <g>
       <use xlink:href="#m0a179f9903" x="122.481818" y="252" style="stroke: #000000; stroke-width: 0.8"/>
      </g>
     </g>
     <g id="text_2">
      <!-- 1.25 -->
      <g transform="translate(111.349006 266.598437)scale(0.1 -0.1)">
       <defs>
        <path id="DejaVuSans-32" d="M 1228 531 
L 3431 531 
L 3431 0 
L 469 0 
L 469 531 
Q 828 903 1448 1529 
Q 2069 2156 2228 2338 
Q 2531 2678 2651 2914 
Q 2772 3150 2772 3378 
Q 2772 3750 2511 3984 
Q 2250 4219 1831 4219 
Q 1534 4219 1204 4116 
Q 875 4013 500 3803 
L 500 4441 
Q 881 4594 1212 4672 
Q 1544 4750 1819 4750 
Q 2544 4750 2975 4387 
Q 3406 4025 3406 3419 
Q 3406 3131 3298 2873 
Q 3191 2616 2906 2266 
Q 2828 2175 2409 1742 
Q 1991 1309 1228 531 
z
" transform="scale(0.015625)"/>
        <path id="DejaVuSans-35" d="M 691 4666 
L 3169 4666 
L 3169 4134 
L 1269 4134 
L 1269 2991 
Q 1406 3038 1543 3061 
Q 1681 3084 1819 3084 
Q 2600 3084 3056 2656 
Q 3513 2228 3513 1497 
Q 3513 744 3044 326 
Q 2575 -91 1722 -91 
Q 1428 -91 1123 -41 
Q 819 9 494 109 
L 494 744 
Q 775 591 1075 516 
Q 1375 441 1709 441 
Q 2250 441 2565 725 
Q 2881 1009 2881 1497 
Q 2881 1984 2565 2268 
Q 2250 2553 1709 2553 
Q 1456 2553 1204 2497 
Q 953 2441 691 2322 
L 691 4666 
z
" transform="scale(0.015625)"/>
       </defs>
       <use xlink:href="#DejaVuSans-31"/>
       <use xlink:href="#DejaVuSans-2e" x="63.623047"/>
       <use xlink:href="#DejaVuSans-32" x="95.410156"/>
       <use xlink:href="#DejaVuSans-35" x="159.033203"/>
      </g>
     </g>
    </g>
    <g id="xtick_3">
     <g id="line2d_3">
      <g>
       <use xlink:href="#m0a179f9903" x="160.527273" y="252" style="stroke: #000000; stroke-width: 0.8"/>
      </g>
     </g>
     <g id="text_3">
      <!-- 1.50 -->
      <g transform="translate(149.39446 266.598437)scale(0.1 -0.1)">
       <use xlink:href="#DejaVuSans-31"/>
       <use xlink:href="#DejaVuSans-2e" x="63.623047"/>
       <use xlink:href="#DejaVuSans-35" x="95.410156"/>
       <use xlink:href="#DejaVuSans-30" x="159.033203"/>
      </g>
     </g>
    </g>
    <g id="xtick_4">
     <g id="line2d_4">
      <g>
       <use xlink:href="#m0a179f9903" x="198.572727" y="252" style="stroke: #000000; stroke-width: 0.8"/>
      </g>
     </g>
     <g id="text_4">
      <!-- 1.75 -->
      <g transform="translate(187.439915 266.598437)scale(0.1 -0.1)">
       <defs>
        <path id="DejaVuSans-37" d="M 525 4666 
L 3525 4666 
L 3525 4397 
L 1831 0 
L 1172 0 
L 2766 4134 
L 525 4134 
L 525 4666 
z
" transform="scale(0.015625)"/>
       </defs>
       <use xlink:href="#DejaVuSans-31"/>
       <use xlink:href="#DejaVuSans-2e" x="63.623047"/>
       <use xlink:href="#DejaVuSans-37" x="95.410156"/>
       <use xlink:href="#DejaVuSans-35" x="159.033203"/>
      </g>
     </g>
    </g>
    <g id="xtick_5">
     <g id="line2d_5">
      <g>
       <use xlink:href="#m0a179f9903" x="236.618182" y="252" style="stroke: #000000; stroke-width: 0.8"/>
      </g>
     </g>
     <g id="text_5">
      <!-- 2.00 -->
      <g transform="translate(225.485369 266.598437)scale(0.1 -0.1)">
       <use xlink:href="#DejaVuSans-32"/>
       <use xlink:href="#DejaVuSans-2e" x="63.623047"/>
       <use xlink:href="#DejaVuSans-30" x="95.410156"/>
       <use xlink:href="#DejaVuSans-30" x="159.033203"/>
      </g>
     </g>
    </g>
    <g id="xtick_6">
     <g id="line2d_6">
      <g>
       <use xlink:href="#m0a179f9903" x="274.663636" y="252" style="stroke: #000000; stroke-width: 0.8"/>
      </g>
     </g>
     <g id="text_6">
      <!-- 2.25 -->
      <g transform="translate(263.530824 266.598437)scale(0.1 -0.1)">
       <use xlink:href="#DejaVuSans-32"/>
       <use xlink:href="#DejaVuSans-2e" x="63.623047"/>
       <use xlink:href="#DejaVuSans-32" x="95.410156"/>
       <use xlink:href="#DejaVuSans-35" x="159.033203"/>
      </g>
     </g>
    </g>
    <g id="xtick_7">
     <g id="line2d_7">
      <g>
       <use xlink:href="#m0a179f9903" x="312.709091" y="252" style="stroke: #000000; stroke-width: 0.8"/>
      </g>
     </g>
     <g id="text_7">
      <!-- 2.50 -->
      <g transform="translate(301.576278 266.598437)scale(0.1 -0.1)">
       <use xlink:href="#DejaVuSans-32"/>
       <use xlink:href="#DejaVuSans-2e" x="63.623047"/>
       <use xlink:href="#DejaVuSans-35" x="95.410156"/>
       <use xlink:href="#DejaVuSans-30" x="159.033203"/>
      </g>
     </g>
    </g>
    <g id="xtick_8">
     <g id="line2d_8">
      <g>
       <use xlink:href="#m0a179f9903" x="350.754545" y="252" style="stroke: #000000; stroke-width: 0.8"/>
      </g>
     </g>
     <g id="text_8">
      <!-- 2.75 -->
      <g transform="translate(339.621733 266.598437)scale(0.1 -0.1)">
       <use xlink:href="#DejaVuSans-32"/>
       <use xlink:href="#DejaVuSans-2e" x="63.623047"/>
       <use xlink:href="#DejaVuSans-37" x="95.410156"/>
       <use xlink:href="#DejaVuSans-35" x="159.033203"/>
      </g>
     </g>
    </g>
    <g id="xtick_9">
     <g id="line2d_9">
      <g>
       <use xlink:href="#m0a179f9903" x="388.8" y="252" style="stroke: #000000; stroke-width: 0.8"/>
      </g>
     </g>
     <g id="text_9">
      <!-- 3.00 -->
      <g transform="translate(377.667188 266.598437)scale(0.1 -0.1)">
       <defs>
        <path id="DejaVuSans-33" d="M 2597 2516 
Q 3050 2419 3304 2112 
Q 3559 1806 3559 1356 
Q 3559 666 3084 287 
Q 2609 -91 1734 -91 
Q 1441 -91 1130 -33 
Q 819 25 488 141 
L 488 750 
Q 750 597 1062 519 
Q 1375 441 1716 441 
Q 2309 441 2620 675 
Q 2931 909 2931 1356 
Q 2931 1769 2642 2001 
Q 2353 2234 1838 2234 
L 1294 2234 
L 1294 2753 
L 1863 2753 
Q 2328 2753 2575 2939 
Q 2822 3125 2822 3475 
Q 2822 3834 2567 4026 
Q 2313 4219 1838 4219 
Q 1578 4219 1281 4162 
Q 984 4106 628 3988 
L 628 4550 
Q 988 4650 1302 4700 
Q 1616 4750 1894 4750 
Q 2613 4750 3031 4423 
Q 3450 4097 3450 3541 
Q 3450 3153 3228 2886 
Q 3006 2619 2597 2516 
z
" transform="scale(0.015625)"/>
       </defs>
       <use xlink:href="#DejaVuSans-33"/>
       <use xlink:href="#DejaVuSans-2e" x="63.623047"/>
       <use xlink:href="#DejaVuSans-30" x="95.410156"/>
       <use xlink:href="#DejaVuSans-30" x="159.033203"/>
      </g>
     </g>
    </g>
    <g id="text_10">
     <!-- t in ms -->
     <g transform="translate(204.228906 280.276563)scale(0.1 -0.1)">
      <defs>
       <path id="DejaVuSans-74" d="M 1172 4494 
L 1172 3500 
L 2356 3500 
L 2356 3053 
L 1172 3053 
L 1172 1153 
Q 1172 725 1289 603 
Q 1406 481 1766 481 
L 2356 481 
L 2356 0 
L 1766 0 
Q 1100 0 847 248 
Q 594 497 594 1153 
L 594 3053 
L 172 3053 
L 172 3500 
L 594 3500 
L 594 4494 
L 1172 4494 
z
" transform="scale(0.015625)"/>
       <path id="DejaVuSans-20" transform="scale(0.015625)"/>
       <path id="DejaVuSans-69" d="M 603 3500 
L 1178 3500 
L 1178 0 
L 603 0 
L 603 3500 
z
M 603 4863 
L 1178 4863 
L 1178 4134 
L 603 4134 
L 603 4863 
z
" transform="scale(0.015625)"/>
       <path id="DejaVuSans-6e" d="M 3513 2113 
L 3513 0 
L 2938 0 
L 2938 2094 
Q 2938 2591 2744 2837 
Q 2550 3084 2163 3084 
Q 1697 3084 1428 2787 
Q 1159 2491 1159 1978 
L 1159 0 
L 581 0 
L 581 3500 
L 1159 3500 
L 1159 2956 
Q 1366 3272 1645 3428 
Q 1925 3584 2291 3584 
Q 2894 3584 3203 3211 
Q 3513 2838 3513 2113 
z
" transform="scale(0.015625)"/>
       <path id="DejaVuSans-6d" d="M 3328 2828 
Q 3544 3216 3844 3400 
Q 4144 3584 4550 3584 
Q 5097 3584 5394 3201 
Q 5691 2819 5691 2113 
L 5691 0 
L 5113 0 
L 5113 2094 
Q 5113 2597 4934 2840 
Q 4756 3084 4391 3084 
Q 3944 3084 3684 2787 
Q 3425 2491 3425 1978 
L 3425 0 
L 2847 0 
L 2847 2094 
Q 2847 2600 2669 2842 
Q 2491 3084 2119 3084 
Q 1678 3084 1418 2786 
Q 1159 2488 1159 1978 
L 1159 0 
L 581 0 
L 581 3500 
L 1159 3500 
L 1159 2956 
Q 1356 3278 1631 3431 
Q 1906 3584 2284 3584 
Q 2666 3584 2933 3390 
Q 3200 3197 3328 2828 
z
" transform="scale(0.015625)"/>
       <path id="DejaVuSans-73" d="M 2834 3397 
L 2834 2853 
Q 2591 2978 2328 3040 
Q 2066 3103 1784 3103 
Q 1356 3103 1142 2972 
Q 928 2841 928 2578 
Q 928 2378 1081 2264 
Q 1234 2150 1697 2047 
L 1894 2003 
Q 2506 1872 2764 1633 
Q 3022 1394 3022 966 
Q 3022 478 2636 193 
Q 2250 -91 1575 -91 
Q 1294 -91 989 -36 
Q 684 19 347 128 
L 347 722 
Q 666 556 975 473 
Q 1284 391 1588 391 
Q 1994 391 2212 530 
Q 2431 669 2431 922 
Q 2431 1156 2273 1281 
Q 2116 1406 1581 1522 
L 1381 1569 
Q 847 1681 609 1914 
Q 372 2147 372 2553 
Q 372 3047 722 3315 
Q 1072 3584 1716 3584 
Q 2034 3584 2315 3537 
Q 2597 3491 2834 3397 
z
" transform="scale(0.015625)"/>
      </defs>
      <use xlink:href="#DejaVuSans-74"/>
      <use xlink:href="#DejaVuSans-20" x="39.208984"/>
      <use xlink:href="#DejaVuSans-69" x="70.996094"/>
      <use xlink:href="#DejaVuSans-6e" x="98.779297"/>
      <use xlink:href="#DejaVuSans-20" x="162.158203"/>
      <use xlink:href="#DejaVuSans-6d" x="193.945312"/>
      <use xlink:href="#DejaVuSans-73" x="291.357422"/>
     </g>
    </g>
   </g>
   <g id="matplotlib.axis_2">
    <g id="ytick_1">
     <g id="line2d_10">
      <defs>
       <path id="me724bb87fa" d="M 0 0 
L -3.5 0 
" style="stroke: #000000; stroke-width: 0.8"/>
      </defs>
      <g>
       <use xlink:href="#me724bb87fa" x="54" y="242.116364" style="stroke: #000000; stroke-width: 0.8"/>
      </g>
     </g>
     <g id="text_11">
      <!-- 0.0 -->
      <g transform="translate(31.096875 245.915582)scale(0.1 -0.1)">
       <use xlink:href="#DejaVuSans-30"/>
       <use xlink:href="#DejaVuSans-2e" x="63.623047"/>
       <use xlink:href="#DejaVuSans-30" x="95.410156"/>
      </g>
     </g>
    </g>
    <g id="ytick_2">
     <g id="line2d_11">
      <g>
       <use xlink:href="#me724bb87fa" x="54" y="202.581818" style="stroke: #000000; stroke-width: 0.8"/>
      </g>
     </g>
     <g id="text_12">
      <!-- 0.2 -->
      <g transform="translate(31.096875 206.381037)scale(0.1 -0.1)">
       <use xlink:href="#DejaVuSans-30"/>
       <use xlink:href="#DejaVuSans-2e" x="63.623047"/>
       <use xlink:href="#DejaVuSans-32" x="95.410156"/>
      </g>
     </g>
    </g>
    <g id="ytick_3">
     <g id="line2d_12">
      <g>
       <use xlink:href="#me724bb87fa" x="54" y="163.047273" style="stroke: #000000; stroke-width: 0.8"/>
      </g>
     </g>
     <g id="text_13">
      <!-- 0.4 -->
      <g transform="translate(31.096875 166.846491)scale(0.1 -0.1)">
       <defs>
        <path id="DejaVuSans-34" d="M 2419 4116 
L 825 1625 
L 2419 1625 
L 2419 4116 
z
M 2253 4666 
L 3047 4666 
L 3047 1625 
L 3713 1625 
L 3713 1100 
L 3047 1100 
L 3047 0 
L 2419 0 
L 2419 1100 
L 313 1100 
L 313 1709 
L 2253 4666 
z
" transform="scale(0.015625)"/>
       </defs>
       <use xlink:href="#DejaVuSans-30"/>
       <use xlink:href="#DejaVuSans-2e" x="63.623047"/>
       <use xlink:href="#DejaVuSans-34" x="95.410156"/>
      </g>
     </g>
    </g>
    <g id="ytick_4">
     <g id="line2d_13">
      <g>
       <use xlink:href="#me724bb87fa" x="54" y="123.512727" style="stroke: #000000; stroke-width: 0.8"/>
      </g>
     </g>
     <g id="text_14">
      <!-- 0.6 -->
      <g transform="translate(31.096875 127.311946)scale(0.1 -0.1)">
       <defs>
        <path id="DejaVuSans-36" d="M 2113 2584 
Q 1688 2584 1439 2293 
Q 1191 2003 1191 1497 
Q 1191 994 1439 701 
Q 1688 409 2113 409 
Q 2538 409 2786 701 
Q 3034 994 3034 1497 
Q 3034 2003 2786 2293 
Q 2538 2584 2113 2584 
z
M 3366 4563 
L 3366 3988 
Q 3128 4100 2886 4159 
Q 2644 4219 2406 4219 
Q 1781 4219 1451 3797 
Q 1122 3375 1075 2522 
Q 1259 2794 1537 2939 
Q 1816 3084 2150 3084 
Q 2853 3084 3261 2657 
Q 3669 2231 3669 1497 
Q 3669 778 3244 343 
Q 2819 -91 2113 -91 
Q 1303 -91 875 529 
Q 447 1150 447 2328 
Q 447 3434 972 4092 
Q 1497 4750 2381 4750 
Q 2619 4750 2861 4703 
Q 3103 4656 3366 4563 
z
" transform="scale(0.015625)"/>
       </defs>
       <use xlink:href="#DejaVuSans-30"/>
       <use xlink:href="#DejaVuSans-2e" x="63.623047"/>
       <use xlink:href="#DejaVuSans-36" x="95.410156"/>
      </g>
     </g>
    </g>
    <g id="ytick_5">
     <g id="line2d_14">
      <g>
       <use xlink:href="#me724bb87fa" x="54" y="83.978182" style="stroke: #000000; stroke-width: 0.8"/>
      </g>
     </g>
     <g id="text_15">
      <!-- 0.8 -->
      <g transform="translate(31.096875 87.777401)scale(0.1 -0.1)">
       <defs>
        <path id="DejaVuSans-38" d="M 2034 2216 
Q 1584 2216 1326 1975 
Q 1069 1734 1069 1313 
Q 1069 891 1326 650 
Q 1584 409 2034 409 
Q 2484 409 2743 651 
Q 3003 894 3003 1313 
Q 3003 1734 2745 1975 
Q 2488 2216 2034 2216 
z
M 1403 2484 
Q 997 2584 770 2862 
Q 544 3141 544 3541 
Q 544 4100 942 4425 
Q 1341 4750 2034 4750 
Q 2731 4750 3128 4425 
Q 3525 4100 3525 3541 
Q 3525 3141 3298 2862 
Q 3072 2584 2669 2484 
Q 3125 2378 3379 2068 
Q 3634 1759 3634 1313 
Q 3634 634 3220 271 
Q 2806 -91 2034 -91 
Q 1263 -91 848 271 
Q 434 634 434 1313 
Q 434 1759 690 2068 
Q 947 2378 1403 2484 
z
M 1172 3481 
Q 1172 3119 1398 2916 
Q 1625 2713 2034 2713 
Q 2441 2713 2670 2916 
Q 2900 3119 2900 3481 
Q 2900 3844 2670 4047 
Q 2441 4250 2034 4250 
Q 1625 4250 1398 4047 
Q 1172 3844 1172 3481 
z
" transform="scale(0.015625)"/>
       </defs>
       <use xlink:href="#DejaVuSans-30"/>
       <use xlink:href="#DejaVuSans-2e" x="63.623047"/>
       <use xlink:href="#DejaVuSans-38" x="95.410156"/>
      </g>
     </g>
    </g>
    <g id="ytick_6">
     <g id="line2d_15">
      <g>
       <use xlink:href="#me724bb87fa" x="54" y="44.443636" style="stroke: #000000; stroke-width: 0.8"/>
      </g>
     </g>
     <g id="text_16">
      <!-- 1.0 -->
      <g transform="translate(31.096875 48.242855)scale(0.1 -0.1)">
       <use xlink:href="#DejaVuSans-31"/>
       <use xlink:href="#DejaVuSans-2e" x="63.623047"/>
       <use xlink:href="#DejaVuSans-30" x="95.410156"/>
      </g>
     </g>
    </g>
    <g id="text_17">
     <!-- Normierte Intensität -->
     <g transform="translate(25.017187 193.8925)rotate(-90)scale(0.1 -0.1)">
      <defs>
       <path id="DejaVuSans-4e" d="M 628 4666 
L 1478 4666 
L 3547 763 
L 3547 4666 
L 4159 4666 
L 4159 0 
L 3309 0 
L 1241 3903 
L 1241 0 
L 628 0 
L 628 4666 
z
" transform="scale(0.015625)"/>
       <path id="DejaVuSans-6f" d="M 1959 3097 
Q 1497 3097 1228 2736 
Q 959 2375 959 1747 
Q 959 1119 1226 758 
Q 1494 397 1959 397 
Q 2419 397 2687 759 
Q 2956 1122 2956 1747 
Q 2956 2369 2687 2733 
Q 2419 3097 1959 3097 
z
M 1959 3584 
Q 2709 3584 3137 3096 
Q 3566 2609 3566 1747 
Q 3566 888 3137 398 
Q 2709 -91 1959 -91 
Q 1206 -91 779 398 
Q 353 888 353 1747 
Q 353 2609 779 3096 
Q 1206 3584 1959 3584 
z
" transform="scale(0.015625)"/>
       <path id="DejaVuSans-72" d="M 2631 2963 
Q 2534 3019 2420 3045 
Q 2306 3072 2169 3072 
Q 1681 3072 1420 2755 
Q 1159 2438 1159 1844 
L 1159 0 
L 581 0 
L 581 3500 
L 1159 3500 
L 1159 2956 
Q 1341 3275 1631 3429 
Q 1922 3584 2338 3584 
Q 2397 3584 2469 3576 
Q 2541 3569 2628 3553 
L 2631 2963 
z
" transform="scale(0.015625)"/>
       <path id="DejaVuSans-65" d="M 3597 1894 
L 3597 1613 
L 953 1613 
Q 991 1019 1311 708 
Q 1631 397 2203 397 
Q 2534 397 2845 478 
Q 3156 559 3463 722 
L 3463 178 
Q 3153 47 2828 -22 
Q 2503 -91 2169 -91 
Q 1331 -91 842 396 
Q 353 884 353 1716 
Q 353 2575 817 3079 
Q 1281 3584 2069 3584 
Q 2775 3584 3186 3129 
Q 3597 2675 3597 1894 
z
M 3022 2063 
Q 3016 2534 2758 2815 
Q 2500 3097 2075 3097 
Q 1594 3097 1305 2825 
Q 1016 2553 972 2059 
L 3022 2063 
z
" transform="scale(0.015625)"/>
       <path id="DejaVuSans-49" d="M 628 4666 
L 1259 4666 
L 1259 0 
L 628 0 
L 628 4666 
z
" transform="scale(0.015625)"/>
       <path id="DejaVuSans-e4" d="M 2194 1759 
Q 1497 1759 1228 1600 
Q 959 1441 959 1056 
Q 959 750 1161 570 
Q 1363 391 1709 391 
Q 2188 391 2477 730 
Q 2766 1069 2766 1631 
L 2766 1759 
L 2194 1759 
z
M 3341 1997 
L 3341 0 
L 2766 0 
L 2766 531 
Q 2569 213 2275 61 
Q 1981 -91 1556 -91 
Q 1019 -91 701 211 
Q 384 513 384 1019 
Q 384 1609 779 1909 
Q 1175 2209 1959 2209 
L 2766 2209 
L 2766 2266 
Q 2766 2663 2505 2880 
Q 2244 3097 1772 3097 
Q 1472 3097 1187 3025 
Q 903 2953 641 2809 
L 641 3341 
Q 956 3463 1253 3523 
Q 1550 3584 1831 3584 
Q 2591 3584 2966 3190 
Q 3341 2797 3341 1997 
z
M 2150 4850 
L 2784 4850 
L 2784 4219 
L 2150 4219 
L 2150 4850 
z
M 928 4850 
L 1563 4850 
L 1563 4219 
L 928 4219 
L 928 4850 
z
" transform="scale(0.015625)"/>
      </defs>
      <use xlink:href="#DejaVuSans-4e"/>
      <use xlink:href="#DejaVuSans-6f" x="74.804688"/>
      <use xlink:href="#DejaVuSans-72" x="135.986328"/>
      <use xlink:href="#DejaVuSans-6d" x="175.349609"/>
      <use xlink:href="#DejaVuSans-69" x="272.761719"/>
      <use xlink:href="#DejaVuSans-65" x="300.544922"/>
      <use xlink:href="#DejaVuSans-72" x="362.068359"/>
      <use xlink:href="#DejaVuSans-74" x="403.181641"/>
      <use xlink:href="#DejaVuSans-65" x="442.390625"/>
      <use xlink:href="#DejaVuSans-20" x="503.914062"/>
      <use xlink:href="#DejaVuSans-49" x="535.701172"/>
      <use xlink:href="#DejaVuSans-6e" x="565.193359"/>
      <use xlink:href="#DejaVuSans-74" x="628.572266"/>
      <use xlink:href="#DejaVuSans-65" x="667.78125"/>
      <use xlink:href="#DejaVuSans-6e" x="729.304688"/>
      <use xlink:href="#DejaVuSans-73" x="792.683594"/>
      <use xlink:href="#DejaVuSans-69" x="844.783203"/>
      <use xlink:href="#DejaVuSans-74" x="872.566406"/>
      <use xlink:href="#DejaVuSans-e4" x="911.775391"/>
      <use xlink:href="#DejaVuSans-74" x="973.054688"/>
     </g>
    </g>
   </g>
   <g id="line2d_16">
    <path d="M 53.239091 242.116364 
L 63.891818 242.116364 
L 64.652727 240.572045 
L 65.413636 240.572045 
L 66.174545 242.116364 
L 100.415455 242.116364 
L 101.176364 47.532273 
L 101.937273 47.532273 
L 102.698182 45.987955 
L 103.459091 45.987955 
L 104.22 47.532273 
L 115.633636 47.532273 
L 116.394545 45.987955 
L 118.677273 45.987955 
L 119.438182 47.532273 
L 144.548182 47.532273 
L 145.309091 45.987955 
L 146.07 45.987955 
L 146.830909 47.532273 
L 156.722727 47.532273 
L 157.483636 45.987955 
L 158.244545 45.987955 
L 159.005455 47.532273 
L 159.766364 47.532273 
L 160.527273 45.987955 
L 164.331818 45.987955 
L 165.092727 47.532273 
L 187.159091 47.532273 
L 187.92 45.987955 
L 188.680909 45.987955 
L 189.441818 47.532273 
L 191.724545 47.532273 
L 192.485455 45.987955 
L 193.246364 45.987955 
L 194.007273 47.532273 
L 220.639091 47.532273 
L 221.4 45.987955 
L 222.160909 45.987955 
L 222.921818 47.532273 
L 229.77 47.532273 
L 230.530909 45.987955 
L 231.291818 45.987955 
L 232.052727 47.532273 
L 234.335455 47.532273 
L 235.096364 45.987955 
L 235.857273 45.987955 
L 236.618182 47.532273 
L 238.900909 47.532273 
L 239.661818 45.987955 
L 240.422727 45.987955 
L 241.183636 47.532273 
L 241.944545 47.532273 
L 242.705455 45.987955 
L 244.988182 45.987955 
L 245.749091 47.532273 
L 248.031818 47.532273 
L 248.792727 45.987955 
L 249.553636 45.987955 
L 250.314545 47.532273 
L 252.597273 47.532273 
L 253.358182 45.987955 
L 254.119091 45.987955 
L 254.88 47.532273 
L 261.728182 47.532273 
L 262.489091 45.987955 
L 270.859091 45.987955 
L 271.62 47.532273 
L 273.902727 47.532273 
L 274.663636 45.987955 
L 275.424545 45.987955 
L 276.185455 47.532273 
L 278.468182 47.532273 
L 279.229091 45.987955 
L 279.99 45.987955 
L 280.750909 47.532273 
L 283.033636 47.532273 
L 283.794545 45.987955 
L 286.077273 45.987955 
L 286.838182 47.532273 
L 287.599091 47.532273 
L 288.36 45.987955 
L 290.642727 45.987955 
L 291.403636 47.532273 
L 292.164545 47.532273 
L 292.925455 45.987955 
L 322.600909 45.987955 
L 323.361818 47.532273 
L 324.122727 47.532273 
L 324.883636 45.987955 
L 389.560909 45.987955 
L 389.560909 45.987955 
" clip-path="url(#p48fb033e96)" style="fill: none; stroke: #1f77b4; stroke-width: 1.5; stroke-linecap: square"/>
   </g>
   <g id="line2d_17">
    <path d="M 53.239091 242.116364 
L 54.760909 242.116364 
L 55.521818 239.734765 
L 56.282727 239.734765 
L 57.043636 242.116364 
L 59.326364 242.116364 
L 60.087273 239.734765 
L 60.848182 239.734765 
L 61.609091 242.116364 
L 65.413636 242.116364 
L 66.174545 239.734765 
L 66.935455 239.734765 
L 67.696364 242.116364 
L 73.022727 242.116364 
L 73.783636 239.734765 
L 76.066364 239.734765 
L 76.827273 242.116364 
L 77.588182 242.116364 
L 78.349091 239.734765 
L 79.11 239.734765 
L 79.870909 242.116364 
L 80.631818 242.116364 
L 81.392727 239.734765 
L 82.153636 239.734765 
L 82.914545 242.116364 
L 85.197273 242.116364 
L 85.958182 239.734765 
L 89.762727 239.734765 
L 90.523636 242.116364 
L 91.284545 242.116364 
L 92.045455 239.734765 
L 95.85 239.734765 
L 96.610909 242.116364 
L 97.371818 242.116364 
L 98.132727 239.734765 
L 104.980909 239.734765 
L 105.741818 242.116364 
L 106.502727 242.116364 
L 107.263636 239.734765 
L 112.59 239.734765 
L 113.350909 165.905192 
L 117.155455 165.905192 
L 117.916364 134.944403 
L 118.677273 134.944403 
L 119.438182 132.562804 
L 120.199091 132.562804 
L 120.96 130.181205 
L 121.720909 130.181205 
L 122.481818 84.930821 
L 123.242727 84.930821 
L 124.003636 94.457218 
L 124.764545 94.457218 
L 125.525455 87.312421 
L 126.286364 87.312421 
L 127.047273 89.69402 
L 127.808182 89.69402 
L 128.569091 87.312421 
L 129.33 87.312421 
L 130.090909 75.404425 
L 130.851818 75.404425 
L 131.612727 82.549222 
L 132.373636 82.549222 
L 133.134545 75.404425 
L 133.895455 75.404425 
L 134.656364 61.11483 
L 135.417273 61.11483 
L 136.178182 75.404425 
L 136.939091 75.404425 
L 137.7 63.496429 
L 138.460909 63.496429 
L 139.221818 58.733231 
L 139.982727 58.733231 
L 140.743636 70.641227 
L 141.504545 70.641227 
L 142.265455 61.11483 
L 143.026364 61.11483 
L 143.787273 53.970033 
L 144.548182 53.970033 
L 145.309091 51.588434 
L 147.591818 51.588434 
L 148.352727 49.206835 
L 150.635455 49.206835 
L 151.396364 56.351632 
L 152.157273 56.351632 
L 152.918182 58.733231 
L 153.679091 58.733231 
L 154.44 53.970033 
L 156.722727 53.970033 
L 157.483636 51.588434 
L 158.244545 51.588434 
L 159.005455 56.351632 
L 159.766364 56.351632 
L 160.527273 58.733231 
L 162.81 58.733231 
L 163.570909 56.351632 
L 164.331818 56.351632 
L 165.092727 51.588434 
L 168.897273 51.588434 
L 169.658182 49.206835 
L 170.419091 49.206835 
L 171.18 51.588434 
L 171.940909 51.588434 
L 172.701818 56.351632 
L 173.462727 56.351632 
L 174.223636 61.11483 
L 174.984545 61.11483 
L 175.745455 51.588434 
L 176.506364 51.588434 
L 177.267273 44.443636 
L 178.028182 44.443636 
L 178.789091 56.351632 
L 179.55 56.351632 
L 180.310909 53.970033 
L 181.071818 53.970033 
L 181.832727 58.733231 
L 182.593636 58.733231 
L 183.354545 51.588434 
L 184.115455 51.588434 
L 184.876364 49.206835 
L 185.637273 49.206835 
L 186.398182 51.588434 
L 187.159091 51.588434 
L 187.92 49.206835 
L 188.680909 49.206835 
L 189.441818 56.351632 
L 190.202727 56.351632 
L 190.963636 46.825235 
L 191.724545 46.825235 
L 192.485455 49.206835 
L 194.768182 49.206835 
L 195.529091 51.588434 
L 196.29 51.588434 
L 197.050909 56.351632 
L 197.811818 56.351632 
L 198.572727 58.733231 
L 199.333636 58.733231 
L 200.094545 61.11483 
L 200.855455 61.11483 
L 201.616364 56.351632 
L 206.942727 56.351632 
L 207.703636 53.970033 
L 208.464545 53.970033 
L 209.225455 61.11483 
L 209.986364 61.11483 
L 210.747273 56.351632 
L 211.508182 56.351632 
L 212.269091 49.206835 
L 213.03 49.206835 
L 213.790909 53.970033 
L 214.551818 53.970033 
L 215.312727 51.588434 
L 216.073636 51.588434 
L 216.834545 56.351632 
L 217.595455 56.351632 
L 218.356364 53.970033 
L 220.639091 53.970033 
L 221.4 58.733231 
L 223.682727 58.733231 
L 224.443636 65.878028 
L 225.204545 65.878028 
L 225.965455 61.11483 
L 226.726364 61.11483 
L 227.487273 58.733231 
L 228.248182 58.733231 
L 229.009091 65.878028 
L 229.77 65.878028 
L 230.530909 63.496429 
L 231.291818 63.496429 
L 232.052727 73.022826 
L 232.813636 73.022826 
L 233.574545 63.496429 
L 234.335455 63.496429 
L 235.096364 56.351632 
L 235.857273 56.351632 
L 236.618182 53.970033 
L 240.422727 53.970033 
L 241.183636 56.351632 
L 241.944545 56.351632 
L 242.705455 61.11483 
L 243.466364 61.11483 
L 244.227273 63.496429 
L 244.988182 63.496429 
L 245.749091 56.351632 
L 246.51 56.351632 
L 247.270909 51.588434 
L 251.075455 51.588434 
L 251.836364 56.351632 
L 252.597273 56.351632 
L 253.358182 53.970033 
L 255.640909 53.970033 
L 256.401818 58.733231 
L 257.162727 58.733231 
L 257.923636 68.259628 
L 258.684545 68.259628 
L 259.445455 70.641227 
L 260.206364 70.641227 
L 260.967273 63.496429 
L 261.728182 63.496429 
L 262.489091 58.733231 
L 263.25 58.733231 
L 264.010909 53.970033 
L 264.771818 53.970033 
L 265.532727 56.351632 
L 267.815455 56.351632 
L 268.576364 58.733231 
L 269.337273 58.733231 
L 270.098182 56.351632 
L 272.380909 56.351632 
L 273.141818 63.496429 
L 273.902727 63.496429 
L 274.663636 61.11483 
L 275.424545 61.11483 
L 276.185455 63.496429 
L 278.468182 63.496429 
L 279.229091 65.878028 
L 279.99 65.878028 
L 280.750909 68.259628 
L 283.033636 68.259628 
L 283.794545 65.878028 
L 284.555455 65.878028 
L 285.316364 63.496429 
L 286.077273 63.496429 
L 286.838182 61.11483 
L 290.642727 61.11483 
L 291.403636 58.733231 
L 292.164545 58.733231 
L 292.925455 61.11483 
L 293.686364 61.11483 
L 294.447273 65.878028 
L 295.208182 65.878028 
L 295.969091 70.641227 
L 298.251818 70.641227 
L 299.012727 65.878028 
L 299.773636 65.878028 
L 300.534545 58.733231 
L 305.860909 58.733231 
L 306.621818 56.351632 
L 307.382727 56.351632 
L 308.143636 58.733231 
L 308.904545 58.733231 
L 309.665455 63.496429 
L 310.426364 63.496429 
L 311.187273 65.878028 
L 311.948182 65.878028 
L 312.709091 70.641227 
L 314.991818 70.641227 
L 315.752727 75.404425 
L 316.513636 75.404425 
L 317.274545 73.022826 
L 318.035455 73.022826 
L 318.796364 75.404425 
L 319.557273 75.404425 
L 320.318182 73.022826 
L 321.079091 73.022826 
L 321.84 65.878028 
L 322.600909 65.878028 
L 323.361818 63.496429 
L 325.644545 63.496429 
L 326.405455 65.878028 
L 327.166364 65.878028 
L 327.927273 68.259628 
L 328.688182 68.259628 
L 329.449091 70.641227 
L 333.253636 70.641227 
L 334.014545 75.404425 
L 334.775455 75.404425 
L 335.536364 77.786024 
L 336.297273 77.786024 
L 337.058182 73.022826 
L 337.819091 73.022826 
L 338.58 75.404425 
L 339.340909 75.404425 
L 340.101818 73.022826 
L 340.862727 73.022826 
L 341.623636 70.641227 
L 342.384545 70.641227 
L 343.145455 73.022826 
L 343.906364 73.022826 
L 344.667273 65.878028 
L 345.428182 65.878028 
L 346.189091 61.11483 
L 346.95 61.11483 
L 347.710909 58.733231 
L 349.993636 58.733231 
L 350.754545 61.11483 
L 354.559091 61.11483 
L 355.32 56.351632 
L 359.124545 56.351632 
L 359.885455 53.970033 
L 360.646364 53.970033 
L 361.407273 61.11483 
L 362.168182 61.11483 
L 362.929091 65.878028 
L 365.211818 65.878028 
L 365.972727 63.496429 
L 366.733636 63.496429 
L 367.494545 65.878028 
L 368.255455 65.878028 
L 369.016364 68.259628 
L 369.777273 68.259628 
L 370.538182 70.641227 
L 372.820909 70.641227 
L 373.581818 65.878028 
L 374.342727 65.878028 
L 375.103636 63.496429 
L 375.864545 63.496429 
L 376.625455 61.11483 
L 377.386364 61.11483 
L 378.147273 56.351632 
L 380.43 56.351632 
L 381.190909 51.588434 
L 381.951818 51.588434 
L 382.712727 53.970033 
L 384.995455 53.970033 
L 385.756364 58.733231 
L 386.517273 58.733231 
L 387.278182 63.496429 
L 388.039091 63.496429 
L 388.8 65.878028 
L 389.560909 65.878028 
L 389.560909 65.878028 
" clip-path="url(#p48fb033e96)" style="fill: none; stroke: #ff7f0e; stroke-width: 1.5; stroke-linecap: square"/>
   </g>
   <g id="patch_3">
    <path d="M 54 252 
L 54 34.56 
" style="fill: none; stroke: #000000; stroke-width: 0.8; stroke-linejoin: miter; stroke-linecap: square"/>
   </g>
   <g id="patch_4">
    <path d="M 388.8 252 
L 388.8 34.56 
" style="fill: none; stroke: #000000; stroke-width: 0.8; stroke-linejoin: miter; stroke-linecap: square"/>
   </g>
   <g id="patch_5">
    <path d="M 54 252 
L 388.8 252 
" style="fill: none; stroke: #000000; stroke-width: 0.8; stroke-linejoin: miter; stroke-linecap: square"/>
   </g>
   <g id="patch_6">
    <path d="M 54 34.56 
L 388.8 34.56 
" style="fill: none; stroke: #000000; stroke-width: 0.8; stroke-linejoin: miter; stroke-linecap: square"/>
   </g>
  </g>
 </g>
 <defs>
  <clipPath id="p48fb033e96">
   <rect x="54" y="34.56" width="334.8" height="217.44"/>
  </clipPath>
 </defs>
</svg>
